<?xml version="1.0" standalone="no"?>
<!DOCTYPE svg PUBLIC "-//W3C//DTD SVG 20010904//EN"
 "http://www.w3.org/TR/2001/REC-SVG-20010904/DTD/svg10.dtd">
<svg version="1.0" xmlns="http://www.w3.org/2000/svg"
 width="479.000000pt" height="479.000000pt" viewBox="0 0 479.000000 479.000000"
 preserveAspectRatio="xMidYMid meet">
<metadata>
Created by potrace 1.14, written by Peter Selinger 2001-2017
</metadata>
<g transform="translate(0.000000,479.000000) scale(0.100000,-0.100000)"
fill="#000000" stroke="none">
<path d="M2530 4755 c-7 -9 -29 -15 -54 -15 -138 0 -377 -84 -521 -182 -65
-44 -85 -62 -219 -189 -61 -59 -138 -127 -171 -151 -33 -25 -115 -102 -182
-172 -127 -131 -139 -151 -111 -196 11 -16 9 -24 -13 -47 -50 -56 -68 -92 -79
-154 -16 -93 -51 -222 -64 -239 -7 -8 -25 -39 -40 -69 -24 -44 -27 -58 -17
-72 18 -30 13 -60 -24 -152 -19 -48 -35 -104 -35 -125 0 -40 -21 -133 -70
-317 -88 -327 -93 -352 -65 -375 21 -17 54 -3 61 28 11 49 14 48 9 -3 -11
-118 -26 -399 -35 -645 -5 -146 -13 -290 -19 -320 -10 -56 -31 -298 -31 -358
0 -22 8 -40 25 -56 24 -22 25 -28 25 -149 0 -132 2 -137 50 -137 25 0 50 37
50 73 0 15 4 26 9 23 5 -3 12 -53 16 -111 7 -102 8 -106 38 -131 21 -18 32
-36 32 -53 0 -22 5 -26 35 -29 19 -2 40 -8 47 -14 7 -5 31 -7 57 -3 60 9 63 0
42 -118 -19 -112 -36 -239 -36 -272 l0 -25 1240 0 1240 0 -7 33 c-3 17 -11 43
-18 57 -7 14 -15 43 -18 65 -4 22 -13 80 -21 129 -12 76 -12 94 0 122 12 28
20 34 47 34 227 4 232 6 223 79 -27 195 -41 701 -38 1321 3 531 -11 1250 -26
1275 -13 23 -42 194 -42 247 0 19 -4 38 -9 44 -26 27 -68 165 -74 239 -7 106
-33 224 -63 294 -25 57 -145 191 -171 191 -7 0 -13 2 -13 5 0 28 -35 165 -47
185 -8 14 -48 59 -88 100 -41 41 -98 100 -127 130 -32 33 -69 61 -93 69 -22 8
-56 27 -75 42 -40 32 -161 81 -238 98 -82 17 -277 15 -292 -4z m360 -772 c30
-37 79 -103 109 -147 30 -45 79 -111 108 -148 35 -44 62 -92 79 -140 14 -40
39 -107 56 -148 26 -62 32 -90 34 -165 2 -99 47 -337 70 -373 9 -14 16 -54 18
-103 1 -45 7 -84 13 -87 10 -7 33 -87 33 -114 0 -10 -10 -13 -34 -10 -32 4
-45 -6 -193 -138 -296 -265 -454 -329 -783 -317 -162 6 -213 18 -331 77 -146
74 -328 218 -398 315 -181 248 -227 509 -140 795 19 63 100 200 140 236 18 16
19 16 19 -4 0 -12 -22 -66 -50 -120 -58 -114 -61 -138 -22 -155 23 -10 27 -18
28 -54 1 -60 25 -83 84 -83 53 0 91 23 115 70 21 40 19 93 -4 114 -25 22 -82
31 -120 18 -17 -6 -31 -9 -31 -7 0 3 20 47 44 99 41 86 66 123 66 97 0 -23 38
-31 73 -16 31 13 41 13 82 0 53 -16 71 -12 81 17 9 30 -15 47 -84 60 -46 9
-71 9 -99 0 -20 -6 -38 -10 -40 -8 -11 10 81 121 193 233 123 122 140 135 236
182 153 76 219 90 423 90 l170 1 55 -67z m-1813 -1095 c-17 -10 -20 -3 -11 34
l7 33 8 -30 c6 -20 5 -32 -4 -37z m2681 -89 c-4 -59 -63 -195 -83 -190 -5 1
-9 21 -7 44 2 33 9 47 32 65 29 23 30 26 31 115 1 91 1 92 16 57 10 -23 14
-55 11 -91z m-2742 -126 c-10 -26 -18 -8 -9 23 5 21 8 24 11 11 2 -10 1 -25
-2 -34z m-35 -156 c-8 -8 -11 -5 -11 9 0 27 14 41 18 19 2 -9 -1 -22 -7 -28z
m1749 -496 c0 -9 3 -26 6 -38 l6 -22 -241 -3 -241 -3 0 40 0 40 235 1 c212 2
235 0 235 -15z"/>
<path d="M2892 3368 c-16 -16 -15 -43 3 -58 8 -7 43 -13 77 -14 35 -1 87 -10
116 -20 58 -20 82 -12 82 26 0 22 -39 41 -120 56 -107 21 -145 23 -158 10z"/>
<path d="M2352 3198 c-5 -7 -24 -67 -41 -134 -43 -166 -41 -221 7 -195 13 7
22 30 31 78 6 37 20 106 30 153 19 88 18 110 -4 110 -7 0 -17 -6 -23 -12z"/>
<path d="M3032 3064 c-41 -21 -62 -60 -62 -114 0 -56 14 -77 59 -91 47 -14 97
0 132 37 20 21 24 36 24 84 0 42 -5 64 -16 76 -25 24 -97 28 -137 8z"/>
<path d="M2100 2570 c0 -26 -1 -26 155 -49 139 -21 165 -17 128 21 -22 22
-150 47 -240 48 -37 0 -43 -3 -43 -20z"/>
</g>
</svg>
