<svg width="326" height="522" viewBox="0 0 326 522" fill="none" xmlns="http://www.w3.org/2000/svg">
<title>Account</title>
<g clip-path="url(#clip0)">
<rect width="326" height="522" rx="10" fill="white" fill-opacity="0.69"/>
<rect width="326" height="522" fill="#9BC4EB" fill-opacity="0.69"/>
<path d="M74.05 83.375C79.025 83.375 81.575 80.075 82.25 77.35L79.025 76.375C78.55 78.025 77.075 80 74.05 80C71.2 80 68.55 77.925 68.55 74.15C68.55 70.125 71.35 68.225 74 68.225C77.075 68.225 78.45 70.1 78.875 71.8L82.125 70.775C81.425 67.9 78.9 64.9 74 64.9C69.25 64.9 64.975 68.5 64.975 74.15C64.975 79.8 69.1 83.375 74.05 83.375ZM93.3971 70.65C93.1471 70.625 92.8971 70.6 92.6221 70.6C91.5721 70.6 89.8721 70.9 89.1221 72.525V70.7H85.8971V83H89.2221V77.375C89.2221 74.725 90.6971 73.9 92.3971 73.9C92.6971 73.9 93.0221 73.925 93.3971 74V70.65ZM99.2889 75.45C99.3639 74.325 100.314 73.025 102.039 73.025C103.939 73.025 104.739 74.225 104.789 75.45H99.2889ZM105.114 78.65C104.714 79.75 103.864 80.525 102.314 80.525C100.664 80.525 99.2889 79.35 99.2139 77.725H108.014C108.014 77.675 108.064 77.175 108.064 76.7C108.064 72.75 105.789 70.325 101.989 70.325C98.8389 70.325 95.9389 72.875 95.9389 76.8C95.9389 80.95 98.9139 83.375 102.289 83.375C105.314 83.375 107.264 81.6 107.889 79.475L105.114 78.65ZM111.182 79.65C111.182 81.575 112.782 83.35 115.407 83.35C117.232 83.35 118.407 82.5 119.032 81.525C119.032 82 119.082 82.675 119.157 83H122.207C122.132 82.575 122.057 81.7 122.057 81.05V75C122.057 72.525 120.607 70.325 116.707 70.325C113.407 70.325 111.632 72.45 111.432 74.375L114.382 75C114.482 73.925 115.282 73 116.732 73C118.132 73 118.807 73.725 118.807 74.6C118.807 75.025 118.582 75.375 117.882 75.475L114.857 75.925C112.807 76.225 111.182 77.45 111.182 79.65ZM116.107 80.875C115.032 80.875 114.507 80.175 114.507 79.45C114.507 78.5 115.182 78.025 116.032 77.9L118.807 77.475V78.025C118.807 80.2 117.507 80.875 116.107 80.875ZM130.686 67.025H127.686V68.75C127.686 69.85 127.086 70.7 125.786 70.7H125.161V73.65H127.386V79.375C127.386 81.75 128.886 83.175 131.286 83.175C132.261 83.175 132.861 83 133.161 82.875V80.125C132.986 80.175 132.536 80.225 132.136 80.225C131.186 80.225 130.686 79.875 130.686 78.8V73.65H133.161V70.7H130.686V67.025ZM139.538 75.45C139.613 74.325 140.563 73.025 142.288 73.025C144.188 73.025 144.988 74.225 145.038 75.45H139.538ZM145.363 78.65C144.963 79.75 144.113 80.525 142.563 80.525C140.913 80.525 139.538 79.35 139.463 77.725H148.263C148.263 77.675 148.313 77.175 148.313 76.7C148.313 72.75 146.038 70.325 142.238 70.325C139.088 70.325 136.188 72.875 136.188 76.8C136.188 80.95 139.163 83.375 142.538 83.375C145.563 83.375 147.513 81.6 148.138 79.475L145.363 78.65ZM171.883 83H175.633L168.883 65.275H164.883L158.083 83H161.733L163.208 78.95H170.408L171.883 83ZM166.808 69.1L169.258 75.8H164.358L166.808 69.1ZM184.181 73.4C185.831 73.4 186.606 74.45 186.906 75.475L189.881 74.475C189.356 72.4 187.456 70.325 184.106 70.325C180.531 70.325 177.731 73.05 177.731 76.85C177.731 80.625 180.581 83.375 184.206 83.375C187.481 83.375 189.406 81.275 189.956 79.225L187.031 78.25C186.756 79.2 185.906 80.325 184.206 80.325C182.506 80.325 181.056 79.075 181.056 76.85C181.056 74.625 182.481 73.4 184.181 73.4ZM199.054 73.4C200.704 73.4 201.479 74.45 201.779 75.475L204.754 74.475C204.229 72.4 202.329 70.325 198.979 70.325C195.404 70.325 192.604 73.05 192.604 76.85C192.604 80.625 195.454 83.375 199.079 83.375C202.354 83.375 204.279 81.275 204.829 79.225L201.904 78.25C201.629 79.2 200.779 80.325 199.079 80.325C197.379 80.325 195.929 79.075 195.929 76.85C195.929 74.625 197.354 73.4 199.054 73.4ZM213.927 80.35C212.302 80.35 210.802 79.15 210.802 76.85C210.802 74.525 212.302 73.35 213.927 73.35C215.552 73.35 217.052 74.525 217.052 76.85C217.052 79.175 215.552 80.35 213.927 80.35ZM213.927 70.325C210.252 70.325 207.477 73.05 207.477 76.85C207.477 80.625 210.252 83.375 213.927 83.375C217.602 83.375 220.377 80.625 220.377 76.85C220.377 73.05 217.602 70.325 213.927 70.325ZM232.253 83H235.428C235.378 82.575 235.303 81.725 235.303 80.775V70.7H231.978V77.85C231.978 79.275 231.128 80.275 229.653 80.275C228.103 80.275 227.403 79.175 227.403 77.8V70.7H224.078V78.475C224.078 81.15 225.778 83.325 228.753 83.325C230.053 83.325 231.478 82.825 232.153 81.675C232.153 82.175 232.203 82.75 232.253 83ZM243.426 75.925C243.426 74.5 244.276 73.375 245.726 73.375C247.326 73.375 248.001 74.45 248.001 75.825V83H251.326V75.25C251.326 72.55 249.926 70.375 246.876 70.375C245.551 70.375 244.076 70.95 243.326 72.225V70.7H240.101V83H243.426V75.925ZM260.051 67.025H257.051V68.75C257.051 69.85 256.451 70.7 255.151 70.7H254.526V73.65H256.751V79.375C256.751 81.75 258.251 83.175 260.651 83.175C261.626 83.175 262.226 83 262.526 82.875V80.125C262.351 80.175 261.901 80.225 261.501 80.225C260.551 80.225 260.051 79.875 260.051 78.8V73.65H262.526V70.7H260.051V67.025Z" fill="black"/>
<rect x="44" y="215" width="238" height="33" rx="16.5" fill="white"/>
<path d="M97.8 236V228.91H96.6V233.94L93.38 228.91H91.85V236H93.05V230.63L96.55 236H97.8ZM99.3672 234.68C99.3672 235.45 99.9972 236.15 101.017 236.15C101.807 236.15 102.287 235.75 102.517 235.38C102.517 235.77 102.557 235.97 102.567 236H103.647C103.637 235.95 103.587 235.66 103.587 235.22V232.8C103.587 231.83 103.017 230.98 101.517 230.98C100.317 230.98 99.5572 231.73 99.4672 232.57L100.527 232.81C100.577 232.32 100.917 231.93 101.527 231.93C102.167 231.93 102.447 232.26 102.447 232.67C102.447 232.84 102.367 232.98 102.087 233.02L100.837 233.21C100.007 233.33 99.3672 233.81 99.3672 234.68ZM101.237 235.24C100.777 235.24 100.527 234.94 100.527 234.61C100.527 234.21 100.817 234.01 101.177 233.95L102.447 233.76V233.98C102.447 234.93 101.887 235.24 101.237 235.24ZM106.439 236V233.11C106.439 232.49 106.829 232.03 107.449 232.03C108.109 232.03 108.389 232.47 108.389 233.03V236H109.529V233.11C109.529 232.51 109.929 232.03 110.539 232.03C111.189 232.03 111.479 232.46 111.479 233.03V236H112.599V232.84C112.599 231.55 111.759 230.99 110.879 230.99C110.249 230.99 109.679 231.21 109.299 231.85C109.039 231.28 108.479 230.99 107.839 230.99C107.289 230.99 106.679 231.25 106.399 231.75V231.13H105.289V236H106.439ZM115.13 233.03C115.17 232.51 115.59 231.95 116.32 231.95C117.12 231.95 117.5 232.46 117.52 233.03H115.13ZM117.65 234.3C117.49 234.78 117.13 235.15 116.43 235.15C115.71 235.15 115.13 234.62 115.1 233.88H118.66C118.67 233.86 118.69 233.7 118.69 233.51C118.69 231.97 117.81 230.98 116.31 230.98C115.08 230.98 113.94 232 113.94 233.54C113.94 235.19 115.11 236.15 116.43 236.15C117.6 236.15 118.37 235.46 118.63 234.61L117.65 234.3Z" fill="black" fill-opacity="0.38"/>
<rect x="44" y="263" width="238" height="33" rx="16.5" fill="white"/>
<path d="M93.05 279.17V276.97H94.3C95.06 276.97 95.52 277.4 95.52 278.08C95.52 278.75 95.06 279.17 94.3 279.17H93.05ZM94.48 280.23C95.84 280.23 96.74 279.32 96.74 278.07C96.74 276.83 95.84 275.91 94.48 275.91H91.85V283H93.05V280.23H94.48ZM97.5313 281.68C97.5313 282.45 98.1613 283.15 99.1813 283.15C99.9713 283.15 100.451 282.75 100.681 282.38C100.681 282.77 100.721 282.97 100.731 283H101.811C101.801 282.95 101.751 282.66 101.751 282.22V279.8C101.751 278.83 101.181 277.98 99.6813 277.98C98.4813 277.98 97.7213 278.73 97.6313 279.57L98.6913 279.81C98.7413 279.32 99.0813 278.93 99.6913 278.93C100.331 278.93 100.611 279.26 100.611 279.67C100.611 279.84 100.531 279.98 100.251 280.02L99.0013 280.21C98.1713 280.33 97.5313 280.81 97.5313 281.68ZM99.4013 282.24C98.9413 282.24 98.6913 281.94 98.6913 281.61C98.6913 281.21 98.9813 281.01 99.3413 280.95L100.611 280.76V280.98C100.611 281.93 100.051 282.24 99.4013 282.24ZM103.024 281.68C103.084 282.23 103.624 283.15 105.034 283.15C106.274 283.15 106.874 282.33 106.874 281.59C106.874 280.87 106.394 280.31 105.474 280.11L104.734 279.96C104.434 279.9 104.244 279.71 104.244 279.45C104.244 279.15 104.534 278.89 104.944 278.89C105.594 278.89 105.804 279.34 105.844 279.62L106.824 279.34C106.744 278.86 106.304 277.98 104.944 277.98C103.934 277.98 103.154 278.7 103.154 279.55C103.154 280.22 103.604 280.78 104.464 280.97L105.184 281.13C105.574 281.21 105.754 281.41 105.754 281.67C105.754 281.97 105.504 282.23 105.024 282.23C104.404 282.23 104.074 281.84 104.034 281.4L103.024 281.68ZM107.894 281.68C107.954 282.23 108.494 283.15 109.904 283.15C111.144 283.15 111.744 282.33 111.744 281.59C111.744 280.87 111.264 280.31 110.344 280.11L109.604 279.96C109.304 279.9 109.114 279.71 109.114 279.45C109.114 279.15 109.404 278.89 109.814 278.89C110.464 278.89 110.674 279.34 110.714 279.62L111.694 279.34C111.614 278.86 111.174 277.98 109.814 277.98C108.804 277.98 108.024 278.7 108.024 279.55C108.024 280.22 108.474 280.78 109.334 280.97L110.054 281.13C110.444 281.21 110.624 281.41 110.624 281.67C110.624 281.97 110.374 282.23 109.894 282.23C109.274 282.23 108.944 281.84 108.904 281.4L107.894 281.68ZM115.886 278.13L114.736 281.5L113.746 278.13H112.506L114.086 283H115.276L116.456 279.5L117.666 283H118.826L120.386 278.13H119.206L118.236 281.5L117.086 278.13H115.886ZM123.593 282.11C122.883 282.11 122.233 281.57 122.233 280.56C122.233 279.55 122.883 279.03 123.593 279.03C124.313 279.03 124.953 279.55 124.953 280.56C124.953 281.58 124.313 282.11 123.593 282.11ZM123.593 277.98C122.143 277.98 121.073 279.07 121.073 280.56C121.073 282.06 122.143 283.15 123.593 283.15C125.053 283.15 126.123 282.06 126.123 280.56C126.123 279.07 125.053 277.98 123.593 277.98ZM130.394 278.1C130.344 278.09 130.224 278.07 130.084 278.07C129.444 278.07 128.904 278.38 128.674 278.91V278.13H127.544V283H128.704V280.68C128.704 279.77 129.114 279.25 130.014 279.25C130.134 279.25 130.264 279.26 130.394 279.28V278.1ZM132.394 280.55C132.394 279.62 132.954 279.03 133.714 279.03C134.474 279.03 134.994 279.61 134.994 280.54C134.994 281.47 134.464 282.1 133.704 282.1C132.914 282.1 132.394 281.48 132.394 280.55ZM136.114 275.76H134.984V278.7C134.834 278.39 134.404 278 133.554 278C132.184 278 131.234 279.15 131.234 280.55C131.234 282.02 132.174 283.12 133.574 283.12C134.264 283.12 134.774 282.78 135.004 282.37C135.004 282.57 135.034 282.89 135.054 283H136.164C136.154 282.92 136.114 282.55 136.114 282.11V275.76Z" fill="black" fill-opacity="0.38"/>
<rect x="44" y="311" width="238" height="33" rx="16.5" fill="white"/>
<path d="M96.23 333V331.88H93.05V330H95.93V328.91H93.05V327.03H96.23V325.91H91.85V333H96.23ZM98.9227 333V330.11C98.9227 329.49 99.3127 329.03 99.9327 329.03C100.593 329.03 100.873 329.47 100.873 330.03V333H102.013V330.11C102.013 329.51 102.413 329.03 103.023 329.03C103.673 329.03 103.963 329.46 103.963 330.03V333H105.083V329.84C105.083 328.55 104.243 327.99 103.363 327.99C102.733 327.99 102.163 328.21 101.783 328.85C101.523 328.28 100.963 327.99 100.323 327.99C99.7727 327.99 99.1627 328.25 98.8827 328.75V328.13H97.7727V333H98.9227ZM106.503 331.68C106.503 332.45 107.133 333.15 108.153 333.15C108.943 333.15 109.423 332.75 109.653 332.38C109.653 332.77 109.693 332.97 109.703 333H110.783C110.773 332.95 110.723 332.66 110.723 332.22V329.8C110.723 328.83 110.153 327.98 108.653 327.98C107.453 327.98 106.693 328.73 106.603 329.57L107.663 329.81C107.713 329.32 108.053 328.93 108.663 328.93C109.303 328.93 109.583 329.26 109.583 329.67C109.583 329.84 109.503 329.98 109.223 330.02L107.973 330.21C107.143 330.33 106.503 330.81 106.503 331.68ZM108.373 332.24C107.913 332.24 107.663 331.94 107.663 331.61C107.663 331.21 107.953 331.01 108.313 330.95L109.583 330.76V330.98C109.583 331.93 109.023 332.24 108.373 332.24ZM113.575 333V328.13H112.425V333H113.575ZM112.245 326.42C112.245 326.84 112.585 327.17 112.995 327.17C113.415 327.17 113.755 326.84 113.755 326.42C113.755 326 113.415 325.66 112.995 325.66C112.585 325.66 112.245 326 112.245 326.42ZM116.532 333V325.76H115.372V333H116.532Z" fill="black" fill-opacity="0.38"/>
<rect x="44" y="360" width="238" height="33" rx="16.5" fill="white"/>
<circle cx="163" cy="152" r="41" fill="white"/>
<path fill-rule="evenodd" clip-rule="evenodd" d="M68.1916 377.972C66.7129 376.115 66.1717 375.057 67.5329 374.219C68.7036 373.498 68.6261 373.418 67.5732 371.629C66.6003 369.975 66.1951 369.548 64.8558 370.497C61.8772 372.318 62.67 375.271 65.9097 379.34C69.1494 383.409 72.1543 385.075 75.0384 383.286C76.511 382.503 76.1928 382.022 74.7589 380.653C73.2069 379.171 73.1326 379.098 71.9817 379.806C70.6405 380.632 69.6702 379.829 68.1916 377.972L68.1916 377.972Z" fill="black"/>
<path d="M99.65 380V372.91H98.02L95.75 378.32L93.45 372.91H91.85V380H93.02V374.8L95.21 380H96.25L98.46 374.78V380H99.65ZM103.672 379.11C102.962 379.11 102.312 378.57 102.312 377.56C102.312 376.55 102.962 376.03 103.672 376.03C104.392 376.03 105.032 376.55 105.032 377.56C105.032 378.58 104.392 379.11 103.672 379.11ZM103.672 374.98C102.222 374.98 101.152 376.07 101.152 377.56C101.152 379.06 102.222 380.15 103.672 380.15C105.132 380.15 106.202 379.06 106.202 377.56C106.202 376.07 105.132 374.98 103.672 374.98ZM108.753 380V379.35C109.033 379.82 109.563 380.12 110.253 380.12C111.673 380.12 112.543 379.01 112.543 377.54C112.543 376.11 111.753 375 110.293 375C109.543 375 108.983 375.35 108.763 375.73V372.76H107.623V380H108.753ZM111.373 377.55C111.373 378.51 110.823 379.09 110.063 379.09C109.323 379.09 108.753 378.51 108.753 377.55C108.753 376.58 109.323 376.03 110.063 376.03C110.833 376.03 111.373 376.58 111.373 377.55ZM115.109 380V375.13H113.959V380H115.109ZM113.779 373.42C113.779 373.84 114.119 374.17 114.529 374.17C114.949 374.17 115.289 373.84 115.289 373.42C115.289 373 114.949 372.66 114.529 372.66C114.119 372.66 113.779 373 113.779 373.42ZM118.065 380V372.76H116.905V380H118.065ZM120.671 377.03C120.711 376.51 121.131 375.95 121.861 375.95C122.661 375.95 123.041 376.46 123.061 377.03H120.671ZM123.191 378.3C123.031 378.78 122.671 379.15 121.971 379.15C121.251 379.15 120.671 378.62 120.641 377.88H124.201C124.211 377.86 124.231 377.7 124.231 377.51C124.231 375.97 123.351 374.98 121.851 374.98C120.621 374.98 119.481 376 119.481 377.54C119.481 379.19 120.651 380.15 121.971 380.15C123.141 380.15 123.911 379.46 124.171 378.61L123.191 378.3Z" fill="black" fill-opacity="0.38"/>
<path d="M75.7443 276.176H74.7424V274.638C74.7424 272.085 72.6183 270 70 270C67.3817 270 65.2576 272.072 65.2576 274.625V276.176H64.2557C63.5344 276.319 63 276.945 63 277.687V284.45C63 285.309 63.708 286 64.5897 286H75.4103C76.292 286 77 285.309 77 284.45V277.687C77 276.945 76.4656 276.319 75.7443 276.176ZM67.4485 275.876V274.638C67.4485 273.257 68.584 272.137 70 272.137C71.416 272.137 72.5515 273.257 72.5515 274.625V275.485V276.176H67.4485V275.876ZM70.9485 282.143C70.9485 282.651 70.521 283.068 70 283.068C69.479 283.068 69.0515 282.651 69.0515 282.143V280.033C69.0515 279.511 69.479 279.107 70 279.107C70.2672 279.107 70.4943 279.212 70.6679 279.381C70.8416 279.55 70.9485 279.785 70.9485 280.046V282.143Z" fill="black"/>
<path d="M73.4432 228.587C73.4432 230.81 71.4897 232.674 68.9999 232.674C66.5101 232.674 64.5566 230.81 64.5566 228.587C64.5566 226.364 66.5101 224.5 68.9999 224.5C71.4897 224.5 73.4432 226.364 73.4432 228.587Z" fill="black" stroke="black"/>
<path d="M75.4997 237.146C75.4948 237.155 75.4858 237.168 75.4704 237.187C75.4201 237.249 75.3267 237.334 75.1743 237.435C74.8708 237.635 74.4039 237.852 73.7946 238.05C72.5813 238.447 70.884 238.748 69 238.748C67.1162 238.748 65.4189 238.447 64.2055 238.05C63.5962 237.851 63.1293 237.635 62.8257 237.435C62.6733 237.334 62.58 237.249 62.5296 237.187C62.5142 237.168 62.5052 237.155 62.5003 237.146C62.5124 236.664 62.8533 235.968 63.5729 235.25C64.249 234.576 65.201 233.944 66.3231 233.531C67.1289 233.913 68.0385 234.128 68.9998 234.128C69.9612 234.128 70.871 233.913 71.6766 233.531C72.7988 233.944 73.7509 234.576 74.427 235.25C75.1467 235.968 75.4877 236.664 75.4997 237.146ZM75.505 237.136C75.505 237.136 75.5049 237.136 75.5047 237.137L75.505 237.136ZM62.495 237.136C62.495 237.136 62.4951 237.136 62.4953 237.137L62.495 237.136Z" fill="black" stroke="black"/>
<path d="M64 323L70 330L76 323H64Z" fill="black"/>
<path d="M70.2988 330.987C70.2958 330.991 70.2921 330.991 70.289 330.995C70.2512 331.032 70.2101 331.061 70.1662 331.082C70.1576 331.086 70.1494 331.088 70.1409 331.092C70.0951 331.109 70.0482 331.122 70.0006 331.122H70.0003H70C69.9524 331.122 69.9055 331.109 69.86 331.092C69.8515 331.088 69.843 331.085 69.8347 331.082C69.7905 331.061 69.7494 331.032 69.7116 330.994C69.7085 330.991 69.7049 330.991 69.7018 330.987L63 324V334.448C63 334.753 63.2046 335 63.4574 335H76.5426C76.7951 335 77 334.753 77 334.448V324L70.2988 330.987Z" fill="black"/>
<circle cx="190.5" cy="183.5" r="12.5" fill="#C4C4C4"/>
<path d="M196.234 182.071C196.051 179.787 194.428 178 192.451 178C190.803 178 189.401 179.242 188.874 180.98C188.603 180.825 188.3 180.737 187.98 180.737C186.92 180.737 186.047 181.68 185.924 182.897C184.815 183.26 184 184.463 184 185.892C184 187.608 185.175 189 186.624 189H189.613V186.368H188.291C188.075 186.368 187.881 186.206 187.8 185.959C187.719 185.712 187.767 185.429 187.922 185.244L190.842 181.754C191.048 181.508 191.374 181.508 191.58 181.754L194.467 185.205C194.587 185.325 194.664 185.508 194.664 185.714C194.664 186.075 194.427 186.368 194.134 186.368C194.133 186.368 194.132 186.368 194.131 186.368H192.707V189H194.314C194.414 189 194.512 188.993 194.608 188.98C194.714 188.993 194.821 189 194.93 189C196.626 189 198 187.371 198 185.363C198 183.907 197.277 182.652 196.234 182.071Z" fill="black" fill-opacity="0.6"/>
<rect x="100" y="414" width="127" height="33" rx="10" fill="white"/>
<path d="M137.432 437.24C140.616 437.24 142.248 435.128 142.68 433.384L140.616 432.76C140.312 433.816 139.368 435.08 137.432 435.08C135.608 435.08 133.912 433.752 133.912 431.336C133.912 428.76 135.704 427.544 137.4 427.544C139.368 427.544 140.248 428.744 140.52 429.832L142.6 429.176C142.152 427.336 140.536 425.416 137.4 425.416C134.36 425.416 131.624 427.72 131.624 431.336C131.624 434.952 134.264 437.24 137.432 437.24ZM151.715 437H154.179L151.747 432.36C153.235 431.928 154.163 430.728 154.163 429.144C154.163 427.176 152.755 425.656 150.547 425.656H146.115V437H148.339V432.632H149.491L151.715 437ZM148.339 430.728V427.576H150.131C151.251 427.576 151.907 428.2 151.907 429.16C151.907 430.088 151.251 430.728 150.131 430.728H148.339ZM164.819 437V434.92H159.923V432.296H164.355V430.328H159.923V427.736H164.819V425.656H157.715V437H164.819ZM176.323 437H178.723L174.403 425.656H171.843L167.491 437H169.827L170.771 434.408H175.379L176.323 437ZM173.075 428.104L174.643 432.392H171.507L173.075 428.104ZM189.079 427.752V425.656H179.687V427.752H183.271V437H185.495V427.752H189.079ZM199.338 437V434.92H194.442V432.296H198.874V430.328H194.442V427.736H199.338V425.656H192.234V437H199.338Z" fill="#9BC4EB"/>
</g>
<defs>
<clipPath id="clip0">
<rect width="326" height="522" rx="10" fill="white"/>
</clipPath>
</defs>
</svg>
