<svg width="326" height="522" viewBox="0 0 326 522" fill="none" xmlns="http://www.w3.org/2000/svg">
<title>Destination</title>
<rect width="326" height="522" rx="10" fill="white"/>
<rect x="70" y="111" width="218" height="28" rx="5" fill="#C4C4C4" fill-opacity="0.12"/>
<rect x="70" y="70" width="218" height="31" rx="5" fill="#C4C4C4" fill-opacity="0.12"/>
<circle cx="56" cy="84" r="4" fill="#9BC4EB"/>
<circle cx="56" cy="125" r="4" fill="#9BC4EB"/>
<line x1="55.75" y1="118" x2="55.75" y2="92" stroke="#9BC4EB" stroke-width="0.5"/>
<path d="M37.2929 40.2929C36.9024 40.6834 36.9024 41.3166 37.2929 41.7071L43.6569 48.0711C44.0474 48.4616 44.6805 48.4616 45.0711 48.0711C45.4616 47.6805 45.4616 47.0474 45.0711 46.6569L39.4142 41L45.0711 35.3431C45.4616 34.9526 45.4616 34.3195 45.0711 33.9289C44.6805 33.5384 44.0474 33.5384 43.6569 33.9289L37.2929 40.2929ZM60 40H38V42H60V40Z" fill="black"/>
<path d="M145.52 44V39.584H149.92V37.552H145.504V34.752H150.464V32.656H143.296V44H145.52ZM155.141 42.304C154.101 42.304 153.141 41.536 153.141 40.064C153.141 38.576 154.101 37.824 155.141 37.824C156.181 37.824 157.141 38.576 157.141 40.064C157.141 41.552 156.181 42.304 155.141 42.304ZM155.141 35.888C152.789 35.888 151.013 37.632 151.013 40.064C151.013 42.48 152.789 44.24 155.141 44.24C157.493 44.24 159.269 42.48 159.269 40.064C159.269 37.632 157.493 35.888 155.141 35.888ZM165.749 36.096C165.589 36.08 165.429 36.064 165.253 36.064C164.581 36.064 163.493 36.256 163.013 37.296V36.128H160.949V44H163.077V40.4C163.077 38.704 164.021 38.176 165.109 38.176C165.301 38.176 165.509 38.192 165.749 38.24V36.096ZM183.968 44V32.656H180.96L177.632 40.848L174.224 32.656H171.312V44H173.424V36.112L176.688 44H178.528L181.792 36.048V44H183.968ZM185.89 41.856C185.89 43.088 186.914 44.224 188.594 44.224C189.762 44.224 190.514 43.68 190.914 43.056C190.914 43.36 190.946 43.792 190.994 44H192.946C192.898 43.728 192.85 43.168 192.85 42.752V38.88C192.85 37.296 191.922 35.888 189.426 35.888C187.314 35.888 186.178 37.248 186.05 38.48L187.938 38.88C188.002 38.192 188.514 37.6 189.442 37.6C190.338 37.6 190.77 38.064 190.77 38.624C190.77 38.896 190.626 39.12 190.178 39.184L188.242 39.472C186.93 39.664 185.89 40.448 185.89 41.856ZM189.042 42.64C188.354 42.64 188.018 42.192 188.018 41.728C188.018 41.12 188.45 40.816 188.994 40.736L190.77 40.464V40.816C190.77 42.208 189.938 42.64 189.042 42.64ZM197.123 39.376C197.171 38.512 197.699 37.84 198.595 37.84C199.619 37.84 200.051 38.528 200.051 39.408V44H202.179V39.04C202.179 37.312 201.251 35.92 199.251 35.92C198.499 35.92 197.635 36.176 197.123 36.784V32.416H194.995V44H197.123V39.376ZM206.467 44V36.128H204.339V44H206.467ZM204.083 33.552C204.083 34.256 204.675 34.848 205.395 34.848C206.131 34.848 206.707 34.256 206.707 33.552C206.707 32.816 206.131 32.224 205.395 32.224C204.675 32.224 204.083 32.816 204.083 33.552Z" fill="black" fill-opacity="0.8"/>
<path d="M215.109 36.1187C215.04 36.1887 215.001 36.2839 215 36.3834C215 36.4327 215.009 36.4817 215.028 36.5272C215.047 36.5727 215.074 36.6138 215.109 36.648L221.236 42.8893C221.27 42.9244 221.31 42.9522 221.355 42.9712C221.399 42.9902 221.447 43 221.496 43C221.544 43 221.592 42.9902 221.636 42.9712C221.681 42.9522 221.722 42.9244 221.756 42.8893L227.884 36.648C227.92 36.6137 227.948 36.5724 227.968 36.5265C227.988 36.4805 227.999 36.431 228 36.3808C228.001 36.3305 227.992 36.2807 227.973 36.2341C227.955 36.1875 227.927 36.1452 227.892 36.1097C227.857 36.0742 227.816 36.0462 227.77 36.0273C227.724 36.0085 227.676 35.9992 227.626 36.0001C227.577 36.0009 227.528 36.0118 227.483 36.0322C227.438 36.0526 227.398 36.082 227.364 36.1187L221.496 42.0953L215.629 36.1187C215.595 36.0838 215.554 36.0561 215.51 36.0372C215.465 36.0183 215.417 36.0086 215.369 36.0086C215.321 36.0086 215.273 36.0183 215.228 36.0372C215.184 36.0561 215.143 36.0838 215.109 36.1187Z" fill="black" fill-opacity="0.8"/>
<path d="M215 36.3834L214.875 36.3822C214.874 36.4483 214.887 36.5138 214.912 36.5748C214.937 36.6354 214.974 36.6904 215.021 36.7364L221.146 42.9763C221.146 42.9764 221.146 42.9765 221.146 42.9767C221.192 43.0234 221.246 43.0607 221.306 43.0862L221.355 42.9712L221.306 43.0862C221.366 43.1118 221.43 43.125 221.496 43.125C221.561 43.125 221.625 43.1118 221.685 43.0862L221.636 42.9712L221.685 43.0862C221.745 43.0607 221.8 43.0234 221.845 42.9766C221.845 42.9765 221.845 42.9764 221.845 42.9763L227.971 36.737C228.019 36.6914 228.057 36.6368 228.083 36.5764C228.11 36.5153 228.124 36.4495 228.125 36.3828C228.126 36.3162 228.114 36.2499 228.089 36.188C228.065 36.126 228.028 36.0696 227.982 36.0221C227.935 35.9746 227.879 35.9371 227.818 35.9118C227.756 35.8864 227.69 35.8739 227.624 35.8751C227.558 35.8762 227.492 35.8909 227.432 35.9183C227.372 35.9454 227.318 35.9842 227.273 36.0325L221.496 41.9169L215.718 36.0314C215.718 36.0313 215.718 36.0312 215.718 36.0311C215.672 35.9845 215.618 35.9475 215.558 35.9221C215.498 35.8967 215.434 35.8836 215.369 35.8836C215.304 35.8836 215.239 35.8967 215.179 35.9221C215.12 35.9475 215.065 35.9845 215.02 36.031C214.928 36.1245 214.876 36.251 214.875 36.3827L215 36.3834ZM215 36.3834C215 36.4327 215.009 36.4817 215.028 36.5272C215.047 36.5727 215.074 36.6138 215.109 36.648M215 36.3834C215.001 36.2839 215.04 36.1887 215.109 36.1187V36.648M215.109 36.648L221.236 42.8893L215.109 36.648Z" stroke="black" stroke-opacity="0.8" stroke-width="0.25"/>
<circle cx="125.5" cy="37.5" r="9.5" fill="#F7D9D9" fill-opacity="0.76"/>
<path fill-rule="evenodd" clip-rule="evenodd" d="M126.605 42.4543C127.767 43.0078 128.875 43.2341 129.367 43.0708C130.599 42.6612 130.244 38.1899 129.079 36.5043C127.914 34.8186 122.798 34.4303 122.912 37.9351C122.952 39.1514 123.593 40.1914 124.465 41.0138L123.731 47.3914L127.787 47.0864L126.605 42.4543Z" fill="#D4A181"/>
<path fill-rule="evenodd" clip-rule="evenodd" d="M127.275 34.7086C126.703 34.5874 125.893 34.5927 125.558 34.6555C125.704 34.1965 125.728 33.6954 125.615 33.2178C125.505 32.7538 125.245 32.3711 125 31.9681C124.887 31.7824 124.762 31.5986 124.59 31.4629C124.415 31.3248 124.202 31.2408 123.986 31.2094C123.764 31.1773 123.538 31.1983 123.326 31.2586C123.232 31.2852 123.15 31.334 123.059 31.3646C122.965 31.3959 122.912 31.3413 122.836 31.2881C122.652 31.16 122.398 31.1091 122.182 31.1003C121.94 31.0904 121.695 31.1438 121.475 31.2368C121.261 31.3273 121.06 31.4631 120.918 31.6498C120.855 31.7329 120.799 31.8262 120.767 31.927C120.754 31.9684 120.754 31.9923 120.714 32.0101C120.677 32.0266 120.632 32.0304 120.594 32.0463C120.224 32.2001 119.927 32.5098 119.787 32.8894C119.706 33.1108 119.696 33.4905 119.754 33.911C119.812 34.3315 120.323 35.4017 120.735 35.7751C121.102 36.1084 121.612 36.3082 122.091 36.3765C121.816 36.7418 121.655 37.1847 121.548 37.6308C121.432 38.1153 121.381 38.6136 121.395 39.1162C121.41 39.5938 121.459 40.0962 121.624 40.5522C121.778 40.9787 122.047 41.3178 122.456 41.515C122.644 41.6053 122.842 41.6689 123.041 41.7256C123.237 41.7816 123.433 41.8355 123.635 41.86C124.016 41.9063 124.445 41.8612 124.703 41.553C124.796 41.4418 124.896 41.3034 124.958 41.1715C124.981 41.1241 124.994 41.0932 124.956 41.0513C124.911 41.0011 124.843 40.9652 124.787 40.9275C124.472 40.7123 124.259 40.4094 124.174 40.0368C124.088 39.6587 124.142 39.1583 124.51 38.9629C124.963 38.7216 125.511 38.9182 125.957 39.1063C126.072 38.4824 126.382 37.9051 126.931 37.5816C127.537 37.2238 128.267 37.1324 128.895 36.8173C129.059 36.7351 129.225 36.6434 129.336 36.4928C129.383 36.4299 129.437 36.3487 129.449 36.2691C129.466 36.1646 129.388 36.0838 129.327 36.0079C129.002 35.6055 127.846 34.8299 127.275 34.7086Z" fill="#191847"/>
<path d="M92 91.225C94.715 91.225 96.335 89.5 96.815 87.7L95.165 87.16C94.805 88.36 93.785 89.5 92 89.5C90.185 89.5 88.475 88.18 88.475 85.69C88.475 83.11 90.23 81.835 91.985 81.835C93.77 81.835 94.76 82.87 95.075 84.16L96.77 83.59C96.29 81.73 94.685 80.14 91.985 80.14C89.225 80.14 86.63 82.225 86.63 85.69C86.63 89.155 89.135 91.225 92 91.225ZM103.254 90.19C103.254 90.49 103.284 90.835 103.314 91H104.979C104.949 90.73 104.904 90.265 104.904 89.665V83.695H103.164V88.015C103.164 88.975 102.639 89.65 101.634 89.65C100.584 89.65 100.164 88.885 100.164 87.985V83.695H98.4242V88.3C98.4242 89.92 99.4442 91.21 101.184 91.21C102.039 91.21 102.894 90.85 103.254 90.19ZM111.731 83.65C111.656 83.635 111.476 83.605 111.266 83.605C110.306 83.605 109.496 84.07 109.151 84.865V83.695H107.456V91H109.196V87.52C109.196 86.155 109.811 85.375 111.161 85.375C111.341 85.375 111.536 85.39 111.731 85.42V83.65ZM117.759 83.65C117.684 83.635 117.504 83.605 117.294 83.605C116.334 83.605 115.524 84.07 115.179 84.865V83.695H113.484V91H115.224V87.52C115.224 86.155 115.839 85.375 117.189 85.375C117.369 85.375 117.564 85.39 117.759 85.42V83.65ZM120.653 86.545C120.713 85.765 121.343 84.925 122.438 84.925C123.638 84.925 124.208 85.69 124.238 86.545H120.653ZM124.433 88.45C124.193 89.17 123.653 89.725 122.603 89.725C121.523 89.725 120.653 88.93 120.608 87.82H125.948C125.963 87.79 125.993 87.55 125.993 87.265C125.993 84.955 124.673 83.47 122.423 83.47C120.578 83.47 118.868 85 118.868 87.31C118.868 89.785 120.623 91.225 122.603 91.225C124.358 91.225 125.513 90.19 125.903 88.915L124.433 88.45ZM129.696 86.785C129.696 85.825 130.221 85.06 131.211 85.06C132.306 85.06 132.711 85.78 132.711 86.68V91H134.451V86.38C134.451 84.775 133.596 83.485 131.811 83.485C131.001 83.485 130.131 83.83 129.651 84.67V83.695H127.956V91H129.696V86.785ZM139.074 81.46H137.499V82.555C137.499 83.2 137.154 83.695 136.374 83.695H135.999V85.24H137.349V88.915C137.349 90.28 138.189 91.09 139.539 91.09C140.169 91.09 140.499 90.97 140.604 90.925V89.485C140.529 89.5 140.244 89.545 140.004 89.545C139.359 89.545 139.074 89.275 139.074 88.63V85.24H140.589V83.695H139.074V81.46ZM153.494 91V89.29H148.619V80.365H146.819V91H153.494ZM158.47 89.665C157.405 89.665 156.43 88.855 156.43 87.34C156.43 85.825 157.405 85.045 158.47 85.045C159.55 85.045 160.51 85.825 160.51 87.34C160.51 88.87 159.55 89.665 158.47 89.665ZM158.47 83.47C156.295 83.47 154.69 85.105 154.69 87.34C154.69 89.59 156.295 91.225 158.47 91.225C160.66 91.225 162.265 89.59 162.265 87.34C162.265 85.105 160.66 83.47 158.47 83.47ZM167.426 85.075C168.536 85.075 169.031 85.795 169.196 86.44L170.756 85.87C170.456 84.7 169.376 83.47 167.411 83.47C165.311 83.47 163.676 85.09 163.676 87.34C163.676 89.56 165.311 91.225 167.456 91.225C169.376 91.225 170.471 89.98 170.816 88.84L169.286 88.285C169.121 88.84 168.596 89.635 167.456 89.635C166.361 89.635 165.416 88.81 165.416 87.34C165.416 85.87 166.361 85.075 167.426 85.075ZM172.167 89.02C172.167 90.175 173.112 91.225 174.642 91.225C175.827 91.225 176.547 90.625 176.892 90.07C176.892 90.655 176.952 90.955 176.967 91H178.587C178.572 90.925 178.497 90.49 178.497 89.83V86.2C178.497 84.745 177.642 83.47 175.392 83.47C173.592 83.47 172.452 84.595 172.317 85.855L173.907 86.215C173.982 85.48 174.492 84.895 175.407 84.895C176.367 84.895 176.787 85.39 176.787 86.005C176.787 86.26 176.667 86.47 176.247 86.53L174.372 86.815C173.127 86.995 172.167 87.715 172.167 89.02ZM174.972 89.86C174.282 89.86 173.907 89.41 173.907 88.915C173.907 88.315 174.342 88.015 174.882 87.925L176.787 87.64V87.97C176.787 89.395 175.947 89.86 174.972 89.86ZM183.076 81.46H181.501V82.555C181.501 83.2 181.156 83.695 180.376 83.695H180.001V85.24H181.351V88.915C181.351 90.28 182.191 91.09 183.541 91.09C184.171 91.09 184.501 90.97 184.606 90.925V89.485C184.531 89.5 184.246 89.545 184.006 89.545C183.361 89.545 183.076 89.275 183.076 88.63V85.24H184.591V83.695H183.076V81.46ZM188.404 91V83.695H186.679V91H188.404ZM186.409 81.13C186.409 81.76 186.919 82.255 187.534 82.255C188.164 82.255 188.674 81.76 188.674 81.13C188.674 80.5 188.164 79.99 187.534 79.99C186.919 79.99 186.409 80.5 186.409 81.13ZM194.159 89.665C193.094 89.665 192.119 88.855 192.119 87.34C192.119 85.825 193.094 85.045 194.159 85.045C195.239 85.045 196.199 85.825 196.199 87.34C196.199 88.87 195.239 89.665 194.159 89.665ZM194.159 83.47C191.984 83.47 190.379 85.105 190.379 87.34C190.379 89.59 191.984 91.225 194.159 91.225C196.349 91.225 197.954 89.59 197.954 87.34C197.954 85.105 196.349 83.47 194.159 83.47ZM201.676 86.785C201.676 85.825 202.201 85.06 203.191 85.06C204.286 85.06 204.691 85.78 204.691 86.68V91H206.431V86.38C206.431 84.775 205.576 83.485 203.791 83.485C202.981 83.485 202.111 83.83 201.631 84.67V83.695H199.936V91H201.676V86.785Z" fill="#7CA2C6"/>
<path d="M83.416 126.673C83.52 127.999 84.768 129.208 86.588 129.208C88.538 129.208 89.76 127.882 89.76 126.296C89.76 124.528 88.551 123.488 86.874 123.488C86.276 123.488 85.626 123.696 85.262 124.073L85.782 121.941H89.344V120.576H84.729L83.689 124.827L85.158 125.36C85.457 125.022 85.964 124.775 86.562 124.775C87.42 124.775 88.187 125.295 88.187 126.335C88.187 127.271 87.472 127.869 86.588 127.869C85.613 127.869 84.95 127.193 84.885 126.296L83.416 126.673ZM91.1352 128.714C91.5642 129 92.3962 129.195 93.0852 129.195C95.9452 129.195 97.4012 127.375 97.4012 124.32C97.4012 121.629 95.8282 120.381 94.0732 120.381C92.3052 120.381 90.9012 121.577 90.9012 123.319C90.9012 125.113 92.2922 126.153 93.8132 126.153C94.8142 126.153 95.5552 125.724 95.8672 125.178C95.7892 126.764 94.8402 127.83 93.0722 127.83C92.5132 127.83 91.8892 127.648 91.5642 127.44L91.1352 128.714ZM95.6592 123.267C95.6592 124.229 94.8922 124.84 94.0472 124.84C93.1762 124.84 92.4352 124.255 92.4352 123.267C92.4352 122.318 93.1892 121.707 94.0472 121.707C94.8922 121.707 95.6592 122.331 95.6592 123.267ZM111.364 126.569L109.167 119.783H107.542L105.384 126.517L103.538 119.783H101.9L104.513 129H106.112L108.348 122.032L110.584 129H112.196L114.783 119.783H113.171L111.364 126.569ZM122.631 129V120.576H121.279C121.097 121.46 120.265 122.136 119.056 122.162V123.228H121.097V129H122.631ZM126.02 123.735C126.007 123.592 125.981 123.436 125.981 123.306C125.981 122.435 126.462 121.746 127.45 121.746C128.399 121.746 128.867 122.37 128.867 123.059C128.867 123.67 128.542 124.177 127.788 124.645L126.397 125.516C124.928 126.426 124.421 127.557 124.395 129H130.492V127.622H126.319C126.436 127.206 126.774 126.907 127.177 126.66L128.815 125.646C129.829 125.022 130.44 124.125 130.44 123.033C130.44 121.59 129.335 120.381 127.476 120.381C125.565 120.381 124.473 121.694 124.473 123.15C124.473 123.319 124.499 123.514 124.512 123.631L126.02 123.735ZM134.095 120.732H132.73V121.681C132.73 122.24 132.431 122.669 131.755 122.669H131.43V124.008H132.6V127.193C132.6 128.376 133.328 129.078 134.498 129.078C135.044 129.078 135.33 128.974 135.421 128.935V127.687C135.356 127.7 135.109 127.739 134.901 127.739C134.342 127.739 134.095 127.505 134.095 126.946V124.008H135.408V122.669H134.095V120.732ZM138.547 125.282C138.573 124.476 139.028 123.852 139.86 123.852C140.809 123.852 141.16 124.476 141.16 125.256V129H142.668V124.996C142.668 123.605 141.914 122.487 140.354 122.487C139.691 122.487 138.976 122.721 138.547 123.28V119.588H137.039V129H138.547V125.282ZM154.437 121.941C154.229 120.914 153.384 119.588 151.213 119.588C149.497 119.588 148.08 120.862 148.08 122.409C148.08 123.787 149.016 124.71 150.42 124.996L151.72 125.269C152.513 125.438 152.955 125.919 152.955 126.517C152.955 127.232 152.383 127.791 151.278 127.791C149.952 127.791 149.263 126.907 149.172 125.945L147.716 126.361C147.859 127.687 148.938 129.195 151.278 129.195C153.384 129.195 154.541 127.83 154.541 126.4C154.541 125.1 153.67 124.073 152.045 123.748L150.719 123.475C150.004 123.319 149.64 122.877 149.64 122.292C149.64 121.59 150.29 120.966 151.226 120.966C152.461 120.966 152.942 121.811 153.033 122.383L154.437 121.941ZM158.177 120.732H156.812V121.681C156.812 122.24 156.513 122.669 155.837 122.669H155.512V124.008H156.682V127.193C156.682 128.376 157.41 129.078 158.58 129.078C159.126 129.078 159.412 128.974 159.503 128.935V127.687C159.438 127.7 159.191 127.739 158.983 127.739C158.424 127.739 158.177 127.505 158.177 126.946V124.008H159.49V122.669H158.177V120.732Z" fill="black" fill-opacity="0.65"/>
<path d="M81.525 174.36C81.66 175.89 83.055 177.24 85.125 177.24C87.285 177.24 88.695 175.755 88.695 173.925C88.695 171.915 87.3 170.7 85.395 170.7C84.63 170.7 83.85 170.94 83.415 171.42L84.135 168.63H88.29V167.28H83.16L81.9 172.11C82.395 172.29 82.83 172.485 83.34 172.68C83.76 172.245 84.42 171.975 85.11 171.975C86.235 171.975 87.21 172.65 87.21 173.985C87.21 175.185 86.28 175.95 85.125 175.95C83.91 175.95 83.025 175.14 82.935 173.94L81.525 174.36ZM90.0728 176.655C90.5528 176.985 91.5728 177.225 92.3228 177.225C95.5928 177.225 97.1828 175.095 97.1828 171.525C97.1828 168.42 95.3078 167.055 93.4028 167.055C91.4978 167.055 89.8178 168.405 89.8178 170.415C89.8178 172.56 91.4978 173.7 93.1778 173.7C94.4978 173.7 95.3528 173.1 95.6978 172.455C95.6378 174.36 94.6778 175.905 92.3228 175.905C91.6928 175.905 90.9728 175.695 90.5528 175.44L90.0728 176.655ZM95.5028 170.385C95.5028 171.675 94.4828 172.44 93.4028 172.44C92.2928 172.44 91.3028 171.705 91.3028 170.385C91.3028 169.11 92.3228 168.345 93.4028 168.345C94.4678 168.345 95.5028 169.125 95.5028 170.385ZM112.709 174.78L109.979 166.365H108.434L105.764 174.69L103.424 166.365H101.909L104.984 177H106.454L109.199 168.375L111.974 177H113.489L116.519 166.365H115.004L112.709 174.78ZM124.662 177V167.28H123.372C123.147 168.33 122.217 169.08 120.867 169.11V170.145H123.222V177H124.662ZM127.969 170.775C127.954 170.625 127.939 170.475 127.939 170.34C127.939 169.23 128.539 168.345 129.814 168.345C131.044 168.345 131.644 169.17 131.644 170.055C131.644 170.805 131.224 171.495 130.309 172.08L128.689 173.13C127.039 174.195 126.409 175.41 126.379 177H133.189V175.635H128.194C128.329 175.035 128.824 174.63 129.379 174.27L131.299 173.04C132.409 172.335 133.129 171.315 133.129 170.04C133.129 168.42 131.929 167.055 129.844 167.055C127.714 167.055 126.484 168.54 126.484 170.205C126.484 170.325 126.484 170.46 126.499 170.595L127.969 170.775ZM136.883 167.505H135.593V168.675C135.593 169.305 135.263 169.785 134.483 169.785H134.093V171.06H135.473V175.02C135.473 176.325 136.253 177.075 137.483 177.075C137.963 177.075 138.323 176.985 138.443 176.94V175.74C138.323 175.77 138.068 175.8 137.888 175.8C137.153 175.8 136.883 175.47 136.883 174.81V171.06H138.443V169.785H136.883V167.505ZM141.735 172.755C141.765 171.69 142.335 170.85 143.415 170.85C144.675 170.85 145.095 171.66 145.095 172.665V177H146.505V172.425C146.505 170.82 145.65 169.575 143.925 169.575C143.1 169.575 142.26 169.86 141.735 170.625V166.14H140.325V177H141.735V172.755ZM159.428 168.78C159.188 167.625 158.228 166.14 155.828 166.14C153.863 166.14 152.318 167.64 152.318 169.305C152.318 170.895 153.398 171.885 154.913 172.215L156.428 172.545C157.493 172.77 158.018 173.43 158.018 174.195C158.018 175.125 157.298 175.89 155.828 175.89C154.223 175.89 153.383 174.795 153.278 173.61L151.868 174.06C152.063 175.575 153.278 177.225 155.843 177.225C158.108 177.225 159.518 175.725 159.518 174.075C159.518 172.59 158.528 171.48 156.758 171.09L155.168 170.745C154.268 170.55 153.803 169.965 153.803 169.2C153.803 168.21 154.658 167.43 155.858 167.43C157.343 167.43 157.988 168.48 158.108 169.245L159.428 168.78ZM163.133 167.505H161.843V168.675C161.843 169.305 161.513 169.785 160.733 169.785H160.343V171.06H161.723V175.02C161.723 176.325 162.503 177.075 163.733 177.075C164.213 177.075 164.573 176.985 164.693 176.94V175.74C164.573 175.77 164.318 175.8 164.138 175.8C163.403 175.8 163.133 175.47 163.133 174.81V171.06H164.693V169.785H163.133V167.505Z" fill="black" fill-opacity="0.8"/>
<path d="M89.076 192V183.492H87.9V190.02L83.652 183.492H82.08V192H83.256V185.064L87.852 192H89.076ZM91.8443 188.52C91.8923 187.776 92.4683 187.044 93.4163 187.044C94.4363 187.044 94.9763 187.692 95.0003 188.52H91.8443ZM95.1683 190.02C94.9523 190.668 94.4843 191.184 93.5483 191.184C92.5763 191.184 91.8323 190.464 91.8083 189.432H96.1523C96.1643 189.36 96.1763 189.216 96.1763 189.072C96.1763 187.272 95.1803 186.048 93.4043 186.048C91.9523 186.048 90.6443 187.284 90.6443 189.096C90.6443 191.052 92.0003 192.18 93.5483 192.18C94.8923 192.18 95.8163 191.376 96.1403 190.356L95.1683 190.02ZM100.81 186.228L99.3097 190.572L98.0137 186.228H96.7777L98.6737 192H99.8617L101.362 187.608L102.898 192H104.062L105.934 186.228H104.746L103.474 190.572L101.974 186.228H100.81ZM112.233 188.364V192H113.409V188.364L116.409 183.492H115.065L112.857 187.284L110.649 183.492H109.233L112.233 188.364ZM118.885 191.172C117.925 191.172 117.085 190.452 117.085 189.108C117.085 187.776 117.925 187.056 118.885 187.056C119.845 187.056 120.685 187.776 120.685 189.108C120.685 190.452 119.845 191.172 118.885 191.172ZM118.885 186.048C117.157 186.048 115.933 187.356 115.933 189.108C115.933 190.872 117.157 192.18 118.885 192.18C120.613 192.18 121.837 190.872 121.837 189.108C121.837 187.356 120.613 186.048 118.885 186.048ZM126.484 186.168C126.424 186.156 126.268 186.132 126.112 186.132C125.524 186.132 124.804 186.348 124.384 187.236V186.228H123.28V192H124.408V189.108C124.408 187.836 125.044 187.332 125.992 187.332C126.148 187.332 126.316 187.344 126.484 187.368V186.168ZM132.859 186.228H131.299L128.803 188.784V183.312H127.687V192H128.803V190.26L129.607 189.456L131.491 192H132.907L130.399 188.664L132.859 186.228ZM133.871 191.232C133.871 191.748 134.231 192.048 134.675 192.048C134.807 192.048 134.903 192.012 134.939 191.988C134.927 192.564 134.531 193.152 133.943 193.284V193.908C134.687 193.812 135.719 193.152 135.719 191.568C135.719 190.812 135.263 190.428 134.747 190.428C134.243 190.428 133.871 190.8 133.871 191.232ZM147.635 192V183.492H146.459V190.02L142.211 183.492H140.639V192H141.815V185.064L146.411 192H147.635ZM151.831 188.364V192H153.007V188.364L156.007 183.492H154.663L152.455 187.284L150.247 183.492H148.831L151.831 188.364ZM155.41 191.232C155.41 191.748 155.77 192.048 156.214 192.048C156.346 192.048 156.442 192.012 156.478 191.988C156.466 192.564 156.07 193.152 155.482 193.284V193.908C156.226 193.812 157.258 193.152 157.258 191.568C157.258 190.812 156.802 190.428 156.286 190.428C155.782 190.428 155.41 190.8 155.41 191.232ZM165.118 192.18C166.846 192.18 168.178 191.1 168.178 189.096V183.492H167.002V189.06C167.002 190.356 166.318 191.088 165.118 191.088C163.93 191.088 163.222 190.356 163.222 189.06V183.492H162.058V189.096C162.058 191.1 163.39 192.18 165.118 192.18ZM171.166 188.664C171.166 187.788 171.622 187.08 172.51 187.08C173.518 187.08 173.854 187.728 173.854 188.532V192H174.982V188.34C174.982 187.056 174.298 186.06 172.918 186.06C172.246 186.06 171.562 186.336 171.142 187.056V186.228H170.038V192H171.166V188.664ZM177.892 192V186.228H176.776V192H177.892ZM176.524 184.044C176.524 184.488 176.884 184.848 177.328 184.848C177.784 184.848 178.144 184.488 178.144 184.044C178.144 183.588 177.784 183.228 177.328 183.228C176.884 183.228 176.524 183.588 176.524 184.044ZM181.324 184.404H180.292V185.34C180.292 185.844 180.028 186.228 179.404 186.228H179.092V187.248H180.196V190.416C180.196 191.46 180.82 192.06 181.804 192.06C182.188 192.06 182.476 191.988 182.572 191.952V190.992C182.476 191.016 182.272 191.04 182.128 191.04C181.54 191.04 181.324 190.776 181.324 190.248V187.248H182.572V186.228H181.324V184.404ZM184.751 188.52C184.799 187.776 185.375 187.044 186.323 187.044C187.343 187.044 187.883 187.692 187.907 188.52H184.751ZM188.075 190.02C187.859 190.668 187.391 191.184 186.455 191.184C185.483 191.184 184.739 190.464 184.715 189.432H189.059C189.071 189.36 189.083 189.216 189.083 189.072C189.083 187.272 188.087 186.048 186.311 186.048C184.859 186.048 183.551 187.284 183.551 189.096C183.551 191.052 184.907 192.18 186.455 192.18C187.799 192.18 188.723 191.376 189.047 190.356L188.075 190.02ZM191.195 189.096C191.195 187.908 191.867 187.068 192.899 187.068C193.931 187.068 194.555 187.884 194.555 189.072C194.555 190.26 193.919 191.16 192.887 191.16C191.807 191.16 191.195 190.284 191.195 189.096ZM194.567 191.22C194.567 191.568 194.603 191.868 194.627 192H195.719C195.707 191.904 195.659 191.484 195.659 190.932V183.312H194.543V187.044C194.351 186.576 193.799 186.072 192.779 186.072C191.146 186.072 190.043 187.464 190.043 189.096C190.043 190.812 191.087 192.156 192.779 192.156C193.679 192.156 194.291 191.676 194.567 191.124V191.22ZM206.121 185.424C205.929 184.5 205.161 183.312 203.241 183.312C201.669 183.312 200.433 184.512 200.433 185.844C200.433 187.116 201.297 187.908 202.509 188.172L203.721 188.436C204.573 188.616 204.993 189.144 204.993 189.756C204.993 190.5 204.417 191.112 203.241 191.112C201.957 191.112 201.285 190.236 201.201 189.288L200.073 189.648C200.229 190.86 201.201 192.18 203.253 192.18C205.065 192.18 206.193 190.98 206.193 189.66C206.193 188.472 205.401 187.584 203.985 187.272L202.713 186.996C201.993 186.84 201.621 186.372 201.621 185.76C201.621 184.968 202.305 184.344 203.265 184.344C204.453 184.344 204.969 185.184 205.065 185.796L206.121 185.424ZM209.085 184.404H208.053V185.34C208.053 185.844 207.789 186.228 207.165 186.228H206.853V187.248H207.957V190.416C207.957 191.46 208.581 192.06 209.565 192.06C209.949 192.06 210.237 191.988 210.333 191.952V190.992C210.237 191.016 210.033 191.04 209.889 191.04C209.301 191.04 209.085 190.776 209.085 190.248V187.248H210.333V186.228H209.085V184.404ZM211.479 190.452C211.479 191.364 212.235 192.18 213.411 192.18C214.443 192.18 215.019 191.628 215.271 191.22C215.271 191.64 215.307 191.856 215.331 192H216.435C216.411 191.856 216.363 191.556 216.363 191.052V188.16C216.363 187.032 215.691 186.048 213.963 186.048C212.715 186.048 211.719 186.816 211.599 187.92L212.679 188.172C212.751 187.5 213.195 187.008 213.987 187.008C214.863 187.008 215.235 187.476 215.235 188.04C215.235 188.244 215.139 188.424 214.791 188.472L213.231 188.7C212.235 188.844 211.479 189.42 211.479 190.452ZM213.567 191.232C212.991 191.232 212.631 190.824 212.631 190.392C212.631 189.876 212.991 189.6 213.471 189.528L215.235 189.264V189.528C215.235 190.788 214.491 191.232 213.567 191.232ZM219.632 184.404H218.6V185.34C218.6 185.844 218.336 186.228 217.712 186.228H217.4V187.248H218.504V190.416C218.504 191.46 219.128 192.06 220.112 192.06C220.496 192.06 220.784 191.988 220.88 191.952V190.992C220.784 191.016 220.58 191.04 220.436 191.04C219.848 191.04 219.632 190.776 219.632 190.248V187.248H220.88V186.228H219.632V184.404ZM223.059 188.52C223.107 187.776 223.683 187.044 224.631 187.044C225.651 187.044 226.191 187.692 226.215 188.52H223.059ZM226.383 190.02C226.167 190.668 225.699 191.184 224.763 191.184C223.791 191.184 223.047 190.464 223.023 189.432H227.367C227.379 189.36 227.391 189.216 227.391 189.072C227.391 187.272 226.395 186.048 224.619 186.048C223.167 186.048 221.859 187.284 221.859 189.096C221.859 191.052 223.215 192.18 224.763 192.18C226.107 192.18 227.031 191.376 227.355 190.356L226.383 190.02ZM228.291 190.5C228.387 191.16 229.059 192.18 230.643 192.18C232.071 192.18 232.755 191.208 232.755 190.392C232.755 189.54 232.203 188.904 231.159 188.676L230.223 188.472C229.779 188.376 229.563 188.124 229.563 187.776C229.563 187.38 229.947 187.008 230.523 187.008C231.435 187.008 231.675 187.668 231.723 187.968L232.719 187.596C232.599 187.08 232.107 186.048 230.523 186.048C229.395 186.048 228.471 186.888 228.471 187.872C228.471 188.688 229.011 189.3 229.911 189.492L230.895 189.708C231.375 189.816 231.639 190.092 231.639 190.452C231.639 190.86 231.291 191.22 230.655 191.22C229.839 191.22 229.383 190.74 229.311 190.14L228.291 190.5Z" fill="black" fill-opacity="0.6"/>
<path d="M56.9999 170C53.4524 170 50.5833 173.13 50.5833 177C50.5833 182.25 56.9999 190 56.9999 190C56.9999 190 63.4166 182.25 63.4166 177C63.4166 173.13 60.5474 170 56.9999 170ZM52.4166 177C52.4166 174.24 54.4699 172 56.9999 172C59.5299 172 61.5833 174.24 61.5833 177C61.5833 179.88 58.9433 184.19 56.9999 186.88C55.0933 184.21 52.4166 179.85 52.4166 177Z" fill="black" fill-opacity="0.7"/>
<path d="M56.9999 179.5C58.2656 179.5 59.2916 178.381 59.2916 177C59.2916 175.619 58.2656 174.5 56.9999 174.5C55.7343 174.5 54.7083 175.619 54.7083 177C54.7083 178.381 55.7343 179.5 56.9999 179.5Z" fill="black" fill-opacity="0.7"/>
<path d="M81.525 220.36C81.66 221.89 83.055 223.24 85.125 223.24C87.285 223.24 88.695 221.755 88.695 219.925C88.695 217.915 87.3 216.7 85.395 216.7C84.63 216.7 83.85 216.94 83.415 217.42L84.135 214.63H88.29V213.28H83.16L81.9 218.11C82.395 218.29 82.83 218.485 83.34 218.68C83.76 218.245 84.42 217.975 85.11 217.975C86.235 217.975 87.21 218.65 87.21 219.985C87.21 221.185 86.28 221.95 85.125 221.95C83.91 221.95 83.025 221.14 82.935 219.94L81.525 220.36ZM90.0728 222.655C90.5528 222.985 91.5728 223.225 92.3228 223.225C95.5928 223.225 97.1828 221.095 97.1828 217.525C97.1828 214.42 95.3078 213.055 93.4028 213.055C91.4978 213.055 89.8178 214.405 89.8178 216.415C89.8178 218.56 91.4978 219.7 93.1778 219.7C94.4978 219.7 95.3528 219.1 95.6978 218.455C95.6378 220.36 94.6778 221.905 92.3228 221.905C91.6928 221.905 90.9728 221.695 90.5528 221.44L90.0728 222.655ZM95.5028 216.385C95.5028 217.675 94.4828 218.44 93.4028 218.44C92.2928 218.44 91.3028 217.705 91.3028 216.385C91.3028 215.11 92.3228 214.345 93.4028 214.345C94.4678 214.345 95.5028 215.125 95.5028 216.385ZM112.709 220.78L109.979 212.365H108.434L105.764 220.69L103.424 212.365H101.909L104.984 223H106.454L109.199 214.375L111.974 223H113.489L116.519 212.365H115.004L112.709 220.78ZM124.662 223V213.28H123.372C123.147 214.33 122.217 215.08 120.867 215.11V216.145H123.222V223H124.662ZM127.969 216.775C127.954 216.625 127.939 216.475 127.939 216.34C127.939 215.23 128.539 214.345 129.814 214.345C131.044 214.345 131.644 215.17 131.644 216.055C131.644 216.805 131.224 217.495 130.309 218.08L128.689 219.13C127.039 220.195 126.409 221.41 126.379 223H133.189V221.635H128.194C128.329 221.035 128.824 220.63 129.379 220.27L131.299 219.04C132.409 218.335 133.129 217.315 133.129 216.04C133.129 214.42 131.929 213.055 129.844 213.055C127.714 213.055 126.484 214.54 126.484 216.205C126.484 216.325 126.484 216.46 126.499 216.595L127.969 216.775ZM145.463 223V213.28H144.173C143.948 214.33 143.018 215.08 141.668 215.11V216.145H144.023V223H145.463ZM148.769 216.775C148.754 216.625 148.739 216.475 148.739 216.34C148.739 215.23 149.339 214.345 150.614 214.345C151.844 214.345 152.444 215.17 152.444 216.055C152.444 216.805 152.024 217.495 151.109 218.08L149.489 219.13C147.839 220.195 147.209 221.41 147.179 223H153.989V221.635H148.994C149.129 221.035 149.624 220.63 150.179 220.27L152.099 219.04C153.209 218.335 153.929 217.315 153.929 216.04C153.929 214.42 152.729 213.055 150.644 213.055C148.514 213.055 147.284 214.54 147.284 216.205C147.284 216.325 147.284 216.46 147.299 216.595L148.769 216.775ZM157.684 213.505H156.394V214.675C156.394 215.305 156.064 215.785 155.284 215.785H154.894V217.06H156.274V221.02C156.274 222.325 157.054 223.075 158.284 223.075C158.764 223.075 159.124 222.985 159.244 222.94V221.74C159.124 221.77 158.869 221.8 158.689 221.8C157.954 221.8 157.684 221.47 157.684 220.81V217.06H159.244V215.785H157.684V213.505ZM162.536 218.755C162.566 217.69 163.136 216.85 164.216 216.85C165.476 216.85 165.896 217.66 165.896 218.665V223H167.306V218.425C167.306 216.82 166.451 215.575 164.726 215.575C163.901 215.575 163.061 215.86 162.536 216.625V212.14H161.126V223H162.536V218.755ZM180.229 214.78C179.989 213.625 179.029 212.14 176.629 212.14C174.664 212.14 173.119 213.64 173.119 215.305C173.119 216.895 174.199 217.885 175.714 218.215L177.229 218.545C178.294 218.77 178.819 219.43 178.819 220.195C178.819 221.125 178.099 221.89 176.629 221.89C175.024 221.89 174.184 220.795 174.079 219.61L172.669 220.06C172.864 221.575 174.079 223.225 176.644 223.225C178.909 223.225 180.319 221.725 180.319 220.075C180.319 218.59 179.329 217.48 177.559 217.09L175.969 216.745C175.069 216.55 174.604 215.965 174.604 215.2C174.604 214.21 175.459 213.43 176.659 213.43C178.144 213.43 178.789 214.48 178.909 215.245L180.229 214.78ZM183.934 213.505H182.644V214.675C182.644 215.305 182.314 215.785 181.534 215.785H181.144V217.06H182.524V221.02C182.524 222.325 183.304 223.075 184.534 223.075C185.014 223.075 185.374 222.985 185.494 222.94V221.74C185.374 221.77 185.119 221.8 184.939 221.8C184.204 221.8 183.934 221.47 183.934 220.81V217.06H185.494V215.785H183.934V213.505Z" fill="black" fill-opacity="0.8"/>
<path d="M89.82 236.224L87.636 229.492H86.4L84.264 236.152L82.392 229.492H81.18L83.64 238H84.816L87.012 231.1L89.232 238H90.444L92.868 229.492H91.656L89.82 236.224ZM95.1229 238V232.228H94.0069V238H95.1229ZM93.7549 230.044C93.7549 230.488 94.1149 230.848 94.5589 230.848C95.0149 230.848 95.3749 230.488 95.3749 230.044C95.3749 229.588 95.0149 229.228 94.5589 229.228C94.1149 229.228 93.7549 229.588 93.7549 230.044ZM98.17 238V229.312H97.042V238H98.17ZM101.205 238V234.52C101.205 233.656 101.745 233.056 102.549 233.056C103.413 233.056 103.773 233.632 103.773 234.376V238H104.901V234.508C104.901 233.68 105.441 233.056 106.233 233.056C107.085 233.056 107.457 233.62 107.457 234.376V238H108.573V234.256C108.573 232.744 107.589 232.06 106.581 232.06C105.849 232.06 105.105 232.324 104.649 233.152C104.337 232.408 103.641 232.06 102.921 232.06C102.249 232.06 101.529 232.36 101.169 232.996V232.228H100.089V238H101.205ZM111.494 238V232.228H110.378V238H111.494ZM110.126 230.044C110.126 230.488 110.486 230.848 110.93 230.848C111.386 230.848 111.746 230.488 111.746 230.044C111.746 229.588 111.386 229.228 110.93 229.228C110.486 229.228 110.126 229.588 110.126 230.044ZM114.541 234.664C114.541 233.788 114.997 233.08 115.885 233.08C116.893 233.08 117.229 233.728 117.229 234.532V238H118.357V234.34C118.357 233.056 117.673 232.06 116.293 232.06C115.621 232.06 114.937 232.336 114.517 233.056V232.228H113.413V238H114.541V234.664ZM119.731 238.312C119.875 239.548 120.955 240.46 122.395 240.46C124.567 240.46 125.287 239.032 125.287 237.568V232.228H124.171V233.032C123.883 232.456 123.283 232.12 122.395 232.12C120.811 232.12 119.743 233.368 119.743 234.928C119.743 236.56 120.859 237.724 122.395 237.724C123.259 237.724 123.883 237.304 124.159 236.776V237.604C124.159 238.852 123.607 239.476 122.395 239.476C121.519 239.476 120.907 238.864 120.823 238.06L119.731 238.312ZM122.563 236.776C121.543 236.776 120.895 236.056 120.895 234.928C120.895 233.812 121.567 233.08 122.563 233.08C123.535 233.08 124.207 233.812 124.207 234.928C124.207 236.044 123.535 236.776 122.563 236.776ZM128.601 230.404H127.569V231.34C127.569 231.844 127.305 232.228 126.681 232.228H126.369V233.248H127.473V236.416C127.473 237.46 128.097 238.06 129.081 238.06C129.465 238.06 129.753 237.988 129.849 237.952V236.992C129.753 237.016 129.549 237.04 129.405 237.04C128.817 237.04 128.601 236.776 128.601 236.248V233.248H129.849V232.228H128.601V230.404ZM133.768 237.172C132.808 237.172 131.968 236.452 131.968 235.108C131.968 233.776 132.808 233.056 133.768 233.056C134.728 233.056 135.568 233.776 135.568 235.108C135.568 236.452 134.728 237.172 133.768 237.172ZM133.768 232.048C132.04 232.048 130.816 233.356 130.816 235.108C130.816 236.872 132.04 238.18 133.768 238.18C135.496 238.18 136.72 236.872 136.72 235.108C136.72 233.356 135.496 232.048 133.768 232.048ZM139.291 234.664C139.291 233.788 139.747 233.08 140.635 233.08C141.643 233.08 141.979 233.728 141.979 234.532V238H143.107V234.34C143.107 233.056 142.423 232.06 141.043 232.06C140.371 232.06 139.687 232.336 139.267 233.056V232.228H138.163V238H139.291V234.664ZM144.781 237.232C144.781 237.748 145.141 238.048 145.585 238.048C145.717 238.048 145.813 238.012 145.849 237.988C145.837 238.564 145.441 239.152 144.853 239.284V239.908C145.597 239.812 146.629 239.152 146.629 237.568C146.629 236.812 146.173 236.428 145.657 236.428C145.153 236.428 144.781 236.8 144.781 237.232ZM152.725 236.956V230.536H154.489C156.061 230.536 157.357 231.616 157.357 233.764C157.357 235.9 156.037 236.956 154.465 236.956H152.725ZM154.501 238C156.661 238 158.569 236.548 158.569 233.764C158.569 230.968 156.685 229.492 154.525 229.492H151.549V238H154.501ZM165.357 238V236.908H161.361V234.304H164.985V233.2H161.361V230.584H165.357V229.492H160.185V238H165.357ZM166.918 237.232C166.918 237.748 167.278 238.048 167.722 238.048C167.854 238.048 167.95 238.012 167.986 237.988C167.974 238.564 167.578 239.152 166.99 239.284V239.908C167.734 239.812 168.766 239.152 168.766 237.568C168.766 236.812 168.31 236.428 167.794 236.428C167.29 236.428 166.918 236.8 166.918 237.232ZM176.625 238.18C178.353 238.18 179.685 237.1 179.685 235.096V229.492H178.509V235.06C178.509 236.356 177.825 237.088 176.625 237.088C175.437 237.088 174.729 236.356 174.729 235.06V229.492H173.565V235.096C173.565 237.1 174.897 238.18 176.625 238.18ZM182.674 234.664C182.674 233.788 183.13 233.08 184.018 233.08C185.026 233.08 185.362 233.728 185.362 234.532V238H186.49V234.34C186.49 233.056 185.806 232.06 184.426 232.06C183.754 232.06 183.07 232.336 182.65 233.056V232.228H181.546V238H182.674V234.664ZM189.4 238V232.228H188.284V238H189.4ZM188.032 230.044C188.032 230.488 188.392 230.848 188.836 230.848C189.292 230.848 189.652 230.488 189.652 230.044C189.652 229.588 189.292 229.228 188.836 229.228C188.392 229.228 188.032 229.588 188.032 230.044ZM192.831 230.404H191.799V231.34C191.799 231.844 191.535 232.228 190.911 232.228H190.599V233.248H191.703V236.416C191.703 237.46 192.327 238.06 193.311 238.06C193.695 238.06 193.983 237.988 194.079 237.952V236.992C193.983 237.016 193.779 237.04 193.635 237.04C193.047 237.04 192.831 236.776 192.831 236.248V233.248H194.079V232.228H192.831V230.404ZM196.258 234.52C196.306 233.776 196.882 233.044 197.83 233.044C198.85 233.044 199.39 233.692 199.414 234.52H196.258ZM199.582 236.02C199.366 236.668 198.898 237.184 197.962 237.184C196.99 237.184 196.246 236.464 196.222 235.432H200.566C200.578 235.36 200.59 235.216 200.59 235.072C200.59 233.272 199.594 232.048 197.818 232.048C196.366 232.048 195.058 233.284 195.058 235.096C195.058 237.052 196.414 238.18 197.962 238.18C199.306 238.18 200.23 237.376 200.554 236.356L199.582 236.02ZM202.702 235.096C202.702 233.908 203.374 233.068 204.406 233.068C205.438 233.068 206.062 233.884 206.062 235.072C206.062 236.26 205.426 237.16 204.394 237.16C203.314 237.16 202.702 236.284 202.702 235.096ZM206.074 237.22C206.074 237.568 206.11 237.868 206.134 238H207.226C207.214 237.904 207.166 237.484 207.166 236.932V229.312H206.05V233.044C205.858 232.576 205.306 232.072 204.286 232.072C202.654 232.072 201.55 233.464 201.55 235.096C201.55 236.812 202.594 238.156 204.286 238.156C205.186 238.156 205.798 237.676 206.074 237.124V237.22ZM217.629 231.424C217.437 230.5 216.669 229.312 214.749 229.312C213.177 229.312 211.941 230.512 211.941 231.844C211.941 233.116 212.805 233.908 214.017 234.172L215.229 234.436C216.081 234.616 216.501 235.144 216.501 235.756C216.501 236.5 215.925 237.112 214.749 237.112C213.465 237.112 212.793 236.236 212.709 235.288L211.581 235.648C211.737 236.86 212.709 238.18 214.761 238.18C216.573 238.18 217.701 236.98 217.701 235.66C217.701 234.472 216.909 233.584 215.493 233.272L214.221 232.996C213.501 232.84 213.129 232.372 213.129 231.76C213.129 230.968 213.813 230.344 214.773 230.344C215.961 230.344 216.477 231.184 216.573 231.796L217.629 231.424ZM220.593 230.404H219.561V231.34C219.561 231.844 219.297 232.228 218.673 232.228H218.361V233.248H219.465V236.416C219.465 237.46 220.089 238.06 221.073 238.06C221.457 238.06 221.745 237.988 221.841 237.952V236.992C221.745 237.016 221.541 237.04 221.397 237.04C220.809 237.04 220.593 236.776 220.593 236.248V233.248H221.841V232.228H220.593V230.404ZM222.987 236.452C222.987 237.364 223.743 238.18 224.919 238.18C225.951 238.18 226.527 237.628 226.779 237.22C226.779 237.64 226.815 237.856 226.839 238H227.943C227.919 237.856 227.871 237.556 227.871 237.052V234.16C227.871 233.032 227.199 232.048 225.471 232.048C224.223 232.048 223.227 232.816 223.107 233.92L224.187 234.172C224.259 233.5 224.703 233.008 225.495 233.008C226.371 233.008 226.743 233.476 226.743 234.04C226.743 234.244 226.647 234.424 226.299 234.472L224.739 234.7C223.743 234.844 222.987 235.42 222.987 236.452ZM225.075 237.232C224.499 237.232 224.139 236.824 224.139 236.392C224.139 235.876 224.499 235.6 224.979 235.528L226.743 235.264V235.528C226.743 236.788 225.999 237.232 225.075 237.232ZM231.14 230.404H230.108V231.34C230.108 231.844 229.844 232.228 229.22 232.228H228.908V233.248H230.012V236.416C230.012 237.46 230.636 238.06 231.62 238.06C232.004 238.06 232.292 237.988 232.388 237.952V236.992C232.292 237.016 232.088 237.04 231.944 237.04C231.356 237.04 231.14 236.776 231.14 236.248V233.248H232.388V232.228H231.14V230.404ZM234.567 234.52C234.615 233.776 235.191 233.044 236.139 233.044C237.159 233.044 237.699 233.692 237.723 234.52H234.567ZM237.891 236.02C237.675 236.668 237.207 237.184 236.271 237.184C235.299 237.184 234.555 236.464 234.531 235.432H238.875C238.887 235.36 238.899 235.216 238.899 235.072C238.899 233.272 237.903 232.048 236.127 232.048C234.675 232.048 233.367 233.284 233.367 235.096C233.367 237.052 234.723 238.18 236.271 238.18C237.615 238.18 238.539 237.376 238.863 236.356L237.891 236.02ZM239.799 236.5C239.895 237.16 240.567 238.18 242.151 238.18C243.579 238.18 244.263 237.208 244.263 236.392C244.263 235.54 243.711 234.904 242.667 234.676L241.731 234.472C241.287 234.376 241.071 234.124 241.071 233.776C241.071 233.38 241.455 233.008 242.031 233.008C242.943 233.008 243.183 233.668 243.231 233.968L244.227 233.596C244.107 233.08 243.615 232.048 242.031 232.048C240.903 232.048 239.979 232.888 239.979 233.872C239.979 234.688 240.519 235.3 241.419 235.492L242.403 235.708C242.883 235.816 243.147 236.092 243.147 236.452C243.147 236.86 242.799 237.22 242.163 237.22C241.347 237.22 240.891 236.74 240.819 236.14L239.799 236.5Z" fill="black" fill-opacity="0.6"/>
<path d="M56.9999 216C53.4524 216 50.5833 219.13 50.5833 223C50.5833 228.25 56.9999 236 56.9999 236C56.9999 236 63.4166 228.25 63.4166 223C63.4166 219.13 60.5474 216 56.9999 216ZM52.4166 223C52.4166 220.24 54.4699 218 56.9999 218C59.5299 218 61.5833 220.24 61.5833 223C61.5833 225.88 58.9433 230.19 56.9999 232.88C55.0933 230.21 52.4166 225.85 52.4166 223Z" fill="black" fill-opacity="0.7"/>
<path d="M56.9999 225.5C58.2656 225.5 59.2916 224.381 59.2916 223C59.2916 221.619 58.2656 220.5 56.9999 220.5C55.7343 220.5 54.7083 221.619 54.7083 223C54.7083 224.381 55.7343 225.5 56.9999 225.5Z" fill="black" fill-opacity="0.7"/>
<path d="M81.525 272.36C81.66 273.89 83.055 275.24 85.125 275.24C87.285 275.24 88.695 273.755 88.695 271.925C88.695 269.915 87.3 268.7 85.395 268.7C84.63 268.7 83.85 268.94 83.415 269.42L84.135 266.63H88.29V265.28H83.16L81.9 270.11C82.395 270.29 82.83 270.485 83.34 270.68C83.76 270.245 84.42 269.975 85.11 269.975C86.235 269.975 87.21 270.65 87.21 271.985C87.21 273.185 86.28 273.95 85.125 273.95C83.91 273.95 83.025 273.14 82.935 271.94L81.525 272.36ZM90.0728 274.655C90.5528 274.985 91.5728 275.225 92.3228 275.225C95.5928 275.225 97.1828 273.095 97.1828 269.525C97.1828 266.42 95.3078 265.055 93.4028 265.055C91.4978 265.055 89.8178 266.405 89.8178 268.415C89.8178 270.56 91.4978 271.7 93.1778 271.7C94.4978 271.7 95.3528 271.1 95.6978 270.455C95.6378 272.36 94.6778 273.905 92.3228 273.905C91.6928 273.905 90.9728 273.695 90.5528 273.44L90.0728 274.655ZM95.5028 268.385C95.5028 269.675 94.4828 270.44 93.4028 270.44C92.2928 270.44 91.3028 269.705 91.3028 268.385C91.3028 267.11 92.3228 266.345 93.4028 266.345C94.4678 266.345 95.5028 267.125 95.5028 268.385ZM112.709 272.78L109.979 264.365H108.434L105.764 272.69L103.424 264.365H101.909L104.984 275H106.454L109.199 266.375L111.974 275H113.489L116.519 264.365H115.004L112.709 272.78ZM124.662 275V265.28H123.372C123.147 266.33 122.217 267.08 120.867 267.11V268.145H123.222V275H124.662ZM127.969 268.775C127.954 268.625 127.939 268.475 127.939 268.34C127.939 267.23 128.539 266.345 129.814 266.345C131.044 266.345 131.644 267.17 131.644 268.055C131.644 268.805 131.224 269.495 130.309 270.08L128.689 271.13C127.039 272.195 126.409 273.41 126.379 275H133.189V273.635H128.194C128.329 273.035 128.824 272.63 129.379 272.27L131.299 271.04C132.409 270.335 133.129 269.315 133.129 268.04C133.129 266.42 131.929 265.055 129.844 265.055C127.714 265.055 126.484 266.54 126.484 268.205C126.484 268.325 126.484 268.46 126.499 268.595L127.969 268.775ZM145.463 275V265.28H144.173C143.948 266.33 143.018 267.08 141.668 267.11V268.145H144.023V275H145.463ZM148.769 268.775C148.754 268.625 148.739 268.475 148.739 268.34C148.739 267.23 149.339 266.345 150.614 266.345C151.844 266.345 152.444 267.17 152.444 268.055C152.444 268.805 152.024 269.495 151.109 270.08L149.489 271.13C147.839 272.195 147.209 273.41 147.179 275H153.989V273.635H148.994C149.129 273.035 149.624 272.63 150.179 272.27L152.099 271.04C153.209 270.335 153.929 269.315 153.929 268.04C153.929 266.42 152.729 265.055 150.644 265.055C148.514 265.055 147.284 266.54 147.284 268.205C147.284 268.325 147.284 268.46 147.299 268.595L148.769 268.775ZM157.684 265.505H156.394V266.675C156.394 267.305 156.064 267.785 155.284 267.785H154.894V269.06H156.274V273.02C156.274 274.325 157.054 275.075 158.284 275.075C158.764 275.075 159.124 274.985 159.244 274.94V273.74C159.124 273.77 158.869 273.8 158.689 273.8C157.954 273.8 157.684 273.47 157.684 272.81V269.06H159.244V267.785H157.684V265.505ZM162.536 270.755C162.566 269.69 163.136 268.85 164.216 268.85C165.476 268.85 165.896 269.66 165.896 270.665V275H167.306V270.425C167.306 268.82 166.451 267.575 164.726 267.575C163.901 267.575 163.061 267.86 162.536 268.625V264.14H161.126V275H162.536V270.755ZM180.229 266.78C179.989 265.625 179.029 264.14 176.629 264.14C174.664 264.14 173.119 265.64 173.119 267.305C173.119 268.895 174.199 269.885 175.714 270.215L177.229 270.545C178.294 270.77 178.819 271.43 178.819 272.195C178.819 273.125 178.099 273.89 176.629 273.89C175.024 273.89 174.184 272.795 174.079 271.61L172.669 272.06C172.864 273.575 174.079 275.225 176.644 275.225C178.909 275.225 180.319 273.725 180.319 272.075C180.319 270.59 179.329 269.48 177.559 269.09L175.969 268.745C175.069 268.55 174.604 267.965 174.604 267.2C174.604 266.21 175.459 265.43 176.659 265.43C178.144 265.43 178.789 266.48 178.909 267.245L180.229 266.78ZM183.934 265.505H182.644V266.675C182.644 267.305 182.314 267.785 181.534 267.785H181.144V269.06H182.524V273.02C182.524 274.325 183.304 275.075 184.534 275.075C185.014 275.075 185.374 274.985 185.494 274.94V273.74C185.374 273.77 185.119 273.8 184.939 273.8C184.204 273.8 183.934 273.47 183.934 272.81V269.06H185.494V267.785H183.934V265.505Z" fill="black" fill-opacity="0.8"/>
<path d="M87.276 290V288.896H83.256V281.492H82.08V290H87.276ZM89.6502 290V284.228H88.5342V290H89.6502ZM88.2822 282.044C88.2822 282.488 88.6422 282.848 89.0862 282.848C89.5422 282.848 89.9022 282.488 89.9022 282.044C89.9022 281.588 89.5422 281.228 89.0862 281.228C88.6422 281.228 88.2822 281.588 88.2822 282.044ZM92.6974 286.664C92.6974 285.788 93.1534 285.08 94.0414 285.08C95.0494 285.08 95.3854 285.728 95.3854 286.532V290H96.5134V286.34C96.5134 285.056 95.8294 284.06 94.4494 284.06C93.7774 284.06 93.0934 284.336 92.6734 285.056V284.228H91.5694V290H92.6974V286.664ZM98.9797 287.096C98.9797 285.908 99.6517 285.068 100.684 285.068C101.716 285.068 102.34 285.884 102.34 287.072C102.34 288.26 101.704 289.16 100.672 289.16C99.5917 289.16 98.9797 288.284 98.9797 287.096ZM102.352 289.22C102.352 289.568 102.388 289.868 102.412 290H103.504C103.492 289.904 103.444 289.484 103.444 288.932V281.312H102.328V285.044C102.136 284.576 101.584 284.072 100.564 284.072C98.9317 284.072 97.8277 285.464 97.8277 287.096C97.8277 288.812 98.8717 290.156 100.564 290.156C101.464 290.156 102.076 289.676 102.352 289.124V289.22ZM106.094 286.52C106.142 285.776 106.718 285.044 107.666 285.044C108.686 285.044 109.226 285.692 109.25 286.52H106.094ZM109.418 288.02C109.202 288.668 108.734 289.184 107.798 289.184C106.826 289.184 106.082 288.464 106.058 287.432H110.402C110.414 287.36 110.426 287.216 110.426 287.072C110.426 285.272 109.43 284.048 107.654 284.048C106.202 284.048 104.894 285.284 104.894 287.096C104.894 289.052 106.25 290.18 107.798 290.18C109.142 290.18 110.066 289.376 110.39 288.356L109.418 288.02ZM112.994 286.664C112.994 285.788 113.45 285.08 114.338 285.08C115.346 285.08 115.682 285.728 115.682 286.532V290H116.81V286.34C116.81 285.056 116.126 284.06 114.746 284.06C114.074 284.06 113.39 284.336 112.97 285.056V284.228H111.866V290H112.994V286.664ZM118.485 289.232C118.485 289.748 118.845 290.048 119.289 290.048C119.421 290.048 119.517 290.012 119.553 289.988C119.541 290.564 119.145 291.152 118.557 291.284V291.908C119.301 291.812 120.333 291.152 120.333 289.568C120.333 288.812 119.877 288.428 119.361 288.428C118.857 288.428 118.485 288.8 118.485 289.232ZM132.248 290V281.492H131.072V288.02L126.824 281.492H125.252V290H126.428V283.064L131.024 290H132.248ZM133.564 287.468C133.564 289.1 134.548 290.18 136.216 290.18C137.8 290.18 138.772 288.944 138.772 287.456V281.492H137.596V287.54C137.596 288.524 137.068 289.088 136.204 289.088C135.352 289.088 134.74 288.584 134.74 287.456V286.652L133.564 286.916V287.468ZM140.27 289.232C140.27 289.748 140.63 290.048 141.074 290.048C141.206 290.048 141.302 290.012 141.338 289.988C141.326 290.564 140.93 291.152 140.342 291.284V291.908C141.086 291.812 142.118 291.152 142.118 289.568C142.118 288.812 141.662 288.428 141.146 288.428C140.642 288.428 140.27 288.8 140.27 289.232ZM149.977 290.18C151.705 290.18 153.037 289.1 153.037 287.096V281.492H151.861V287.06C151.861 288.356 151.177 289.088 149.977 289.088C148.789 289.088 148.081 288.356 148.081 287.06V281.492H146.917V287.096C146.917 289.1 148.249 290.18 149.977 290.18ZM156.026 286.664C156.026 285.788 156.482 285.08 157.37 285.08C158.378 285.08 158.714 285.728 158.714 286.532V290H159.842V286.34C159.842 285.056 159.158 284.06 157.778 284.06C157.105 284.06 156.422 284.336 156.002 285.056V284.228H154.898V290H156.026V286.664ZM162.752 290V284.228H161.636V290H162.752ZM161.384 282.044C161.384 282.488 161.744 282.848 162.188 282.848C162.644 282.848 163.004 282.488 163.004 282.044C163.004 281.588 162.644 281.228 162.188 281.228C161.744 281.228 161.384 281.588 161.384 282.044ZM166.183 282.404H165.151V283.34C165.151 283.844 164.887 284.228 164.263 284.228H163.951V285.248H165.055V288.416C165.055 289.46 165.679 290.06 166.663 290.06C167.047 290.06 167.335 289.988 167.431 289.952V288.992C167.335 289.016 167.131 289.04 166.987 289.04C166.399 289.04 166.183 288.776 166.183 288.248V285.248H167.431V284.228H166.183V282.404ZM169.61 286.52C169.658 285.776 170.234 285.044 171.182 285.044C172.202 285.044 172.742 285.692 172.766 286.52H169.61ZM172.934 288.02C172.718 288.668 172.25 289.184 171.314 289.184C170.342 289.184 169.598 288.464 169.574 287.432H173.918C173.93 287.36 173.942 287.216 173.942 287.072C173.942 285.272 172.946 284.048 171.17 284.048C169.718 284.048 168.41 285.284 168.41 287.096C168.41 289.052 169.766 290.18 171.314 290.18C172.658 290.18 173.582 289.376 173.906 288.356L172.934 288.02ZM176.054 287.096C176.054 285.908 176.726 285.068 177.758 285.068C178.79 285.068 179.414 285.884 179.414 287.072C179.414 288.26 178.778 289.16 177.746 289.16C176.666 289.16 176.054 288.284 176.054 287.096ZM179.426 289.22C179.426 289.568 179.462 289.868 179.486 290H180.578C180.566 289.904 180.518 289.484 180.518 288.932V281.312H179.402V285.044C179.21 284.576 178.658 284.072 177.638 284.072C176.006 284.072 174.902 285.464 174.902 287.096C174.902 288.812 175.946 290.156 177.638 290.156C178.538 290.156 179.15 289.676 179.426 289.124V289.22ZM190.981 283.424C190.789 282.5 190.021 281.312 188.101 281.312C186.529 281.312 185.293 282.512 185.293 283.844C185.293 285.116 186.157 285.908 187.369 286.172L188.581 286.436C189.433 286.616 189.853 287.144 189.853 287.756C189.853 288.5 189.277 289.112 188.101 289.112C186.817 289.112 186.145 288.236 186.061 287.288L184.933 287.648C185.089 288.86 186.061 290.18 188.113 290.18C189.925 290.18 191.053 288.98 191.053 287.66C191.053 286.472 190.261 285.584 188.845 285.272L187.573 284.996C186.853 284.84 186.481 284.372 186.481 283.76C186.481 282.968 187.165 282.344 188.125 282.344C189.313 282.344 189.829 283.184 189.925 283.796L190.981 283.424ZM193.945 282.404H192.913V283.34C192.913 283.844 192.649 284.228 192.025 284.228H191.713V285.248H192.817V288.416C192.817 289.46 193.441 290.06 194.425 290.06C194.809 290.06 195.097 289.988 195.193 289.952V288.992C195.097 289.016 194.893 289.04 194.749 289.04C194.161 289.04 193.945 288.776 193.945 288.248V285.248H195.193V284.228H193.945V282.404ZM196.338 288.452C196.338 289.364 197.094 290.18 198.27 290.18C199.302 290.18 199.878 289.628 200.13 289.22C200.13 289.64 200.166 289.856 200.19 290H201.294C201.27 289.856 201.222 289.556 201.222 289.052V286.16C201.222 285.032 200.55 284.048 198.822 284.048C197.574 284.048 196.578 284.816 196.458 285.92L197.538 286.172C197.61 285.5 198.054 285.008 198.846 285.008C199.722 285.008 200.094 285.476 200.094 286.04C200.094 286.244 199.998 286.424 199.65 286.472L198.09 286.7C197.094 286.844 196.338 287.42 196.338 288.452ZM198.426 289.232C197.85 289.232 197.49 288.824 197.49 288.392C197.49 287.876 197.85 287.6 198.33 287.528L200.094 287.264V287.528C200.094 288.788 199.35 289.232 198.426 289.232ZM204.492 282.404H203.46V283.34C203.46 283.844 203.196 284.228 202.572 284.228H202.26V285.248H203.364V288.416C203.364 289.46 203.988 290.06 204.972 290.06C205.356 290.06 205.644 289.988 205.74 289.952V288.992C205.644 289.016 205.44 289.04 205.296 289.04C204.708 289.04 204.492 288.776 204.492 288.248V285.248H205.74V284.228H204.492V282.404ZM207.919 286.52C207.967 285.776 208.543 285.044 209.491 285.044C210.511 285.044 211.051 285.692 211.075 286.52H207.919ZM211.243 288.02C211.027 288.668 210.559 289.184 209.623 289.184C208.651 289.184 207.907 288.464 207.883 287.432H212.227C212.239 287.36 212.251 287.216 212.251 287.072C212.251 285.272 211.255 284.048 209.479 284.048C208.027 284.048 206.719 285.284 206.719 287.096C206.719 289.052 208.075 290.18 209.623 290.18C210.967 290.18 211.891 289.376 212.215 288.356L211.243 288.02ZM213.15 288.5C213.246 289.16 213.918 290.18 215.502 290.18C216.93 290.18 217.614 289.208 217.614 288.392C217.614 287.54 217.062 286.904 216.018 286.676L215.082 286.472C214.638 286.376 214.422 286.124 214.422 285.776C214.422 285.38 214.806 285.008 215.382 285.008C216.294 285.008 216.534 285.668 216.582 285.968L217.578 285.596C217.458 285.08 216.966 284.048 215.382 284.048C214.254 284.048 213.33 284.888 213.33 285.872C213.33 286.688 213.87 287.3 214.77 287.492L215.754 287.708C216.234 287.816 216.498 288.092 216.498 288.452C216.498 288.86 216.15 289.22 215.514 289.22C214.698 289.22 214.242 288.74 214.17 288.14L213.15 288.5Z" fill="black" fill-opacity="0.6"/>
<path d="M56.9999 268C53.4524 268 50.5833 271.13 50.5833 275C50.5833 280.25 56.9999 288 56.9999 288C56.9999 288 63.4166 280.25 63.4166 275C63.4166 271.13 60.5474 268 56.9999 268ZM52.4166 275C52.4166 272.24 54.4699 270 56.9999 270C59.5299 270 61.5833 272.24 61.5833 275C61.5833 277.88 58.9433 282.19 56.9999 284.88C55.0933 282.21 52.4166 277.85 52.4166 275Z" fill="black" fill-opacity="0.7"/>
<path d="M56.9999 277.5C58.2656 277.5 59.2916 276.381 59.2916 275C59.2916 273.619 58.2656 272.5 56.9999 272.5C55.7343 272.5 54.7083 273.619 54.7083 275C54.7083 276.381 55.7343 277.5 56.9999 277.5Z" fill="black" fill-opacity="0.7"/>
</svg>
