<svg width="326" height="522" viewBox="0 0 326 522" fill="none" xmlns="http://www.w3.org/2000/svg">
<title>Login</title>
<g clip-path="url(#clip0)">
<rect width="326" height="522" rx="10" fill="white" fill-opacity="0.69"/>
<rect y="273" width="326" height="275" rx="5" fill="#F7F7F7"/>
<rect width="326" height="275" fill="#9BC4EB" fill-opacity="0.69"/>
<path d="M119.65 172.525L115.7 160.275H112.125L108.2 172.475L104.95 160.275H101.3L106.225 178H109.825L113.875 165.375L117.925 178H121.475L126.375 160.275H122.85L119.65 172.525ZM142.684 178H146.434L139.684 160.275H135.684L128.884 178H132.534L134.009 173.95H141.209L142.684 178ZM137.609 164.1L140.059 170.8H135.159L137.609 164.1ZM166.826 178V160.275H163.376V172L156.001 160.275H151.701V178H155.151V165.425L163.201 178H166.826ZM177.316 174.8V163.475H180.091C182.991 163.475 185.391 165.3 185.391 169.15C185.391 173 182.966 174.8 180.066 174.8H177.316ZM180.191 178C185.241 178 188.966 174.75 188.966 169.15C188.966 163.55 185.266 160.275 180.216 160.275H173.866V178H180.191ZM206.057 178V174.75H198.407V170.65H205.332V167.575H198.407V163.525H206.057V160.275H194.957V178H206.057ZM221.257 178H225.107L221.307 170.75C223.632 170.075 225.082 168.2 225.082 165.725C225.082 162.65 222.882 160.275 219.432 160.275H212.507V178H215.982V171.175H217.782L221.257 178ZM215.982 168.2V163.275H218.782C220.532 163.275 221.557 164.25 221.557 165.75C221.557 167.2 220.532 168.2 218.782 168.2H215.982Z" fill="white"/>
<rect x="46" y="219" width="235" height="164" rx="5" fill="white"/>
<path d="M143.56 246V243.888H138.504V234.656H136.296V246H143.56ZM147.29 240.32C147.29 237.76 149.082 236.544 150.826 236.544C152.586 236.544 154.378 237.76 154.378 240.32C154.378 242.88 152.586 244.096 150.826 244.096C149.082 244.096 147.29 242.88 147.29 240.32ZM145.002 240.336C145.002 243.984 147.754 246.24 150.826 246.24C153.914 246.24 156.666 243.984 156.666 240.336C156.666 236.672 153.914 234.416 150.826 234.416C147.754 234.416 145.002 236.672 145.002 240.336ZM169.652 246V240.096H163.988V242.016H167.572C167.444 242.816 166.628 244.224 164.532 244.224C162.628 244.224 160.948 242.896 160.948 240.336C160.948 237.648 162.804 236.48 164.516 236.48C166.356 236.48 167.3 237.648 167.588 238.656L169.7 237.904C169.14 236.16 167.492 234.416 164.516 234.416C161.444 234.416 158.708 236.672 158.708 240.336C158.708 244 161.316 246.24 164.372 246.24C166.084 246.24 167.204 245.472 167.716 244.704L167.86 246H169.652ZM174.92 246V234.656H172.68V246H174.92ZM187.989 246V234.656H185.781V242.16L181.061 234.656H178.309V246H180.517V237.952L185.669 246H187.989Z" fill="#333333" fill-opacity="0.63"/>
<rect x="63" y="412" width="203" height="33" rx="10" fill="#9BC4EB"/>
<path d="M145.56 435V432.888H140.504V423.656H138.296V435H145.56ZM150.09 429.32C150.09 426.76 151.882 425.544 153.626 425.544C155.386 425.544 157.178 426.76 157.178 429.32C157.178 431.88 155.386 433.096 153.626 433.096C151.882 433.096 150.09 431.88 150.09 429.32ZM147.802 429.336C147.802 432.984 150.554 435.24 153.626 435.24C156.714 435.24 159.466 432.984 159.466 429.336C159.466 425.672 156.714 423.416 153.626 423.416C150.554 423.416 147.802 425.672 147.802 429.336ZM173.252 435V429.096H167.588V431.016H171.172C171.044 431.816 170.228 433.224 168.132 433.224C166.228 433.224 164.548 431.896 164.548 429.336C164.548 426.648 166.404 425.48 168.116 425.48C169.956 425.48 170.9 426.648 171.188 427.656L173.3 426.904C172.74 425.16 171.092 423.416 168.116 423.416C165.044 423.416 162.308 425.672 162.308 429.336C162.308 433 164.916 435.24 167.972 435.24C169.684 435.24 170.804 434.472 171.316 433.704L171.46 435H173.252ZM179.32 435V423.656H177.08V435H179.32ZM193.189 435V423.656H190.981V431.16L186.261 423.656H183.509V435H185.717V426.952L190.869 435H193.189Z" fill="white"/>
<rect x="63" y="455" width="203" height="33" rx="10" fill="white"/>
<path d="M145.928 469.36C145.672 468.08 144.616 466.416 141.864 466.416C139.72 466.416 137.912 467.952 137.912 469.968C137.912 471.68 139.08 472.848 140.888 473.216L142.472 473.536C143.352 473.712 143.848 474.224 143.848 474.88C143.848 475.68 143.192 476.272 142.008 476.272C140.408 476.272 139.624 475.264 139.528 474.144L137.48 474.688C137.656 476.304 138.984 478.24 141.992 478.24C144.632 478.24 146.088 476.48 146.088 474.736C146.088 473.136 144.984 471.792 142.92 471.392L141.336 471.088C140.504 470.928 140.104 470.432 140.104 469.808C140.104 469.056 140.808 468.368 141.88 468.368C143.32 468.368 143.832 469.344 143.944 469.968L145.928 469.36ZM151.792 478V466.656H149.552V478H151.792ZM166.252 478V472.096H160.588V474.016H164.172C164.044 474.816 163.228 476.224 161.132 476.224C159.228 476.224 157.548 474.896 157.548 472.336C157.548 469.648 159.404 468.48 161.116 468.48C162.956 468.48 163.9 469.648 164.188 470.656L166.3 469.904C165.74 468.16 164.092 466.416 161.116 466.416C158.044 466.416 155.308 468.672 155.308 472.336C155.308 476 157.916 478.24 160.972 478.24C162.684 478.24 163.804 477.472 164.316 476.704L164.46 478H166.252ZM179.76 478V466.656H177.552V474.16L172.832 466.656H170.08V478H172.288V469.952L177.44 478H179.76ZM193.739 478.256C196.171 478.256 198.107 476.768 198.107 473.984V466.656H195.899V473.824C195.899 475.312 195.083 476.096 193.739 476.096C192.427 476.096 191.595 475.312 191.595 473.824V466.656H189.387V473.984C189.387 476.768 191.323 478.256 193.739 478.256ZM204.417 471.824V468.576H206.161C207.265 468.576 207.937 469.2 207.937 470.208C207.937 471.184 207.265 471.824 206.161 471.824H204.417ZM206.433 473.728C208.673 473.728 210.161 472.256 210.161 470.192C210.161 468.144 208.673 466.656 206.433 466.656H202.193V478H204.401V473.728H206.433Z" fill="#9BC4EB"/>
<path d="M89.799 297V295.544H85.665V293.1H89.409V291.683H85.665V289.239H89.799V287.783H84.105V297H89.799ZM92.9095 297V293.243C92.9095 292.437 93.4165 291.839 94.2225 291.839C95.0805 291.839 95.4445 292.411 95.4445 293.139V297H96.9265V293.243C96.9265 292.463 97.4465 291.839 98.2395 291.839C99.0845 291.839 99.4615 292.398 99.4615 293.139V297H100.917V292.892C100.917 291.215 99.8255 290.487 98.6815 290.487C97.8625 290.487 97.1215 290.773 96.6275 291.605C96.2895 290.864 95.5615 290.487 94.7295 290.487C94.0145 290.487 93.2215 290.825 92.8575 291.475V290.669H91.4145V297H92.9095ZM102.374 295.284C102.374 296.285 103.193 297.195 104.519 297.195C105.546 297.195 106.17 296.675 106.469 296.194C106.469 296.701 106.521 296.961 106.534 297H107.938C107.925 296.935 107.86 296.558 107.86 295.986V292.84C107.86 291.579 107.119 290.474 105.169 290.474C103.609 290.474 102.621 291.449 102.504 292.541L103.882 292.853C103.947 292.216 104.389 291.709 105.182 291.709C106.014 291.709 106.378 292.138 106.378 292.671C106.378 292.892 106.274 293.074 105.91 293.126L104.285 293.373C103.206 293.529 102.374 294.153 102.374 295.284ZM104.805 296.012C104.207 296.012 103.882 295.622 103.882 295.193C103.882 294.673 104.259 294.413 104.727 294.335L106.378 294.088V294.374C106.378 295.609 105.65 296.012 104.805 296.012ZM111.178 297V290.669H109.683V297H111.178ZM109.449 288.446C109.449 288.992 109.891 289.421 110.424 289.421C110.97 289.421 111.412 288.992 111.412 288.446C111.412 287.9 110.97 287.458 110.424 287.458C109.891 287.458 109.449 287.9 109.449 288.446ZM114.631 297V287.588H113.123V297H114.631Z" fill="black" fill-opacity="0.38"/>
<path d="M85.665 342.021V339.161H87.29C88.278 339.161 88.876 339.72 88.876 340.604C88.876 341.475 88.278 342.021 87.29 342.021H85.665ZM87.524 343.399C89.292 343.399 90.462 342.216 90.462 340.591C90.462 338.979 89.292 337.783 87.524 337.783H84.105V347H85.665V343.399H87.524ZM91.1006 345.284C91.1006 346.285 91.9196 347.195 93.2456 347.195C94.2726 347.195 94.8966 346.675 95.1956 346.194C95.1956 346.701 95.2476 346.961 95.2606 347H96.6646C96.6516 346.935 96.5866 346.558 96.5866 345.986V342.84C96.5866 341.579 95.8456 340.474 93.8956 340.474C92.3356 340.474 91.3476 341.449 91.2306 342.541L92.6086 342.853C92.6736 342.216 93.1156 341.709 93.9086 341.709C94.7406 341.709 95.1046 342.138 95.1046 342.671C95.1046 342.892 95.0006 343.074 94.6366 343.126L93.0116 343.373C91.9326 343.529 91.1006 344.153 91.1006 345.284ZM93.5316 346.012C92.9336 346.012 92.6086 345.622 92.6086 345.193C92.6086 344.673 92.9856 344.413 93.4536 344.335L95.1046 344.088V344.374C95.1046 345.609 94.3766 346.012 93.5316 346.012ZM97.8506 345.284C97.9286 345.999 98.6306 347.195 100.464 347.195C102.076 347.195 102.856 346.129 102.856 345.167C102.856 344.231 102.232 343.503 101.036 343.243L100.074 343.048C99.6836 342.97 99.4366 342.723 99.4366 342.385C99.4366 341.995 99.8136 341.657 100.347 341.657C101.192 341.657 101.465 342.242 101.517 342.606L102.791 342.242C102.687 341.618 102.115 340.474 100.347 340.474C99.0336 340.474 98.0196 341.41 98.0196 342.515C98.0196 343.386 98.6046 344.114 99.7226 344.361L100.659 344.569C101.166 344.673 101.4 344.933 101.4 345.271C101.4 345.661 101.075 345.999 100.451 345.999C99.6446 345.999 99.2156 345.492 99.1636 344.92L97.8506 345.284ZM103.792 345.284C103.87 345.999 104.572 347.195 106.405 347.195C108.017 347.195 108.797 346.129 108.797 345.167C108.797 344.231 108.173 343.503 106.977 343.243L106.015 343.048C105.625 342.97 105.378 342.723 105.378 342.385C105.378 341.995 105.755 341.657 106.288 341.657C107.133 341.657 107.406 342.242 107.458 342.606L108.732 342.242C108.628 341.618 108.056 340.474 106.288 340.474C104.975 340.474 103.961 341.41 103.961 342.515C103.961 343.386 104.546 344.114 105.664 344.361L106.6 344.569C107.107 344.673 107.341 344.933 107.341 345.271C107.341 345.661 107.016 345.999 106.392 345.999C105.586 345.999 105.157 345.492 105.105 344.92L103.792 345.284ZM113.792 340.669L112.297 345.05L111.01 340.669H109.398L111.452 347H112.999L114.533 342.45L116.106 347H117.614L119.642 340.669H118.108L116.847 345.05L115.352 340.669H113.792ZM123.421 345.843C122.498 345.843 121.653 345.141 121.653 343.828C121.653 342.515 122.498 341.839 123.421 341.839C124.357 341.839 125.189 342.515 125.189 343.828C125.189 345.154 124.357 345.843 123.421 345.843ZM123.421 340.474C121.536 340.474 120.145 341.891 120.145 343.828C120.145 345.778 121.536 347.195 123.421 347.195C125.319 347.195 126.71 345.778 126.71 343.828C126.71 341.891 125.319 340.474 123.421 340.474ZM131.872 340.63C131.807 340.617 131.651 340.591 131.469 340.591C130.637 340.591 129.935 340.994 129.636 341.683V340.669H128.167V347H129.675V343.984C129.675 342.801 130.208 342.125 131.378 342.125C131.534 342.125 131.703 342.138 131.872 342.164V340.63ZM134.082 343.815C134.082 342.606 134.81 341.839 135.798 341.839C136.786 341.839 137.462 342.593 137.462 343.802C137.462 345.011 136.773 345.83 135.785 345.83C134.758 345.83 134.082 345.024 134.082 343.815ZM138.918 337.588H137.449V341.41C137.254 341.007 136.695 340.5 135.59 340.5C133.809 340.5 132.574 341.995 132.574 343.815C132.574 345.726 133.796 347.156 135.616 347.156C136.513 347.156 137.176 346.714 137.475 346.181C137.475 346.441 137.514 346.857 137.54 347H138.983C138.97 346.896 138.918 346.415 138.918 345.843V337.588Z" fill="black" fill-opacity="0.38"/>
<circle cx="162" cy="102" r="41" fill="#FDFBE6"/>
<line x1="58.9985" y1="305.03" x2="255.001" y2="305.03" stroke="#333333" stroke-opacity="0.6"/>
<line x1="59" y1="354.5" x2="255.003" y2="354.5" stroke="#333333" stroke-opacity="0.6"/>
<path d="M74.7443 338.176H73.7424V336.638C73.7424 334.085 71.6183 332 69 332C66.3817 332 64.2576 334.072 64.2576 336.625V338.176H63.2557C62.5344 338.319 62 338.945 62 339.687V346.45C62 347.309 62.708 348 63.5897 348H74.4103C75.292 348 76 347.309 76 346.45V339.687C76 338.945 75.4656 338.319 74.7443 338.176ZM66.4485 337.876V336.638C66.4485 335.257 67.584 334.137 69 334.137C70.416 334.137 71.5515 335.257 71.5515 336.625V337.485V338.176H66.4485V337.876ZM69.9485 344.143C69.9485 344.651 69.521 345.068 69 345.068C68.479 345.068 68.0515 344.651 68.0515 344.143V342.033C68.0515 341.511 68.479 341.107 69 341.107C69.2672 341.107 69.4943 341.212 69.6679 341.381C69.8416 341.55 69.9485 341.785 69.9485 342.046V344.143Z" fill="black"/>
<path d="M62 286L68 293L74 286H62Z" fill="black"/>
<path d="M68.2988 293.987C68.2958 293.991 68.2921 293.991 68.289 293.995C68.2512 294.032 68.2101 294.061 68.1662 294.082C68.1576 294.086 68.1494 294.088 68.1409 294.092C68.0951 294.109 68.0482 294.122 68.0006 294.122H68.0003H68C67.9524 294.122 67.9055 294.109 67.86 294.092C67.8515 294.088 67.843 294.085 67.8347 294.082C67.7905 294.061 67.7494 294.032 67.7116 293.994C67.7085 293.991 67.7049 293.991 67.7018 293.987L61 287V297.448C61 297.753 61.2046 298 61.4574 298H74.5426C74.7951 298 75 297.753 75 297.448V287L68.2988 293.987Z" fill="black"/>
<path fill-rule="evenodd" clip-rule="evenodd" d="M179.798 79.9503C180.612 80.6194 181.43 80.9774 181.83 80.8912C182.831 80.675 183.173 76.4731 182.511 74.7514C181.85 73.0298 177.981 71.9867 177.587 75.2585C177.45 76.394 177.799 77.4459 178.354 78.3263L176.915 84.154L180.067 84.4115L179.798 79.9503Z" fill="#BA8B72"/>
<path fill-rule="evenodd" clip-rule="evenodd" d="M176.278 74.0518C176.184 73.9254 176.138 73.7524 176.1 73.5885C176.06 73.4183 176.021 73.2465 175.998 73.0708C175.953 72.7198 175.976 72.3224 176.203 72.0713C176.385 71.8699 176.644 71.7941 176.879 71.7923C177.036 71.791 177.195 71.8297 177.341 71.8994C177.486 71.9685 177.607 72.0926 177.746 72.1749C177.774 71.8029 177.852 71.4178 178.032 71.113C178.206 70.8197 178.464 70.6683 178.749 70.646C179.041 70.623 179.323 70.7257 179.572 70.9109C179.634 70.9573 179.696 71.0055 179.755 71.0593C179.804 71.1043 179.854 71.1578 179.914 71.1793C179.98 71.2033 180.016 71.1605 180.064 71.1066C180.119 71.0433 180.18 70.9886 180.245 70.941C180.53 70.7303 180.891 70.6636 181.196 70.8288C181.337 70.9049 181.471 71.0256 181.56 71.1841C181.639 71.3253 181.689 71.5432 181.804 71.6465C181.852 71.6904 181.892 71.6408 181.941 71.6057C182.014 71.5531 182.085 71.4941 182.159 71.4432C182.263 71.3715 182.375 71.3207 182.492 71.2989C182.664 71.2669 182.896 71.2967 182.929 71.5595C182.942 71.6582 182.921 71.7611 182.91 71.8586C182.894 71.9924 182.877 72.1262 182.859 72.2597C182.845 72.3611 182.83 72.4588 182.808 72.5576C182.796 72.6103 182.762 72.7076 182.779 72.7626C182.799 72.8314 182.914 72.8027 182.962 72.8089C183.057 72.8213 183.152 72.8487 183.237 72.9035C183.303 72.946 183.371 73.0061 183.395 73.1C183.409 73.1576 183.401 73.215 183.389 73.2721C183.375 73.3407 183.384 73.3785 183.388 73.4491C183.52 73.3859 183.973 73.2584 184.013 73.5311C184.026 73.6219 183.978 73.7194 183.941 73.7921C183.876 73.9195 183.795 74.0342 183.712 74.1431C183.54 74.3704 183.338 74.5621 183.125 74.7227C183.355 74.8659 183.395 75.2362 183.176 75.437C183.08 75.5256 182.956 75.537 182.842 75.5214C182.8 75.5158 182.74 75.4919 182.707 75.4978C182.689 75.5009 182.668 75.517 182.644 75.517C182.481 75.5167 182.301 75.4561 182.145 75.4011C181.867 75.3031 181.609 75.1249 181.405 74.8688C181.353 74.8031 181.309 74.7642 181.234 74.7589C181.168 74.7543 181.102 74.7702 181.036 74.7668C180.861 74.7577 180.709 74.645 180.551 74.5654C180.526 74.8207 180.447 75.0976 180.343 75.3207C180.259 75.5026 180.105 75.5174 179.954 75.5216C179.472 75.5352 178.995 75.4371 178.515 75.3986C178.972 75.5594 179.449 75.6492 179.9 75.8314C180.105 75.9137 179.936 76.0648 179.84 76.1712C179.682 76.3465 179.56 76.5697 179.469 76.8079C179.263 76.4429 178.875 76.1818 178.513 76.2592C178.113 76.3446 177.799 76.9439 178.023 77.4115C178.154 77.683 178.411 77.8047 178.624 77.9342C178.441 78.1282 178.381 78.4322 178.262 78.6826C178.204 78.8061 178.124 78.9446 178.008 78.9798C177.965 78.9928 177.915 78.9902 177.88 79.0276C177.836 79.0738 177.823 79.1285 177.768 79.1668C177.548 79.3199 177.222 79.2801 177.05 79.0429C176.894 78.8283 176.957 78.514 177.109 78.3218C176.893 78.1949 176.495 78.0219 176.608 77.6227C176.127 77.5457 175.009 76.5332 175.697 75.9163C175.356 75.6519 175.063 75.0502 175.322 74.562C175.521 74.186 175.941 74.045 176.278 74.0518Z" fill="#191847"/>
<path fill-rule="evenodd" clip-rule="evenodd" d="M173.909 97.718C174.156 101.648 190.051 113.218 190.144 113.542C190.206 113.759 185.196 127.224 185.196 127.224L186.586 127.854C186.586 127.854 194.27 113.593 193.875 112.074C193.31 109.898 181.542 97.7598 181.542 97.7598L173.909 97.718Z" fill="#B28B67"/>
<path fill-rule="evenodd" clip-rule="evenodd" d="M185.562 125.197L187.831 126.161C192.614 119.862 194.489 114.665 194.148 112.018C193.806 109.37 181.857 97.7276 181.857 97.7276L173.746 97.7276C174.023 106.828 188.756 113.577 188.953 113.965C189.15 114.352 187.211 118.151 185.562 125.197Z" fill="#2F3676"/>
<path fill-rule="evenodd" clip-rule="evenodd" d="M185.792 127.501C185.209 127.253 184.51 127.078 184.235 127.638C184.201 127.707 184.173 127.772 184.155 127.829C184.029 128.235 183.902 129.063 183.902 129.063C184.305 129.234 191.155 132.143 191.155 132.143C191.155 132.143 191.777 131.173 191.196 130.827C190.614 130.481 190.232 130.24 190.232 130.24L187.889 127.596C187.579 127.247 187.072 127.241 186.804 127.583C186.804 127.583 186.145 127.651 185.792 127.501Z" fill="#E4E4E4"/>
<path fill-rule="evenodd" clip-rule="evenodd" d="M175.737 97.718L168.655 117.555L161.696 134.326H163.338L181.303 97.718H175.737Z" fill="#997659"/>
<path fill-rule="evenodd" clip-rule="evenodd" d="M162.81 133.661C162.193 133.661 161.491 133.767 161.392 134.377C161.377 134.468 161.368 134.552 161.368 134.622C161.368 135.054 161.491 135.883 161.491 135.883C161.921 135.883 169.209 135.883 169.209 135.883C169.209 135.883 169.51 134.722 168.862 134.63C168.214 134.537 167.785 134.463 167.785 134.463L164.826 132.923C164.426 132.715 163.935 132.909 163.785 133.334C163.785 133.334 163.185 133.661 162.81 133.661Z" fill="#E4E4E4"/>
<path fill-rule="evenodd" clip-rule="evenodd" d="M162.324 130.842L165.973 131.64C168.794 126.801 180.6 106.956 181.894 97.718H173.772C169.449 104.396 165.013 125.922 162.324 130.842Z" fill="#5C63AB"/>
<path fill-rule="evenodd" clip-rule="evenodd" d="M191.269 100.209L186.961 96.3805L185.954 99.1441L190.244 101.323C191.442 103.023 192.115 103.735 192.263 103.46C192.389 103.227 192.297 103.006 192.212 102.801C192.146 102.642 192.084 102.494 192.133 102.359C192.245 102.051 193.066 102.101 193.843 102.186C194.62 102.272 194.399 101.863 194.215 101.66C193.429 101.089 192.447 100.605 191.269 100.209ZM168.283 106.332C168.698 105.391 170.202 96.1677 170.202 96.1677L173.061 96.2392C173.061 96.2392 170.264 106.161 170.043 106.767C169.757 107.554 170.206 108.716 170.51 109.503C170.557 109.625 170.601 109.738 170.638 109.839C170.196 110.059 169.99 109.778 169.772 109.482C169.526 109.148 169.266 108.794 168.637 109.12C168.394 109.246 168.163 109.396 167.938 109.543C167.16 110.05 166.445 110.515 165.493 109.803C165.342 109.69 165.181 109.272 165.589 108.957C166.608 108.172 168.08 106.792 168.283 106.332Z" fill="#B28B67"/>
<path fill-rule="evenodd" clip-rule="evenodd" d="M178.536 82.3332L179.723 82.1205C184.047 86.6352 185.723 95.173 191.036 99.7862L189.713 101.633C180.399 100.094 178.24 89.6774 178.536 82.3332Z" fill="#E87613"/>
<path fill-rule="evenodd" clip-rule="evenodd" d="M173.12 99.578C173.12 99.578 180.235 99.7232 183.588 99.7916C184.066 99.8014 183.988 98.9935 183.925 98.5854C183.197 93.875 180.157 88.7514 180.257 82.0695L177.246 81.4553C174.678 86.0918 173.728 91.8453 173.12 99.578Z" fill="#DDE3E9"/>
<path fill-rule="evenodd" clip-rule="evenodd" d="M171.892 102.907C171.402 104.216 170.924 105.357 170.476 106.232L168.231 106.186C168.125 97.0675 171.187 90.1152 173.725 85.9373C173.176 85.8802 172.684 85.6018 172.38 84.9353C171.311 82.5889 171.729 81.3176 172.915 80.9211C173.567 80.7031 174.174 80.8734 174.902 81.0772C175.497 81.244 176.172 81.4333 177.018 81.4507C177.018 81.4507 177.018 81.4507 177.018 81.4507L177.018 81.4507C177.018 81.4507 177.018 81.4507 177.019 81.4507C177.101 81.4523 177.175 81.4603 177.242 81.4739L178.243 81.5611C178.243 81.5611 182.071 97.7332 180.167 103.076L171.892 102.907Z" fill="#FF9B21"/>
<path fill-rule="evenodd" clip-rule="evenodd" d="M171.892 102.907C172.535 101.189 173.199 99.1829 173.839 97.1098C174.031 99.4111 174.375 101.726 174.985 102.97L171.892 102.907Z" fill="black" fill-opacity="0.1"/>
<path fill-rule="evenodd" clip-rule="evenodd" d="M145.438 78.1751C146.432 78.5092 147.34 78.5367 147.707 78.2943C148.629 77.6865 147.751 73.432 146.603 72.0059C145.456 70.5798 141.351 71.0868 141.91 74.4498C142.103 75.617 142.75 76.5103 143.55 77.1538L143.82 83.4358L146.992 82.4424L145.438 78.1751Z" fill="#784931"/>
<path fill-rule="evenodd" clip-rule="evenodd" d="M144.934 70.5838C144.466 70.5653 143.824 70.7101 143.568 70.8284C143.622 70.3602 143.574 69.8725 143.421 69.431C143.272 69.0021 143.015 68.6775 142.767 68.3308C142.653 68.1709 142.529 68.0151 142.375 67.9139C142.217 67.8107 142.038 67.7663 141.862 67.7733C141.682 67.7805 141.506 67.8398 141.346 67.9345C141.275 67.9764 141.217 68.0375 141.149 68.0828C141.078 68.1292 141.029 68.0856 140.962 68.0475C140.8 67.9555 140.591 67.9502 140.419 67.9789C140.226 68.0111 140.039 68.1048 139.877 68.2325C139.72 68.3567 139.579 68.5225 139.491 68.7271C139.452 68.8182 139.42 68.9179 139.409 69.0207C139.404 69.0628 139.407 69.086 139.377 69.1101C139.35 69.1324 139.315 69.1437 139.287 69.1657C139.015 69.3778 138.821 69.7281 138.761 70.1184C138.726 70.3462 138.769 70.7144 138.871 71.1103C138.973 71.5061 139.521 72.4509 139.897 72.7403C140.232 72.9987 140.663 73.1038 141.051 73.0872C140.882 73.487 140.813 73.9423 140.788 74.3913C140.761 74.879 140.787 75.3687 140.866 75.8513C140.941 76.3098 141.047 76.7861 141.238 77.1979C141.417 77.583 141.675 77.864 142.026 77.9837C142.187 78.0386 142.353 78.0657 142.518 78.0862C142.68 78.1065 142.843 78.1247 143.006 78.1136C143.314 78.0926 143.648 77.975 143.811 77.6331C143.87 77.5099 143.931 77.359 143.962 77.2209C143.974 77.1713 143.98 77.1392 143.945 77.1052C143.902 77.0646 143.843 77.0418 143.794 77.0149C143.516 76.8615 143.307 76.6058 143.19 76.2608C143.071 75.9108 143.047 75.4184 143.312 75.1665C143.639 74.8555 144.1 74.9507 144.478 75.0555C144.486 74.4335 144.654 73.8228 145.045 73.4161C145.478 72.9662 146.044 72.7522 146.5 72.3397C146.619 72.2321 146.738 72.115 146.806 71.9505C146.834 71.8817 146.866 71.7942 146.865 71.7151C146.865 71.6113 146.793 71.5468 146.734 71.4841C146.422 71.1518 145.403 70.6023 144.934 70.5838Z" fill="#191847"/>
<path fill-rule="evenodd" clip-rule="evenodd" d="M144.516 96.2334L149.477 116.55L153.097 131.524H155.737L151.891 96.2334H144.516Z" fill="#191847"/>
<path fill-rule="evenodd" clip-rule="evenodd" d="M143.189 96.2334C143.074 106.705 142.683 112.416 142.563 113.367C142.442 114.319 140.62 120.371 137.097 131.524H139.832C144.317 120.824 146.821 114.772 147.344 113.367C147.866 111.962 149.478 106.251 151.906 96.2334H143.189Z" fill="#2F3676"/>
<path fill-rule="evenodd" clip-rule="evenodd" d="M136.853 134.398L136.99 131.045L139.863 131.045C141.907 132.721 145.2 133.759 145.2 133.759V134.398H140L138.221 134.079V134.398H136.853Z" fill="#191847"/>
<path fill-rule="evenodd" clip-rule="evenodd" d="M152.727 134.398L152.864 131.045L155.737 131.045C157.781 132.721 161.074 133.759 161.074 133.759V134.398H155.874L154.095 134.079V134.398H152.727Z" fill="#191847"/>
<path fill-rule="evenodd" clip-rule="evenodd" d="M135.096 104.838C135.469 103.873 136.994 94.1106 136.994 94.1106L139.442 94.0232C139.442 94.0232 137.066 104.546 136.873 105.164C136.623 105.968 137.123 107.101 137.461 107.868C137.514 107.987 137.562 108.097 137.604 108.196C137.173 108.443 136.954 108.175 136.724 107.893C136.463 107.574 136.188 107.236 135.574 107.601C135.337 107.742 135.113 107.906 134.895 108.066C134.14 108.62 133.447 109.129 132.464 108.475C132.309 108.372 132.129 107.965 132.523 107.625C133.506 106.779 134.914 105.31 135.096 104.838ZM160.353 95.2419L155.678 92.0558L154.967 94.942L159.452 96.4936C160.818 98.0107 161.56 98.6219 161.679 98.3271C161.779 98.0785 161.665 97.8715 161.559 97.6808C161.477 97.5323 161.401 97.3936 161.435 97.253C161.514 96.9318 162.334 96.8638 163.114 96.8381C163.894 96.8124 163.633 96.4383 163.428 96.2628C162.589 95.8082 161.564 95.4679 160.353 95.2419Z" fill="#B28B67"/>
<path fill-rule="evenodd" clip-rule="evenodd" d="M145.257 80.7L146.65 79.8244C149.539 85.2595 153.384 90.3015 159.105 94.051L158.244 96.7946C153.395 94.6799 148.882 93.1909 146.51 89.0068C145.714 87.6025 145.485 82.5282 145.257 80.7Z" fill="#C5CFD6"/>
<path fill-rule="evenodd" clip-rule="evenodd" d="M142.66 98.2069C142.66 98.2069 149.134 97.6835 152.665 96.1451C152.956 96.0181 152.915 95.4194 152.715 95.0485C149.599 89.2733 147.287 84.1504 146.635 79.8275C146.089 80.3034 144.554 80.3653 144.554 80.3653C142.542 85.3732 142.08 90.7389 142.66 98.2069Z" fill="#323337"/>
<path fill-rule="evenodd" clip-rule="evenodd" d="M143.729 80.1504C143.79 80.0816 143.822 80.047 143.822 80.047L143.831 80.1294L144.949 79.8989C145.063 80.273 145.361 81.6856 145.796 83.7453C147.375 91.2301 150.757 107.261 153.682 113.059L139.962 115.887C139.186 108.769 140.143 99.8682 141.372 92.2248C139.966 94.5553 138.475 98.2833 137.7 104.138L135.014 103.898C135.646 90.1891 142.294 81.8163 143.6 80.2974C143.609 80.2552 143.617 80.2133 143.626 80.1715L143.729 80.1504Z" fill="#DDE3E9"/>
<path fill-rule="evenodd" clip-rule="evenodd" d="M162.6 78.1413C163.291 78.9801 164.037 79.5144 164.443 79.519C165.463 79.5304 166.485 75.4823 166.115 73.6445C165.746 71.8067 162.113 69.9185 161.192 73.042C160.873 74.1261 161.044 75.2365 161.446 76.2248L159.081 81.6239L162.136 82.581L162.6 78.1413Z" fill="#D4A181"/>
<path fill-rule="evenodd" clip-rule="evenodd" d="M166.825 72.2509C166.643 73.0455 165.961 73.5275 165.28 73.3591C164.864 73.3773 164.348 73.3244 163.791 73.196C163.79 73.446 163.758 73.7201 163.69 74.0196C163.629 74.2842 163.54 74.5569 163.428 74.8273C163.348 74.6254 163.214 74.4682 163.053 74.4177C162.602 74.2767 162.189 74.6114 162.084 75.071C161.95 75.6544 162.142 76.1666 162.555 76.3322C161.981 77.0633 161.31 77.5391 160.787 77.3751C159.792 77.0637 159.441 75.2888 159.824 73.6186C159.837 73.5599 159.852 73.502 159.867 73.4447C159.468 73.6092 159.075 73.8653 158.679 74.1233C157.838 74.6713 156.984 75.2277 156.038 74.9313C154.144 74.3382 154.415 69.64 157.061 70.4686C158.86 71.0322 159.675 71.6159 160.334 72.308C160.598 71.8597 160.923 71.515 161.27 71.3119C161.358 71.2441 161.481 71.1915 161.633 71.1546C161.726 71.1281 161.82 71.1121 161.914 71.1073C162.42 71.0538 163.118 71.1232 163.869 71.3259C164.01 71.3638 164.146 71.4049 164.279 71.4487C164.469 70.63 165.191 70.1448 165.892 70.3646C166.596 70.5848 167.013 71.4294 166.825 72.2509Z" fill="#191847"/>
<path fill-rule="evenodd" clip-rule="evenodd" d="M156.968 95.2373L166.763 114.369L174.107 130.543H175.689L163.384 95.2373L156.968 95.2373Z" fill="#BA8B72"/>
<path fill-rule="evenodd" clip-rule="evenodd" d="M174.308 129.901C173.713 129.901 173.038 130.004 172.942 130.59C172.927 130.679 172.919 130.76 172.919 130.828C172.919 131.245 173.038 132.044 173.038 132.044C173.451 132.044 180.472 132.044 180.472 132.044C180.472 132.044 180.762 130.925 180.138 130.835C179.513 130.746 179.1 130.674 179.1 130.674L176.251 129.19C175.865 128.989 175.392 129.176 175.247 129.586C175.247 129.586 174.669 129.901 174.308 129.901Z" fill="#E4E4E4"/>
<path fill-rule="evenodd" clip-rule="evenodd" d="M172.068 127.953L175.118 126.875C175.118 126.875 173.113 119.873 170.204 111.465C167.295 103.057 163.955 95.2373 163.955 95.2373H155.34C155.34 95.2373 159.053 105.129 163.212 113.213C167.372 121.298 172.068 127.953 172.068 127.953Z" fill="#DB2721"/>
<path fill-rule="evenodd" clip-rule="evenodd" d="M156.325 95.2373C155.4 101.96 153.617 110.549 153.449 110.815C153.337 110.991 149.298 112.572 141.333 115.558L141.675 117.187C151.173 115.586 156.178 114.344 156.689 113.461C157.456 112.136 161.285 101.669 162.768 95.2373H156.325Z" fill="#D4A181"/>
<path fill-rule="evenodd" clip-rule="evenodd" d="M144.133 114.149L144.735 116.773C151.839 117.501 156.192 116.975 157.793 115.196C159.395 113.416 161.22 106.763 163.269 95.2373H155.054C153.756 104.675 153.03 109.592 152.877 109.988C152.723 110.385 149.809 111.772 144.133 114.149Z" fill="#FF4133"/>
<path fill-rule="evenodd" clip-rule="evenodd" d="M141.83 116.174C141.779 115.491 141.483 114.666 140.815 114.803C140.463 114.876 139.81 115.151 139.81 115.151C139.882 115.627 141.101 123.705 141.101 123.705C141.101 123.705 142.095 123.844 142.062 123.111C142.029 122.377 142.018 121.889 142.018 121.889L142.81 118.183C142.899 117.768 142.662 117.368 142.266 117.267C142.266 117.267 141.9 116.656 141.837 116.24C141.834 116.219 141.832 116.197 141.83 116.174Z" fill="#E4E4E4"/>
<path fill-rule="evenodd" clip-rule="evenodd" d="M145.047 97.4497C145.69 96.7466 150.17 88.715 150.17 88.715L152.409 89.6425C152.409 89.6425 146.919 97.9989 146.548 98.4685C146.067 99.0785 146.158 100.288 146.22 101.108C146.23 101.235 146.239 101.353 146.245 101.457C145.777 101.499 145.664 101.172 145.546 100.827C145.412 100.437 145.271 100.025 144.6 100.096C144.341 100.123 144.087 100.177 143.839 100.229C142.981 100.411 142.194 100.578 141.513 99.5948C141.406 99.439 141.373 99.0046 141.837 98.8652C142.993 98.5178 144.732 97.7934 145.047 97.4497ZM172.222 98.4043L168.605 94.0926L167.266 96.5203L171.089 99.2802C172.008 101.076 172.557 101.857 172.737 101.623C172.889 101.425 172.831 101.202 172.777 100.996C172.735 100.835 172.696 100.686 172.761 100.567C172.91 100.297 173.691 100.48 174.425 100.69C175.159 100.899 175.002 100.479 174.853 100.257C174.176 99.5905 173.299 98.9728 172.222 98.4043Z" fill="#D4A181"/>
<path fill-rule="evenodd" clip-rule="evenodd" d="M163.03 79.8705L161.541 80.2496C161.492 80.6762 161.399 81.2786 161.294 81.9687C160.961 84.1347 160.497 87.1651 160.814 88.3399C161.912 92.4099 165.028 95.0543 168.498 97.9996C168.964 98.3944 169.435 98.7946 169.909 99.2043L171.33 96.9281C171.224 96.8028 171.119 96.6771 171.015 96.551C171.189 96.5178 171.349 96.3942 171.44 96.1989C171.597 95.863 171.491 95.442 171.204 95.2586C170.619 94.8859 170.055 94.6633 169.515 94.5983C166.203 89.9664 164.26 84.9429 163.03 79.8705Z" fill="#69A1AC"/>
<path fill-rule="evenodd" clip-rule="evenodd" d="M154.205 95.545C154.205 95.545 160.208 97.5923 163.842 97.5311C164.142 97.526 164.35 96.0611 164.275 95.634C163.117 88.9829 162.424 84.146 163.076 79.8264C162.446 80.0596 161.04 79.5157 161.04 79.5157C157.783 83.4344 155.824 88.297 154.205 95.545Z" fill="#191847"/>
<path fill-rule="evenodd" clip-rule="evenodd" d="M146.429 94.0202C151.854 82.7176 160.053 78.9373 160.053 78.9373L160.754 79.0818L160.754 79.0818L161.53 79.2416C160.973 81.7908 161.191 85.7125 161.445 90.2619C161.85 97.5378 162.345 106.419 159.9 113.859C158.261 113.946 156.45 113.283 154.49 112.565C151.66 111.53 148.52 110.38 145.134 111.204C145.721 108.143 147.779 105.044 149.828 101.96C151.124 100.009 152.416 98.0629 153.33 96.1358C153.21 95.97 153.165 95.7533 153.227 95.5553L153.414 94.9543C153.494 94.6977 153.729 94.552 153.98 94.5792C154.057 94.3618 154.129 94.1447 154.193 93.9279C154.525 92.8142 154.594 91.6604 154.663 90.5196C154.701 89.8933 154.739 89.2708 154.819 88.6611C152.808 90.1123 150.227 92.8336 147.626 97.9363L145.301 96.5882C145.456 96.2006 145.615 95.8206 145.777 95.4481C145.521 95.2068 145.317 94.2702 145.578 94.1748C145.853 94.074 146.137 94.0229 146.429 94.0202Z" fill="#89C5CC"/>
<path fill-rule="evenodd" clip-rule="evenodd" d="M160.566 79.1994L159.534 81.4675L160.61 83.5493L159.177 84.7156L161.236 91.2223L158.518 84.592L159.931 83.4094L158.974 81.5686L160.566 79.1994Z" fill="black" fill-opacity="0.1"/>
<path fill-rule="evenodd" clip-rule="evenodd" d="M160.028 93.319C160.315 93.3781 160.589 93.1544 160.639 92.8193C160.69 92.4843 160.498 92.1648 160.211 92.1057C159.925 92.0466 159.651 92.2703 159.601 92.6053C159.55 92.9404 159.742 93.2599 160.028 93.319ZM160.151 96.941C160.438 97.0001 160.711 96.7764 160.762 96.4414C160.813 96.1063 160.621 95.7868 160.334 95.7277C160.047 95.6686 159.774 95.8923 159.723 96.2273C159.673 96.5624 159.864 96.8819 160.151 96.941ZM160.366 99.9564C160.315 100.291 160.042 100.515 159.755 100.456C159.468 100.397 159.276 100.077 159.327 99.7423C159.378 99.4073 159.651 99.1836 159.938 99.2427C160.225 99.3018 160.416 99.6213 160.366 99.9564Z" fill="black" fill-opacity="0.4"/>
</g>
<defs>
<clipPath id="clip0">
<rect width="326" height="522" rx="10" fill="white"/>
</clipPath>
</defs>
</svg>
