<svg width="326" height="522" viewBox="0 0 326 522" fill="none" xmlns="http://www.w3.org/2000/svg">
<title>Results</title>
<rect width="326" height="522" rx="10" fill="white"/>
<path d="M70.775 56H74.625L70.825 48.75C73.15 48.075 74.6 46.2 74.6 43.725C74.6 40.65 72.4 38.275 68.95 38.275H62.025V56H65.5V49.175H67.3L70.775 56ZM65.5 46.2V41.275H68.3C70.05 41.275 71.075 42.25 71.075 43.75C71.075 45.2 70.05 46.2 68.3 46.2H65.5ZM80.2332 48.45C80.3082 47.325 81.2582 46.025 82.9832 46.025C84.8832 46.025 85.6832 47.225 85.7332 48.45H80.2332ZM86.0582 51.65C85.6582 52.75 84.8082 53.525 83.2582 53.525C81.6082 53.525 80.2332 52.35 80.1582 50.725H88.9582C88.9582 50.675 89.0082 50.175 89.0082 49.7C89.0082 45.75 86.7332 43.325 82.9332 43.325C79.7832 43.325 76.8832 45.875 76.8832 49.8C76.8832 53.95 79.8582 56.375 83.2332 56.375C86.2582 56.375 88.2082 54.6 88.8332 52.475L86.0582 51.65ZM91.3266 52.575C91.4766 53.975 92.7516 56.375 96.4516 56.375C99.6766 56.375 101.227 54.325 101.227 52.325C101.227 50.525 100.002 49.05 97.5766 48.55L95.8266 48.175C95.1516 48.05 94.7016 47.675 94.7016 47.075C94.7016 46.375 95.4016 45.85 96.2766 45.85C97.6766 45.85 98.2016 46.775 98.3016 47.5L101.077 46.875C100.927 45.55 99.7516 43.325 96.2516 43.325C93.6016 43.325 91.6516 45.15 91.6516 47.35C91.6516 49.075 92.7266 50.5 95.1016 51.025L96.7266 51.4C97.6766 51.6 98.0516 52.05 98.0516 52.6C98.0516 53.25 97.5266 53.825 96.4266 53.825C94.9766 53.825 94.2516 52.925 94.1766 51.95L91.3266 52.575ZM112.602 56H115.777C115.727 55.575 115.652 54.725 115.652 53.775V43.7H112.327V50.85C112.327 52.275 111.477 53.275 110.002 53.275C108.452 53.275 107.752 52.175 107.752 50.8V43.7H104.427V51.475C104.427 54.15 106.127 56.325 109.102 56.325C110.402 56.325 111.827 55.825 112.502 54.675C112.502 55.175 112.552 55.75 112.602 56ZM123.276 56V37.9H119.951V56H123.276ZM131.686 40.025H128.686V41.75C128.686 42.85 128.086 43.7 126.786 43.7H126.161V46.65H128.386V52.375C128.386 54.75 129.886 56.175 132.286 56.175C133.261 56.175 133.861 56 134.161 55.875V53.125C133.986 53.175 133.536 53.225 133.136 53.225C132.186 53.225 131.686 52.875 131.686 51.8V46.65H134.161V43.7H131.686V40.025ZM136.954 52.575C137.104 53.975 138.379 56.375 142.079 56.375C145.304 56.375 146.854 54.325 146.854 52.325C146.854 50.525 145.629 49.05 143.204 48.55L141.454 48.175C140.779 48.05 140.329 47.675 140.329 47.075C140.329 46.375 141.029 45.85 141.904 45.85C143.304 45.85 143.829 46.775 143.929 47.5L146.704 46.875C146.554 45.55 145.379 43.325 141.879 43.325C139.229 43.325 137.279 45.15 137.279 47.35C137.279 49.075 138.354 50.5 140.729 51.025L142.354 51.4C143.304 51.6 143.679 52.05 143.679 52.6C143.679 53.25 143.154 53.825 142.054 53.825C140.604 53.825 139.879 52.925 139.804 51.95L136.954 52.575Z" fill="black"/>
<rect y="204" width="326" height="2" fill="#9BC4EB" fill-opacity="0.8"/>
<path d="M124.133 135V120.111H122.075V131.535L114.641 120.111H111.89V135H113.948V122.862L121.991 135H124.133ZM127.384 132.291C127.384 133.887 128.707 135.315 130.765 135.315C132.571 135.315 133.579 134.349 134.02 133.635C134.02 134.37 134.083 134.748 134.125 135H136.057C136.015 134.748 135.931 134.223 135.931 133.341V128.28C135.931 126.306 134.755 124.584 131.731 124.584C129.547 124.584 127.804 125.928 127.594 127.86L129.484 128.301C129.61 127.125 130.387 126.264 131.773 126.264C133.306 126.264 133.957 127.083 133.957 128.07C133.957 128.427 133.789 128.742 133.18 128.826L130.45 129.225C128.707 129.477 127.384 130.485 127.384 132.291ZM131.038 133.656C130.03 133.656 129.4 132.942 129.4 132.186C129.4 131.283 130.03 130.8 130.87 130.674L133.957 130.212V130.674C133.957 132.879 132.655 133.656 131.038 133.656ZM142.072 121.707H140.266V123.345C140.266 124.227 139.804 124.899 138.712 124.899H138.166V126.684H140.098V132.228C140.098 134.055 141.19 135.105 142.912 135.105C143.584 135.105 144.088 134.979 144.256 134.916V133.236C144.088 133.278 143.731 133.32 143.479 133.32C142.45 133.32 142.072 132.858 142.072 131.934V126.684H144.256V124.899H142.072V121.707ZM146.681 132.291C146.681 133.887 148.004 135.315 150.062 135.315C151.868 135.315 152.876 134.349 153.317 133.635C153.317 134.37 153.38 134.748 153.422 135H155.354C155.312 134.748 155.228 134.223 155.228 133.341V128.28C155.228 126.306 154.052 124.584 151.028 124.584C148.844 124.584 147.101 125.928 146.891 127.86L148.781 128.301C148.907 127.125 149.684 126.264 151.07 126.264C152.603 126.264 153.254 127.083 153.254 128.07C153.254 128.427 153.086 128.742 152.477 128.826L149.747 129.225C148.004 129.477 146.681 130.485 146.681 132.291ZM150.335 133.656C149.327 133.656 148.697 132.942 148.697 132.186C148.697 131.283 149.327 130.8 150.167 130.674L153.254 130.212V130.674C153.254 132.879 151.952 133.656 150.335 133.656ZM160.697 135V119.796H158.723V135H160.697ZM166.428 135V124.899H164.475V135H166.428ZM164.034 121.077C164.034 121.854 164.664 122.484 165.441 122.484C166.239 122.484 166.869 121.854 166.869 121.077C166.869 120.279 166.239 119.649 165.441 119.649C164.664 119.649 164.034 120.279 164.034 121.077ZM171.488 128.91C171.572 127.608 172.58 126.327 174.239 126.327C176.024 126.327 176.969 127.461 177.011 128.91H171.488ZM177.305 131.535C176.927 132.669 176.108 133.572 174.47 133.572C172.769 133.572 171.467 132.312 171.425 130.506H179.027C179.048 130.38 179.069 130.128 179.069 129.876C179.069 126.726 177.326 124.584 174.218 124.584C171.677 124.584 169.388 126.747 169.388 129.918C169.388 133.341 171.761 135.315 174.47 135.315C176.822 135.315 178.439 133.908 179.006 132.123L177.305 131.535ZM189.947 127.062V121.959H192.929C194.714 121.959 195.806 122.967 195.806 124.542C195.806 126.075 194.714 127.062 192.929 127.062H189.947ZM193.307 128.91C196.058 128.91 197.906 127.041 197.906 124.521C197.906 122.022 196.058 120.111 193.307 120.111H187.889V135H189.947V128.91H193.307ZM197.896 133.656C197.896 134.475 198.526 135.105 199.345 135.105C200.164 135.105 200.815 134.475 200.815 133.656C200.815 132.837 200.164 132.186 199.345 132.186C198.526 132.186 197.896 132.837 197.896 133.656Z" fill="black"/>
<rect x="113" y="144" width="12" height="12" rx="3" fill="#9BC4EB" fill-opacity="0.8"/>
<rect x="126" y="144" width="12" height="12" rx="3" fill="#9BC4EB" fill-opacity="0.8"/>
<rect x="139" y="144" width="12" height="12" rx="3" fill="#9BC4EB" fill-opacity="0.8"/>
<rect x="152" y="144" width="12" height="12" rx="3" fill="#9BC4EB" fill-opacity="0.8"/>
<rect x="165" y="144" width="12" height="12" rx="3" fill="#C4C4C4" fill-opacity="0.5"/>
<path d="M252.19 144.06C252.29 144.01 252.49 143.95 252.8 143.95C253.35 143.95 253.95 144.27 253.95 145.02C253.95 145.61 253.51 146.12 252.72 146.12C252 146.12 251.46 145.61 251.43 144.86L250.26 145.1C250.34 146.18 251.23 147.15 252.73 147.15C254.27 147.15 255.16 146.14 255.16 145.03C255.16 143.78 254.19 143.08 253.22 143.06L254.98 141.52V140.52H250.48V141.57H253.43L251.64 143.17L252.19 144.06ZM259.888 147V144.11C259.888 143.49 260.278 143.03 260.898 143.03C261.558 143.03 261.838 143.47 261.838 144.03V147H262.978V144.11C262.978 143.51 263.378 143.03 263.988 143.03C264.638 143.03 264.928 143.46 264.928 144.03V147H266.048V143.84C266.048 142.55 265.208 141.99 264.328 141.99C263.698 141.99 263.128 142.21 262.748 142.85C262.488 142.28 261.928 141.99 261.288 141.99C260.738 141.99 260.128 142.25 259.848 142.75V142.13H258.738V147H259.888ZM268.619 147V142.13H267.469V147H268.619ZM267.289 140.42C267.289 140.84 267.629 141.17 268.039 141.17C268.459 141.17 268.799 140.84 268.799 140.42C268.799 140 268.459 139.66 268.039 139.66C267.629 139.66 267.289 140 267.289 140.42ZM271.275 144.19C271.275 143.55 271.625 143.04 272.285 143.04C273.015 143.04 273.285 143.52 273.285 144.12V147H274.445V143.92C274.445 142.85 273.875 141.99 272.685 141.99C272.145 141.99 271.565 142.22 271.245 142.78V142.13H270.115V147H271.275V144.19ZM275.427 145.68C275.487 146.23 276.027 147.15 277.437 147.15C278.677 147.15 279.277 146.33 279.277 145.59C279.277 144.87 278.797 144.31 277.877 144.11L277.137 143.96C276.837 143.9 276.647 143.71 276.647 143.45C276.647 143.15 276.937 142.89 277.347 142.89C277.997 142.89 278.207 143.34 278.247 143.62L279.227 143.34C279.147 142.86 278.707 141.98 277.347 141.98C276.337 141.98 275.557 142.7 275.557 143.55C275.557 144.22 276.007 144.78 276.867 144.97L277.587 145.13C277.977 145.21 278.157 145.41 278.157 145.67C278.157 145.97 277.907 146.23 277.427 146.23C276.807 146.23 276.477 145.84 276.437 145.4L275.427 145.68Z" fill="#9D9999"/>
<path d="M251.64 127.76C251.64 126.94 251.78 126.31 252.1 125.91C252.32 125.62 252.63 125.43 253.1 125.43C253.57 125.43 253.87 125.62 254.1 125.91C254.41 126.31 254.55 126.94 254.55 127.76C254.55 128.58 254.41 129.21 254.1 129.61C253.87 129.9 253.57 130.09 253.1 130.09C252.63 130.09 252.32 129.9 252.1 129.61C251.79 129.21 251.64 128.58 251.64 127.76ZM250.45 127.76C250.45 128.62 250.59 129.43 251.03 130.09C251.45 130.72 252.13 131.15 253.1 131.15C254.07 131.15 254.74 130.72 255.16 130.09C255.6 129.43 255.74 128.62 255.74 127.76C255.74 126.9 255.6 126.09 255.16 125.43C254.74 124.8 254.07 124.37 253.1 124.37C252.13 124.37 251.45 124.8 251.03 125.43C250.59 126.09 250.45 126.9 250.45 127.76ZM256.461 130.25C256.461 130.7 256.821 131.06 257.271 131.06C257.721 131.06 258.091 130.7 258.091 130.25C258.091 129.8 257.721 129.43 257.271 129.43C256.821 129.43 256.461 129.8 256.461 130.25ZM260.33 126.95C260.32 126.84 260.3 126.72 260.3 126.62C260.3 125.95 260.67 125.42 261.43 125.42C262.16 125.42 262.52 125.9 262.52 126.43C262.52 126.9 262.27 127.29 261.69 127.65L260.62 128.32C259.49 129.02 259.1 129.89 259.08 131H263.77V129.94H260.56C260.65 129.62 260.91 129.39 261.22 129.2L262.48 128.42C263.26 127.94 263.73 127.25 263.73 126.41C263.73 125.3 262.88 124.37 261.45 124.37C259.98 124.37 259.14 125.38 259.14 126.5C259.14 126.63 259.16 126.78 259.17 126.87L260.33 126.95ZM268.502 131V128.11C268.502 127.49 268.892 127.03 269.512 127.03C270.172 127.03 270.452 127.47 270.452 128.03V131H271.592V128.11C271.592 127.51 271.992 127.03 272.602 127.03C273.252 127.03 273.542 127.46 273.542 128.03V131H274.662V127.84C274.662 126.55 273.822 125.99 272.942 125.99C272.312 125.99 271.742 126.21 271.362 126.85C271.102 126.28 270.542 125.99 269.902 125.99C269.352 125.99 268.742 126.25 268.462 126.75V126.13H267.352V131H268.502ZM277.232 131V126.13H276.082V131H277.232ZM275.902 124.42C275.902 124.84 276.242 125.17 276.652 125.17C277.072 125.17 277.412 124.84 277.412 124.42C277.412 124 277.072 123.66 276.652 123.66C276.242 123.66 275.902 124 275.902 124.42Z" fill="#646464"/>
<rect y="306" width="326" height="2" fill="#9BC4EB" fill-opacity="0.8"/>
<circle cx="53" cy="251" r="30" fill="#D0C9FB"/>
<path d="M110.42 232.569C110.42 235.425 112.142 237.315 115.061 237.315C117.833 237.315 119.534 235.152 119.534 232.548V222.111H117.476V232.695C117.476 234.417 116.552 235.404 115.04 235.404C113.549 235.404 112.478 234.522 112.478 232.548V231.141L110.42 231.603V232.569ZM122.688 234.291C122.688 235.887 124.011 237.315 126.069 237.315C127.875 237.315 128.883 236.349 129.324 235.635C129.324 236.37 129.387 236.748 129.429 237H131.361C131.319 236.748 131.235 236.223 131.235 235.341V230.28C131.235 228.306 130.059 226.584 127.035 226.584C124.851 226.584 123.108 227.928 122.898 229.86L124.788 230.301C124.914 229.125 125.691 228.264 127.077 228.264C128.61 228.264 129.261 229.083 129.261 230.07C129.261 230.427 129.093 230.742 128.484 230.826L125.754 231.225C124.011 231.477 122.688 232.485 122.688 234.291ZM126.342 235.656C125.334 235.656 124.704 234.942 124.704 234.186C124.704 233.283 125.334 232.8 126.174 232.674L129.261 232.212V232.674C129.261 234.879 127.959 235.656 126.342 235.656ZM143.781 226.899H141.051L136.683 231.372V221.796H134.73V237H136.683V233.955L138.09 232.548L141.387 237H143.865L139.476 231.162L143.781 226.899ZM146.931 230.91C147.015 229.608 148.023 228.327 149.682 228.327C151.467 228.327 152.412 229.461 152.454 230.91H146.931ZM152.748 233.535C152.37 234.669 151.551 235.572 149.913 235.572C148.212 235.572 146.91 234.312 146.868 232.506H154.47C154.491 232.38 154.512 232.128 154.512 231.876C154.512 228.726 152.769 226.584 149.661 226.584C147.12 226.584 144.831 228.747 144.831 231.918C144.831 235.341 147.204 237.315 149.913 237.315C152.265 237.315 153.882 235.908 154.449 234.123L152.748 233.535ZM179.418 237V222.111H176.667L171.375 234.228L166.125 222.111H163.332V237H165.369V225.408L170.409 237H172.299L177.381 225.408V237H179.418ZM183.204 235.656C183.204 236.475 183.834 237.105 184.653 237.105C185.472 237.105 186.123 236.475 186.123 235.656C186.123 234.837 185.472 234.186 184.653 234.186C183.834 234.186 183.204 234.837 183.204 235.656Z" fill="black"/>
<rect x="113" y="246" width="12" height="12" rx="3" fill="#9BC4EB" fill-opacity="0.6"/>
<rect x="126" y="246" width="12" height="12" rx="3" fill="#9BC4EB" fill-opacity="0.6"/>
<rect x="139" y="246" width="12" height="12" rx="3" fill="#9BC4EB" fill-opacity="0.6"/>
<rect x="152" y="246" width="12" height="12" rx="3" fill="#9BC4EB" fill-opacity="0.6"/>
<rect x="165" y="246" width="12" height="12" rx="3" fill="#C4C4C4" fill-opacity="0.5"/>
<path d="M251.58 244.95C251.57 244.84 251.55 244.72 251.55 244.62C251.55 243.95 251.92 243.42 252.68 243.42C253.41 243.42 253.77 243.9 253.77 244.43C253.77 244.9 253.52 245.29 252.94 245.65L251.87 246.32C250.74 247.02 250.35 247.89 250.33 249H255.02V247.94H251.81C251.9 247.62 252.16 247.39 252.47 247.2L253.73 246.42C254.51 245.94 254.98 245.25 254.98 244.41C254.98 243.3 254.13 242.37 252.7 242.37C251.23 242.37 250.39 243.38 250.39 244.5C250.39 244.63 250.41 244.78 250.42 244.87L251.58 244.95ZM259.752 249V246.11C259.752 245.49 260.142 245.03 260.762 245.03C261.422 245.03 261.702 245.47 261.702 246.03V249H262.842V246.11C262.842 245.51 263.242 245.03 263.852 245.03C264.502 245.03 264.792 245.46 264.792 246.03V249H265.912V245.84C265.912 244.55 265.072 243.99 264.192 243.99C263.562 243.99 262.992 244.21 262.612 244.85C262.352 244.28 261.792 243.99 261.152 243.99C260.602 243.99 259.992 244.25 259.712 244.75V244.13H258.602V249H259.752ZM268.482 249V244.13H267.332V249H268.482ZM267.152 242.42C267.152 242.84 267.492 243.17 267.902 243.17C268.322 243.17 268.662 242.84 268.662 242.42C268.662 242 268.322 241.66 267.902 241.66C267.492 241.66 267.152 242 267.152 242.42ZM271.139 246.19C271.139 245.55 271.489 245.04 272.149 245.04C272.879 245.04 273.149 245.52 273.149 246.12V249H274.309V245.92C274.309 244.85 273.739 243.99 272.549 243.99C272.009 243.99 271.429 244.22 271.109 244.78V244.13H269.979V249H271.139V246.19ZM275.291 247.68C275.351 248.23 275.891 249.15 277.301 249.15C278.541 249.15 279.141 248.33 279.141 247.59C279.141 246.87 278.661 246.31 277.741 246.11L277.001 245.96C276.701 245.9 276.511 245.71 276.511 245.45C276.511 245.15 276.801 244.89 277.211 244.89C277.861 244.89 278.071 245.34 278.111 245.62L279.091 245.34C279.011 244.86 278.571 243.98 277.211 243.98C276.201 243.98 275.421 244.7 275.421 245.55C275.421 246.22 275.871 246.78 276.731 246.97L277.451 247.13C277.841 247.21 278.021 247.41 278.021 247.67C278.021 247.97 277.771 248.23 277.291 248.23C276.671 248.23 276.341 247.84 276.301 247.4L275.291 247.68Z" fill="#9D9999"/>
<path d="M251.64 229.76C251.64 228.94 251.78 228.31 252.1 227.91C252.32 227.62 252.63 227.43 253.1 227.43C253.57 227.43 253.87 227.62 254.1 227.91C254.41 228.31 254.55 228.94 254.55 229.76C254.55 230.58 254.41 231.21 254.1 231.61C253.87 231.9 253.57 232.09 253.1 232.09C252.63 232.09 252.32 231.9 252.1 231.61C251.79 231.21 251.64 230.58 251.64 229.76ZM250.45 229.76C250.45 230.62 250.59 231.43 251.03 232.09C251.45 232.72 252.13 233.15 253.1 233.15C254.07 233.15 254.74 232.72 255.16 232.09C255.6 231.43 255.74 230.62 255.74 229.76C255.74 228.9 255.6 228.09 255.16 227.43C254.74 226.8 254.07 226.37 253.1 226.37C252.13 226.37 251.45 226.8 251.03 227.43C250.59 228.09 250.45 228.9 250.45 229.76ZM256.461 232.25C256.461 232.7 256.821 233.06 257.271 233.06C257.721 233.06 258.091 232.7 258.091 232.25C258.091 231.8 257.721 231.43 257.271 231.43C256.821 231.43 256.461 231.8 256.461 232.25ZM261.009 233V226.52H259.969C259.829 227.2 259.189 227.72 258.259 227.74V228.56H259.829V233H261.009ZM266.119 233V230.11C266.119 229.49 266.509 229.03 267.129 229.03C267.789 229.03 268.069 229.47 268.069 230.03V233H269.209V230.11C269.209 229.51 269.609 229.03 270.219 229.03C270.869 229.03 271.159 229.46 271.159 230.03V233H272.279V229.84C272.279 228.55 271.439 227.99 270.559 227.99C269.929 227.99 269.359 228.21 268.979 228.85C268.719 228.28 268.159 227.99 267.519 227.99C266.969 227.99 266.359 228.25 266.079 228.75V228.13H264.969V233H266.119ZM274.849 233V228.13H273.699V233H274.849ZM273.519 226.42C273.519 226.84 273.859 227.17 274.269 227.17C274.689 227.17 275.029 226.84 275.029 226.42C275.029 226 274.689 225.66 274.269 225.66C273.859 225.66 273.519 226 273.519 226.42Z" fill="#646464"/>
<rect y="410" width="326" height="2" fill="#9BC4EB" fill-opacity="0.8"/>
<path d="M114.948 334.062V328.959H117.93C119.715 328.959 120.807 329.967 120.807 331.542C120.807 333.075 119.715 334.062 117.93 334.062H114.948ZM118.308 335.91C121.059 335.91 122.907 334.041 122.907 331.521C122.907 329.022 121.059 327.111 118.308 327.111H112.89V342H114.948V335.91H118.308ZM130.93 331.794C130.825 331.773 130.552 331.731 130.279 331.731C129.25 331.731 127.99 332.109 127.255 333.663V331.899H125.323V342H127.297V336.939C127.297 334.713 128.41 333.831 130.069 333.831C130.342 333.831 130.636 333.852 130.93 333.894V331.794ZM135.407 342V331.899H133.454V342H135.407ZM133.013 328.077C133.013 328.854 133.643 329.484 134.42 329.484C135.218 329.484 135.848 328.854 135.848 328.077C135.848 327.279 135.218 326.649 134.42 326.649C133.643 326.649 133.013 327.279 133.013 328.077ZM141.705 346.221L148.278 331.899H146.157L143.133 338.871L139.983 331.899H137.715L142.062 340.887L139.542 346.221H141.705ZM149.66 339.291C149.66 340.887 150.983 342.315 153.041 342.315C154.847 342.315 155.855 341.349 156.296 340.635C156.296 341.37 156.359 341.748 156.401 342H158.333C158.291 341.748 158.207 341.223 158.207 340.341V335.28C158.207 333.306 157.031 331.584 154.007 331.584C151.823 331.584 150.08 332.928 149.87 334.86L151.76 335.301C151.886 334.125 152.663 333.264 154.049 333.264C155.582 333.264 156.233 334.083 156.233 335.07C156.233 335.427 156.065 335.742 155.456 335.826L152.726 336.225C150.983 336.477 149.66 337.485 149.66 339.291ZM153.314 340.656C152.306 340.656 151.676 339.942 151.676 339.186C151.676 338.283 152.306 337.8 153.146 337.674L156.233 337.212V337.674C156.233 339.879 154.931 340.656 153.314 340.656ZM160.452 328.224C160.452 329.064 161.04 329.568 161.775 329.568C161.985 329.568 162.132 329.505 162.195 329.463C162.174 330.408 161.523 331.374 160.578 331.584V332.592C161.796 332.445 163.476 331.374 163.476 328.77C163.476 327.552 162.72 326.922 161.88 326.922C161.061 326.922 160.452 327.531 160.452 328.224ZM164.315 339.375C164.483 340.53 165.659 342.315 168.431 342.315C170.93 342.315 172.127 340.614 172.127 339.186C172.127 337.695 171.161 336.582 169.334 336.183L167.696 335.826C166.919 335.658 166.541 335.217 166.541 334.608C166.541 333.915 167.213 333.264 168.221 333.264C169.817 333.264 170.237 334.419 170.321 334.944L172.064 334.293C171.854 333.39 170.993 331.584 168.221 331.584C166.247 331.584 164.63 333.054 164.63 334.776C164.63 336.204 165.575 337.275 167.15 337.611L168.872 337.989C169.712 338.178 170.174 338.661 170.174 339.291C170.174 340.005 169.565 340.635 168.452 340.635C167.024 340.635 166.226 339.795 166.1 338.745L164.315 339.375ZM183.113 334.062V328.959H186.095C187.88 328.959 188.972 329.967 188.972 331.542C188.972 333.075 187.88 334.062 186.095 334.062H183.113ZM186.473 335.91C189.224 335.91 191.072 334.041 191.072 331.521C191.072 329.022 189.224 327.111 186.473 327.111H181.055V342H183.113V335.91H186.473ZM192.529 339.291C192.529 340.887 193.852 342.315 195.91 342.315C197.716 342.315 198.724 341.349 199.165 340.635C199.165 341.37 199.228 341.748 199.27 342H201.202C201.16 341.748 201.076 341.223 201.076 340.341V335.28C201.076 333.306 199.9 331.584 196.876 331.584C194.692 331.584 192.949 332.928 192.739 334.86L194.629 335.301C194.755 334.125 195.532 333.264 196.918 333.264C198.451 333.264 199.102 334.083 199.102 335.07C199.102 335.427 198.934 335.742 198.325 335.826L195.595 336.225C193.852 336.477 192.529 337.485 192.529 339.291ZM196.183 340.656C195.175 340.656 194.545 339.942 194.545 339.186C194.545 338.283 195.175 337.8 196.015 337.674L199.102 337.212V337.674C199.102 339.879 197.8 340.656 196.183 340.656ZM210.178 331.794C210.073 331.773 209.8 331.731 209.527 331.731C208.498 331.731 207.238 332.109 206.503 333.663V331.899H204.571V342H206.545V336.939C206.545 334.713 207.658 333.831 209.317 333.831C209.59 333.831 209.884 333.852 210.178 333.894V331.794ZM215.882 328.707H214.076V330.345C214.076 331.227 213.614 331.899 212.522 331.899H211.976V333.684H213.908V339.228C213.908 341.055 215 342.105 216.722 342.105C217.394 342.105 217.898 341.979 218.066 341.916V340.236C217.898 340.278 217.541 340.32 217.289 340.32C216.26 340.32 215.882 339.858 215.882 338.934V333.684H218.066V331.899H215.882V328.707ZM223.743 346.221L230.316 331.899H228.195L225.171 338.871L222.021 331.899H219.753L224.1 340.887L221.58 346.221H223.743Z" fill="black"/>
<path d="M114.88 371.22V368.79H116.3C117.15 368.79 117.67 369.27 117.67 370.02C117.67 370.75 117.15 371.22 116.3 371.22H114.88ZM116.48 372.1C117.79 372.1 118.67 371.21 118.67 370.01C118.67 368.82 117.79 367.91 116.48 367.91H113.9V375H114.88V372.1H116.48ZM122.49 370.14C122.44 370.13 122.31 370.11 122.18 370.11C121.69 370.11 121.09 370.29 120.74 371.03V370.19H119.82V375H120.76V372.59C120.76 371.53 121.29 371.11 122.08 371.11C122.21 371.11 122.35 371.12 122.49 371.14V370.14ZM124.622 375V370.19H123.692V375H124.622ZM123.482 368.37C123.482 368.74 123.782 369.04 124.152 369.04C124.532 369.04 124.832 368.74 124.832 368.37C124.832 367.99 124.532 367.69 124.152 367.69C123.782 367.69 123.482 367.99 123.482 368.37ZM127.621 377.01L130.751 370.19H129.741L128.301 373.51L126.801 370.19H125.721L127.791 374.47L126.591 377.01H127.621ZM131.409 373.71C131.409 374.47 132.039 375.15 133.019 375.15C133.879 375.15 134.359 374.69 134.569 374.35C134.569 374.7 134.599 374.88 134.619 375H135.539C135.519 374.88 135.479 374.63 135.479 374.21V371.8C135.479 370.86 134.919 370.04 133.479 370.04C132.439 370.04 131.609 370.68 131.509 371.6L132.409 371.81C132.469 371.25 132.839 370.84 133.499 370.84C134.229 370.84 134.539 371.23 134.539 371.7C134.539 371.87 134.459 372.02 134.169 372.06L132.869 372.25C132.039 372.37 131.409 372.85 131.409 373.71ZM133.149 374.36C132.669 374.36 132.369 374.02 132.369 373.66C132.369 373.23 132.669 373 133.069 372.94L134.539 372.72V372.94C134.539 373.99 133.919 374.36 133.149 374.36ZM143.614 375H144.754L143.064 372.03C144.134 371.83 144.784 371.04 144.784 370.02C144.784 368.85 143.954 367.91 142.614 367.91H139.944V375H140.934V372.1H141.994L143.614 375ZM140.934 371.22V368.79H142.434C143.234 368.79 143.774 369.27 143.774 370.02C143.774 370.75 143.234 371.22 142.434 371.22H140.934ZM146.086 374.36C146.086 374.75 146.386 375.05 146.776 375.05C147.166 375.05 147.476 374.75 147.476 374.36C147.476 373.97 147.166 373.66 146.776 373.66C146.386 373.66 146.086 373.97 146.086 374.36ZM161.826 375V374.08H158.476V367.91H157.496V375H161.826ZM166.05 374.42C166.05 374.62 166.07 374.89 166.09 375H166.99C166.97 374.83 166.94 374.49 166.94 374.11V370.19H166V373.09C166 373.82 165.62 374.32 164.86 374.32C164.07 374.32 163.77 373.74 163.77 373.08V370.19H162.83V373.22C162.83 374.31 163.51 375.15 164.63 375.15C165.19 375.15 165.79 374.92 166.05 374.42ZM170.715 370.91C171.535 370.91 171.885 371.46 172.005 371.93L172.855 371.57C172.655 370.84 171.995 370.04 170.715 370.04C169.345 370.04 168.295 371.09 168.295 372.59C168.295 374.05 169.325 375.15 170.725 375.15C171.975 375.15 172.665 374.34 172.895 373.65L172.065 373.29C171.955 373.67 171.625 374.28 170.725 374.28C169.945 374.28 169.255 373.69 169.255 372.59C169.255 371.47 169.955 370.91 170.715 370.91ZM173.849 373.71C173.849 374.47 174.479 375.15 175.459 375.15C176.319 375.15 176.799 374.69 177.009 374.35C177.009 374.7 177.039 374.88 177.059 375H177.979C177.959 374.88 177.919 374.63 177.919 374.21V371.8C177.919 370.86 177.359 370.04 175.919 370.04C174.879 370.04 174.049 370.68 173.949 371.6L174.849 371.81C174.909 371.25 175.279 370.84 175.939 370.84C176.669 370.84 176.979 371.23 176.979 371.7C176.979 371.87 176.899 372.02 176.609 372.06L175.309 372.25C174.479 372.37 173.849 372.85 173.849 373.71ZM175.589 374.36C175.109 374.36 174.809 374.02 174.809 373.66C174.809 373.23 175.109 373 175.509 372.94L176.979 372.72V372.94C176.979 373.99 176.359 374.36 175.589 374.36ZM179.133 373.75C179.213 374.3 179.773 375.15 181.093 375.15C182.283 375.15 182.853 374.34 182.853 373.66C182.853 372.95 182.393 372.42 181.523 372.23L180.743 372.06C180.373 371.98 180.193 371.77 180.193 371.48C180.193 371.15 180.513 370.84 180.993 370.84C181.753 370.84 181.953 371.39 181.993 371.64L182.823 371.33C182.723 370.9 182.313 370.04 180.993 370.04C180.053 370.04 179.283 370.74 179.283 371.56C179.283 372.24 179.733 372.75 180.483 372.91L181.303 373.09C181.703 373.18 181.923 373.41 181.923 373.71C181.923 374.05 181.633 374.35 181.103 374.35C180.423 374.35 180.043 373.95 179.983 373.45L179.133 373.75ZM191.435 375V374.08H188.085V367.91H187.105V375H191.435ZM192.681 374.36C192.681 374.75 192.981 375.05 193.371 375.05C193.761 375.05 194.071 374.75 194.071 374.36C194.071 373.97 193.761 373.66 193.371 373.66C192.981 373.66 192.681 373.97 192.681 374.36ZM118.29 387H119.53L116.54 383.07L119.49 379.91H118.2L114.88 383.56V379.91H113.9V387H114.88V384.86L115.89 383.78L118.29 387ZM120.233 385.71C120.233 386.47 120.863 387.15 121.843 387.15C122.703 387.15 123.183 386.69 123.393 386.35C123.393 386.7 123.423 386.88 123.443 387H124.363C124.343 386.88 124.303 386.63 124.303 386.21V383.8C124.303 382.86 123.743 382.04 122.303 382.04C121.263 382.04 120.433 382.68 120.333 383.6L121.233 383.81C121.293 383.25 121.663 382.84 122.323 382.84C123.053 382.84 123.363 383.23 123.363 383.7C123.363 383.87 123.283 384.02 122.993 384.06L121.693 384.25C120.863 384.37 120.233 384.85 120.233 385.71ZM121.973 386.36C121.493 386.36 121.193 386.02 121.193 385.66C121.193 385.23 121.493 385 121.893 384.94L123.363 384.72V384.94C123.363 385.99 122.743 386.36 121.973 386.36ZM127.228 380.67H126.368V381.45C126.368 381.87 126.148 382.19 125.628 382.19H125.368V383.04H126.288V385.68C126.288 386.55 126.808 387.05 127.628 387.05C127.948 387.05 128.188 386.99 128.268 386.96V386.16C128.188 386.18 128.018 386.2 127.898 386.2C127.408 386.2 127.228 385.98 127.228 385.54V383.04H128.268V382.19H127.228V380.67ZM130.283 384.1C130.323 383.48 130.803 382.87 131.593 382.87C132.443 382.87 132.893 383.41 132.913 384.1H130.283ZM133.053 385.35C132.873 385.89 132.483 386.32 131.703 386.32C130.893 386.32 130.273 385.72 130.253 384.86H133.873C133.883 384.8 133.893 384.68 133.893 384.56C133.893 383.06 133.063 382.04 131.583 382.04C130.373 382.04 129.283 383.07 129.283 384.58C129.283 386.21 130.413 387.15 131.703 387.15C132.823 387.15 133.593 386.48 133.863 385.63L133.053 385.35ZM145.753 387V379.91H144.443L141.923 385.68L139.423 379.91H138.093V387H139.063V381.48L141.463 387H142.363L144.783 381.48V387H145.753ZM147.556 386.36C147.556 386.75 147.856 387.05 148.246 387.05C148.636 387.05 148.946 386.75 148.946 386.36C148.946 385.97 148.636 385.66 148.246 385.66C147.856 385.66 147.556 385.97 147.556 386.36Z" fill="black" fill-opacity="0.8"/>
<path d="M152.799 376.48V367.15H151.979V376.48H152.799ZM199.394 376.48V367.15H198.574V376.48H199.394Z" fill="#9BC4EB"/>
<rect x="113" y="350" width="12" height="12" rx="3" fill="#9BC4EB" fill-opacity="0.6"/>
<rect x="126" y="350" width="12" height="12" rx="3" fill="#9BC4EB" fill-opacity="0.6"/>
<rect x="139" y="350" width="12" height="12" rx="3" fill="#9BC4EB" fill-opacity="0.6"/>
<rect x="152" y="350" width="12" height="12" rx="3" fill="#C4C4C4" fill-opacity="0.5"/>
<rect x="165" y="350" width="12" height="12" rx="3" fill="#C4C4C4" fill-opacity="0.5"/>
<path d="M250.32 351.21C250.4 352.23 251.36 353.16 252.76 353.16C254.26 353.16 255.2 352.14 255.2 350.92C255.2 349.56 254.27 348.76 252.98 348.76C252.52 348.76 252.02 348.92 251.74 349.21L252.14 347.57H254.88V346.52H251.33L250.53 349.79L251.66 350.2C251.89 349.94 252.28 349.75 252.74 349.75C253.4 349.75 253.99 350.15 253.99 350.95C253.99 351.67 253.44 352.13 252.76 352.13C252.01 352.13 251.5 351.61 251.45 350.92L250.32 351.21ZM259.888 353V350.11C259.888 349.49 260.278 349.03 260.898 349.03C261.558 349.03 261.838 349.47 261.838 350.03V353H262.978V350.11C262.978 349.51 263.378 349.03 263.988 349.03C264.638 349.03 264.928 349.46 264.928 350.03V353H266.048V349.84C266.048 348.55 265.208 347.99 264.328 347.99C263.698 347.99 263.128 348.21 262.748 348.85C262.488 348.28 261.928 347.99 261.288 347.99C260.738 347.99 260.128 348.25 259.848 348.75V348.13H258.738V353H259.888ZM268.619 353V348.13H267.469V353H268.619ZM267.289 346.42C267.289 346.84 267.629 347.17 268.039 347.17C268.459 347.17 268.799 346.84 268.799 346.42C268.799 346 268.459 345.66 268.039 345.66C267.629 345.66 267.289 346 267.289 346.42ZM271.275 350.19C271.275 349.55 271.625 349.04 272.285 349.04C273.015 349.04 273.285 349.52 273.285 350.12V353H274.445V349.92C274.445 348.85 273.875 347.99 272.685 347.99C272.145 347.99 271.565 348.22 271.245 348.78V348.13H270.115V353H271.275V350.19ZM275.427 351.68C275.487 352.23 276.027 353.15 277.437 353.15C278.677 353.15 279.277 352.33 279.277 351.59C279.277 350.87 278.797 350.31 277.877 350.11L277.137 349.96C276.837 349.9 276.647 349.71 276.647 349.45C276.647 349.15 276.937 348.89 277.347 348.89C277.997 348.89 278.207 349.34 278.247 349.62L279.227 349.34C279.147 348.86 278.707 347.98 277.347 347.98C276.337 347.98 275.557 348.7 275.557 349.55C275.557 350.22 276.007 350.78 276.867 350.97L277.587 351.13C277.977 351.21 278.157 351.41 278.157 351.67C278.157 351.97 277.907 352.23 277.427 352.23C276.807 352.23 276.477 351.84 276.437 351.4L275.427 351.68Z" fill="#9D9999"/>
<path d="M251.64 333.76C251.64 332.94 251.78 332.31 252.1 331.91C252.32 331.62 252.63 331.43 253.1 331.43C253.57 331.43 253.87 331.62 254.1 331.91C254.41 332.31 254.55 332.94 254.55 333.76C254.55 334.58 254.41 335.21 254.1 335.61C253.87 335.9 253.57 336.09 253.1 336.09C252.63 336.09 252.32 335.9 252.1 335.61C251.79 335.21 251.64 334.58 251.64 333.76ZM250.45 333.76C250.45 334.62 250.59 335.43 251.03 336.09C251.45 336.72 252.13 337.15 253.1 337.15C254.07 337.15 254.74 336.72 255.16 336.09C255.6 335.43 255.74 334.62 255.74 333.76C255.74 332.9 255.6 332.09 255.16 331.43C254.74 330.8 254.07 330.37 253.1 330.37C252.13 330.37 251.45 330.8 251.03 331.43C250.59 332.09 250.45 332.9 250.45 333.76ZM256.461 336.25C256.461 336.7 256.821 337.06 257.271 337.06C257.721 337.06 258.091 336.7 258.091 336.25C258.091 335.8 257.721 335.43 257.271 335.43C256.821 335.43 256.461 335.8 256.461 336.25ZM258.68 335.58H261.8V337H262.98V335.58H264.07V334.52H262.98V330.52H261.44L258.68 334.28V335.58ZM261.8 334.52H259.76L261.8 331.73V334.52ZM268.599 337V334.11C268.599 333.49 268.989 333.03 269.609 333.03C270.269 333.03 270.549 333.47 270.549 334.03V337H271.689V334.11C271.689 333.51 272.089 333.03 272.699 333.03C273.349 333.03 273.639 333.46 273.639 334.03V337H274.759V333.84C274.759 332.55 273.919 331.99 273.039 331.99C272.409 331.99 271.839 332.21 271.459 332.85C271.199 332.28 270.639 331.99 269.999 331.99C269.449 331.99 268.839 332.25 268.559 332.75V332.13H267.449V337H268.599ZM277.33 337V332.13H276.18V337H277.33ZM276 330.42C276 330.84 276.34 331.17 276.75 331.17C277.17 331.17 277.51 330.84 277.51 330.42C277.51 330 277.17 329.66 276.75 329.66C276.34 329.66 276 330 276 330.42Z" fill="#646464"/>
<circle cx="53" cy="464" r="30" fill="#E2B0B0"/>
<path d="M122.222 437.022V435.111H110.21V437.022H115.187V450H117.245V437.022H122.222ZM123.819 443.91C123.903 442.608 124.911 441.327 126.57 441.327C128.355 441.327 129.3 442.461 129.342 443.91H123.819ZM129.636 446.535C129.258 447.669 128.439 448.572 126.801 448.572C125.1 448.572 123.798 447.312 123.756 445.506H131.358C131.379 445.38 131.4 445.128 131.4 444.876C131.4 441.726 129.657 439.584 126.549 439.584C124.008 439.584 121.719 441.747 121.719 444.918C121.719 448.341 124.092 450.315 126.801 450.315C129.153 450.315 130.77 448.908 131.337 447.123L129.636 446.535ZM135.516 444.918C135.516 442.839 136.692 441.369 138.498 441.369C140.304 441.369 141.396 442.797 141.396 444.876C141.396 446.955 140.283 448.53 138.477 448.53C136.587 448.53 135.516 446.997 135.516 444.918ZM141.417 448.635C141.417 449.244 141.48 449.769 141.522 450H143.433C143.412 449.832 143.328 449.097 143.328 448.131V434.796H141.375V441.327C141.039 440.508 140.073 439.626 138.288 439.626C135.432 439.626 133.5 442.062 133.5 444.918C133.5 447.921 135.327 450.273 138.288 450.273C139.863 450.273 140.934 449.433 141.417 448.467V448.635ZM154.141 442.545C154.141 438.66 156.745 436.686 159.517 436.686C162.289 436.686 164.893 438.66 164.893 442.545C164.893 446.43 162.289 448.425 159.517 448.425C156.745 448.425 154.141 446.43 154.141 442.545ZM152.041 442.545C152.041 447.522 155.779 450.315 159.517 450.315C163.255 450.315 166.993 447.522 166.993 442.545C166.993 437.568 163.255 434.796 159.517 434.796C155.779 434.796 152.041 437.568 152.041 442.545ZM169.187 448.656C169.187 449.475 169.817 450.105 170.636 450.105C171.455 450.105 172.106 449.475 172.106 448.656C172.106 447.837 171.455 447.186 170.636 447.186C169.817 447.186 169.187 447.837 169.187 448.656Z" fill="black"/>
<rect x="113" y="459" width="12" height="12" rx="3" fill="#9BC4EB" fill-opacity="0.6"/>
<rect x="126" y="459" width="12" height="12" rx="3" fill="#9BC4EB" fill-opacity="0.6"/>
<rect x="139" y="459" width="12" height="12" rx="3" fill="#9BC4EB" fill-opacity="0.6"/>
<rect x="152" y="459" width="12" height="12" rx="3" fill="#C4C4C4" fill-opacity="0.5"/>
<path d="M152 462C152 460.343 153.343 459 155 459H157V471H155C153.343 471 152 469.657 152 468V462Z" fill="#9BC4EB" fill-opacity="0.8"/>
<rect x="165" y="459" width="12" height="12" rx="3" fill="#C4C4C4" fill-opacity="0.5"/>
<path d="M254.89 455.52H250.05V456.57H253.53C253.53 456.57 251.27 458.38 250.99 462H252.23C252.52 458.66 254.35 457.02 254.89 456.57V455.52ZM259.322 462V459.11C259.322 458.49 259.712 458.03 260.332 458.03C260.992 458.03 261.272 458.47 261.272 459.03V462H262.412V459.11C262.412 458.51 262.812 458.03 263.422 458.03C264.072 458.03 264.362 458.46 264.362 459.03V462H265.482V458.84C265.482 457.55 264.642 456.99 263.762 456.99C263.132 456.99 262.562 457.21 262.182 457.85C261.922 457.28 261.362 456.99 260.722 456.99C260.172 456.99 259.562 457.25 259.282 457.75V457.13H258.172V462H259.322ZM268.052 462V457.13H266.902V462H268.052ZM266.722 455.42C266.722 455.84 267.062 456.17 267.472 456.17C267.892 456.17 268.232 455.84 268.232 455.42C268.232 455 267.892 454.66 267.472 454.66C267.062 454.66 266.722 455 266.722 455.42ZM270.709 459.19C270.709 458.55 271.059 458.04 271.719 458.04C272.449 458.04 272.719 458.52 272.719 459.12V462H273.879V458.92C273.879 457.85 273.309 456.99 272.119 456.99C271.579 456.99 270.999 457.22 270.679 457.78V457.13H269.549V462H270.709V459.19ZM274.861 460.68C274.921 461.23 275.461 462.15 276.871 462.15C278.111 462.15 278.711 461.33 278.711 460.59C278.711 459.87 278.231 459.31 277.311 459.11L276.571 458.96C276.271 458.9 276.081 458.71 276.081 458.45C276.081 458.15 276.371 457.89 276.781 457.89C277.431 457.89 277.641 458.34 277.681 458.62L278.661 458.34C278.581 457.86 278.141 456.98 276.781 456.98C275.771 456.98 274.991 457.7 274.991 458.55C274.991 459.22 275.441 459.78 276.301 459.97L277.021 460.13C277.411 460.21 277.591 460.41 277.591 460.67C277.591 460.97 277.341 461.23 276.861 461.23C276.241 461.23 275.911 460.84 275.871 460.4L274.861 460.68Z" fill="#9D9999"/>
<path d="M251.64 442.76C251.64 441.94 251.78 441.31 252.1 440.91C252.32 440.62 252.63 440.43 253.1 440.43C253.57 440.43 253.87 440.62 254.1 440.91C254.41 441.31 254.55 441.94 254.55 442.76C254.55 443.58 254.41 444.21 254.1 444.61C253.87 444.9 253.57 445.09 253.1 445.09C252.63 445.09 252.32 444.9 252.1 444.61C251.79 444.21 251.64 443.58 251.64 442.76ZM250.45 442.76C250.45 443.62 250.59 444.43 251.03 445.09C251.45 445.72 252.13 446.15 253.1 446.15C254.07 446.15 254.74 445.72 255.16 445.09C255.6 444.43 255.74 443.62 255.74 442.76C255.74 441.9 255.6 441.09 255.16 440.43C254.74 439.8 254.07 439.37 253.1 439.37C252.13 439.37 251.45 439.8 251.03 440.43C250.59 441.09 250.45 441.9 250.45 442.76ZM256.461 445.25C256.461 445.7 256.821 446.06 257.271 446.06C257.721 446.06 258.091 445.7 258.091 445.25C258.091 444.8 257.721 444.43 257.271 444.43C256.821 444.43 256.461 444.8 256.461 445.25ZM259.07 444.21C259.15 445.23 260.11 446.16 261.51 446.16C263.01 446.16 263.95 445.14 263.95 443.92C263.95 442.56 263.02 441.76 261.73 441.76C261.27 441.76 260.77 441.92 260.49 442.21L260.89 440.57H263.63V439.52H260.08L259.28 442.79L260.41 443.2C260.64 442.94 261.03 442.75 261.49 442.75C262.15 442.75 262.74 443.15 262.74 443.95C262.74 444.67 262.19 445.13 261.51 445.13C260.76 445.13 260.25 444.61 260.2 443.92L259.07 444.21ZM268.638 446V443.11C268.638 442.49 269.028 442.03 269.648 442.03C270.308 442.03 270.588 442.47 270.588 443.03V446H271.728V443.11C271.728 442.51 272.128 442.03 272.738 442.03C273.388 442.03 273.678 442.46 273.678 443.03V446H274.798V442.84C274.798 441.55 273.958 440.99 273.078 440.99C272.448 440.99 271.878 441.21 271.498 441.85C271.238 441.28 270.678 440.99 270.038 440.99C269.488 440.99 268.878 441.25 268.598 441.75V441.13H267.488V446H268.638ZM277.369 446V441.13H276.219V446H277.369ZM276.039 439.42C276.039 439.84 276.379 440.17 276.789 440.17C277.209 440.17 277.549 439.84 277.549 439.42C277.549 439 277.209 438.66 276.789 438.66C276.379 438.66 276.039 439 276.039 439.42Z" fill="#646464"/>
<rect x="235" y="167" width="65" height="16" rx="4" fill="#9BC4EB" fill-opacity="0.8"/>
<path d="M254.43 178H255.79L254.19 175.08C255.18 174.84 255.79 174.07 255.79 173.06C255.79 171.86 254.94 170.91 253.57 170.91H250.85V178H252.06V175.2H252.94L254.43 178ZM252.06 174.14V171.97H253.35C254.09 171.97 254.57 172.4 254.57 173.06C254.57 173.71 254.09 174.14 253.35 174.14H252.06ZM257.815 175.03C257.855 174.51 258.275 173.95 259.005 173.95C259.805 173.95 260.185 174.46 260.205 175.03H257.815ZM260.335 176.3C260.175 176.78 259.815 177.15 259.115 177.15C258.395 177.15 257.815 176.62 257.785 175.88H261.345C261.355 175.86 261.375 175.7 261.375 175.51C261.375 173.97 260.495 172.98 258.995 172.98C257.765 172.98 256.625 174 256.625 175.54C256.625 177.19 257.795 178.15 259.115 178.15C260.285 178.15 261.055 177.46 261.315 176.61L260.335 176.3ZM267.213 179.9V173.13H266.103V173.78C265.933 173.43 265.463 173.01 264.613 173.01C263.193 173.01 262.303 174.15 262.303 175.55C262.303 177 263.253 178.12 264.643 178.12C265.323 178.12 265.833 177.85 266.073 177.42V179.9H267.213ZM263.473 175.55C263.473 174.62 264.003 174.04 264.773 174.04C265.533 174.04 266.083 174.62 266.083 175.55C266.083 176.48 265.533 177.1 264.773 177.1C264.013 177.1 263.473 176.48 263.473 175.55ZM272.01 177.46C272.01 177.66 272.03 177.89 272.05 178H273.16C273.14 177.82 273.11 177.51 273.11 177.11V173.13H271.95V176.01C271.95 176.65 271.6 177.1 270.93 177.1C270.23 177.1 269.95 176.59 269.95 175.99V173.13H268.79V176.2C268.79 177.28 269.47 178.14 270.63 178.14C271.2 178.14 271.77 177.9 272.01 177.46ZM275.592 175.03C275.632 174.51 276.052 173.95 276.782 173.95C277.582 173.95 277.962 174.46 277.982 175.03H275.592ZM278.112 176.3C277.952 176.78 277.592 177.15 276.892 177.15C276.172 177.15 275.592 176.62 275.562 175.88H279.122C279.132 175.86 279.152 175.7 279.152 175.51C279.152 173.97 278.272 172.98 276.772 172.98C275.542 172.98 274.402 174 274.402 175.54C274.402 177.19 275.572 178.15 276.892 178.15C278.062 178.15 278.832 177.46 279.092 176.61L278.112 176.3ZM280.031 176.68C280.091 177.23 280.631 178.15 282.041 178.15C283.281 178.15 283.881 177.33 283.881 176.59C283.881 175.87 283.401 175.31 282.481 175.11L281.741 174.96C281.441 174.9 281.251 174.71 281.251 174.45C281.251 174.15 281.541 173.89 281.951 173.89C282.601 173.89 282.811 174.34 282.851 174.62L283.831 174.34C283.751 173.86 283.311 172.98 281.951 172.98C280.941 172.98 280.161 173.7 280.161 174.55C280.161 175.22 280.611 175.78 281.471 175.97L282.191 176.13C282.581 176.21 282.761 176.41 282.761 176.67C282.761 176.97 282.511 177.23 282.031 177.23C281.411 177.23 281.081 176.84 281.041 176.4L280.031 176.68ZM286.701 171.64H285.651V172.37C285.651 172.8 285.421 173.13 284.901 173.13H284.651V174.16H285.551V176.61C285.551 177.52 286.111 178.06 287.011 178.06C287.431 178.06 287.651 177.98 287.721 177.95V176.99C287.671 177 287.481 177.03 287.321 177.03C286.891 177.03 286.701 176.85 286.701 176.42V174.16H287.711V173.13H286.701V171.64Z" fill="white"/>
<rect x="235" y="271" width="65" height="16" rx="4" fill="#9BC4EB" fill-opacity="0.8"/>
<path d="M254.43 282H255.79L254.19 279.08C255.18 278.84 255.79 278.07 255.79 277.06C255.79 275.86 254.94 274.91 253.57 274.91H250.85V282H252.06V279.2H252.94L254.43 282ZM252.06 278.14V275.97H253.35C254.09 275.97 254.57 276.4 254.57 277.06C254.57 277.71 254.09 278.14 253.35 278.14H252.06ZM257.815 279.03C257.855 278.51 258.275 277.95 259.005 277.95C259.805 277.95 260.185 278.46 260.205 279.03H257.815ZM260.335 280.3C260.175 280.78 259.815 281.15 259.115 281.15C258.395 281.15 257.815 280.62 257.785 279.88H261.345C261.355 279.86 261.375 279.7 261.375 279.51C261.375 277.97 260.495 276.98 258.995 276.98C257.765 276.98 256.625 278 256.625 279.54C256.625 281.19 257.795 282.15 259.115 282.15C260.285 282.15 261.055 281.46 261.315 280.61L260.335 280.3ZM267.213 283.9V277.13H266.103V277.78C265.933 277.43 265.463 277.01 264.613 277.01C263.193 277.01 262.303 278.15 262.303 279.55C262.303 281 263.253 282.12 264.643 282.12C265.323 282.12 265.833 281.85 266.073 281.42V283.9H267.213ZM263.473 279.55C263.473 278.62 264.003 278.04 264.773 278.04C265.533 278.04 266.083 278.62 266.083 279.55C266.083 280.48 265.533 281.1 264.773 281.1C264.013 281.1 263.473 280.48 263.473 279.55ZM272.01 281.46C272.01 281.66 272.03 281.89 272.05 282H273.16C273.14 281.82 273.11 281.51 273.11 281.11V277.13H271.95V280.01C271.95 280.65 271.6 281.1 270.93 281.1C270.23 281.1 269.95 280.59 269.95 279.99V277.13H268.79V280.2C268.79 281.28 269.47 282.14 270.63 282.14C271.2 282.14 271.77 281.9 272.01 281.46ZM275.592 279.03C275.632 278.51 276.052 277.95 276.782 277.95C277.582 277.95 277.962 278.46 277.982 279.03H275.592ZM278.112 280.3C277.952 280.78 277.592 281.15 276.892 281.15C276.172 281.15 275.592 280.62 275.562 279.88H279.122C279.132 279.86 279.152 279.7 279.152 279.51C279.152 277.97 278.272 276.98 276.772 276.98C275.542 276.98 274.402 278 274.402 279.54C274.402 281.19 275.572 282.15 276.892 282.15C278.062 282.15 278.832 281.46 279.092 280.61L278.112 280.3ZM280.031 280.68C280.091 281.23 280.631 282.15 282.041 282.15C283.281 282.15 283.881 281.33 283.881 280.59C283.881 279.87 283.401 279.31 282.481 279.11L281.741 278.96C281.441 278.9 281.251 278.71 281.251 278.45C281.251 278.15 281.541 277.89 281.951 277.89C282.601 277.89 282.811 278.34 282.851 278.62L283.831 278.34C283.751 277.86 283.311 276.98 281.951 276.98C280.941 276.98 280.161 277.7 280.161 278.55C280.161 279.22 280.611 279.78 281.471 279.97L282.191 280.13C282.581 280.21 282.761 280.41 282.761 280.67C282.761 280.97 282.511 281.23 282.031 281.23C281.411 281.23 281.081 280.84 281.041 280.4L280.031 280.68ZM286.701 275.64H285.651V276.37C285.651 276.8 285.421 277.13 284.901 277.13H284.651V278.16H285.551V280.61C285.551 281.52 286.111 282.06 287.011 282.06C287.431 282.06 287.651 281.98 287.721 281.95V280.99C287.671 281 287.481 281.03 287.321 281.03C286.891 281.03 286.701 280.85 286.701 280.42V278.16H287.711V277.13H286.701V275.64Z" fill="white"/>
<rect x="233" y="377" width="65" height="16" rx="4" fill="#9BC4EB" fill-opacity="0.8"/>
<path d="M252.43 388H253.79L252.19 385.08C253.18 384.84 253.79 384.07 253.79 383.06C253.79 381.86 252.94 380.91 251.57 380.91H248.85V388H250.06V385.2H250.94L252.43 388ZM250.06 384.14V381.97H251.35C252.09 381.97 252.57 382.4 252.57 383.06C252.57 383.71 252.09 384.14 251.35 384.14H250.06ZM255.815 385.03C255.855 384.51 256.275 383.95 257.005 383.95C257.805 383.95 258.185 384.46 258.205 385.03H255.815ZM258.335 386.3C258.175 386.78 257.815 387.15 257.115 387.15C256.395 387.15 255.815 386.62 255.785 385.88H259.345C259.355 385.86 259.375 385.7 259.375 385.51C259.375 383.97 258.495 382.98 256.995 382.98C255.765 382.98 254.625 384 254.625 385.54C254.625 387.19 255.795 388.15 257.115 388.15C258.285 388.15 259.055 387.46 259.315 386.61L258.335 386.3ZM265.213 389.9V383.13H264.103V383.78C263.933 383.43 263.463 383.01 262.613 383.01C261.193 383.01 260.303 384.15 260.303 385.55C260.303 387 261.253 388.12 262.643 388.12C263.323 388.12 263.833 387.85 264.073 387.42V389.9H265.213ZM261.473 385.55C261.473 384.62 262.003 384.04 262.773 384.04C263.533 384.04 264.083 384.62 264.083 385.55C264.083 386.48 263.533 387.1 262.773 387.1C262.013 387.1 261.473 386.48 261.473 385.55ZM270.01 387.46C270.01 387.66 270.03 387.89 270.05 388H271.16C271.14 387.82 271.11 387.51 271.11 387.11V383.13H269.95V386.01C269.95 386.65 269.6 387.1 268.93 387.1C268.23 387.1 267.95 386.59 267.95 385.99V383.13H266.79V386.2C266.79 387.28 267.47 388.14 268.63 388.14C269.2 388.14 269.77 387.9 270.01 387.46ZM273.592 385.03C273.632 384.51 274.052 383.95 274.782 383.95C275.582 383.95 275.962 384.46 275.982 385.03H273.592ZM276.112 386.3C275.952 386.78 275.592 387.15 274.892 387.15C274.172 387.15 273.592 386.62 273.562 385.88H277.122C277.132 385.86 277.152 385.7 277.152 385.51C277.152 383.97 276.272 382.98 274.772 382.98C273.542 382.98 272.402 384 272.402 385.54C272.402 387.19 273.572 388.15 274.892 388.15C276.062 388.15 276.832 387.46 277.092 386.61L276.112 386.3ZM278.031 386.68C278.091 387.23 278.631 388.15 280.041 388.15C281.281 388.15 281.881 387.33 281.881 386.59C281.881 385.87 281.401 385.31 280.481 385.11L279.741 384.96C279.441 384.9 279.251 384.71 279.251 384.45C279.251 384.15 279.541 383.89 279.951 383.89C280.601 383.89 280.811 384.34 280.851 384.62L281.831 384.34C281.751 383.86 281.311 382.98 279.951 382.98C278.941 382.98 278.161 383.7 278.161 384.55C278.161 385.22 278.611 385.78 279.471 385.97L280.191 386.13C280.581 386.21 280.761 386.41 280.761 386.67C280.761 386.97 280.511 387.23 280.031 387.23C279.411 387.23 279.081 386.84 279.041 386.4L278.031 386.68ZM284.701 381.64H283.651V382.37C283.651 382.8 283.421 383.13 282.901 383.13H282.651V384.16H283.551V386.61C283.551 387.52 284.111 388.06 285.011 388.06C285.431 388.06 285.651 387.98 285.721 387.95V386.99C285.671 387 285.481 387.03 285.321 387.03C284.891 387.03 284.701 386.85 284.701 386.42V384.16H285.711V383.13H284.701V381.64Z" fill="white"/>
<rect x="236" y="476" width="65" height="16" rx="4" fill="#9BC4EB" fill-opacity="0.8"/>
<path d="M255.43 487H256.79L255.19 484.08C256.18 483.84 256.79 483.07 256.79 482.06C256.79 480.86 255.94 479.91 254.57 479.91H251.85V487H253.06V484.2H253.94L255.43 487ZM253.06 483.14V480.97H254.35C255.09 480.97 255.57 481.4 255.57 482.06C255.57 482.71 255.09 483.14 254.35 483.14H253.06ZM258.815 484.03C258.855 483.51 259.275 482.95 260.005 482.95C260.805 482.95 261.185 483.46 261.205 484.03H258.815ZM261.335 485.3C261.175 485.78 260.815 486.15 260.115 486.15C259.395 486.15 258.815 485.62 258.785 484.88H262.345C262.355 484.86 262.375 484.7 262.375 484.51C262.375 482.97 261.495 481.98 259.995 481.98C258.765 481.98 257.625 483 257.625 484.54C257.625 486.19 258.795 487.15 260.115 487.15C261.285 487.15 262.055 486.46 262.315 485.61L261.335 485.3ZM268.213 488.9V482.13H267.103V482.78C266.933 482.43 266.463 482.01 265.613 482.01C264.193 482.01 263.303 483.15 263.303 484.55C263.303 486 264.253 487.12 265.643 487.12C266.323 487.12 266.833 486.85 267.073 486.42V488.9H268.213ZM264.473 484.55C264.473 483.62 265.003 483.04 265.773 483.04C266.533 483.04 267.083 483.62 267.083 484.55C267.083 485.48 266.533 486.1 265.773 486.1C265.013 486.1 264.473 485.48 264.473 484.55ZM273.01 486.46C273.01 486.66 273.03 486.89 273.05 487H274.16C274.14 486.82 274.11 486.51 274.11 486.11V482.13H272.95V485.01C272.95 485.65 272.6 486.1 271.93 486.1C271.23 486.1 270.95 485.59 270.95 484.99V482.13H269.79V485.2C269.79 486.28 270.47 487.14 271.63 487.14C272.2 487.14 272.77 486.9 273.01 486.46ZM276.592 484.03C276.632 483.51 277.052 482.95 277.782 482.95C278.582 482.95 278.962 483.46 278.982 484.03H276.592ZM279.112 485.3C278.952 485.78 278.592 486.15 277.892 486.15C277.172 486.15 276.592 485.62 276.562 484.88H280.122C280.132 484.86 280.152 484.7 280.152 484.51C280.152 482.97 279.272 481.98 277.772 481.98C276.542 481.98 275.402 483 275.402 484.54C275.402 486.19 276.572 487.15 277.892 487.15C279.062 487.15 279.832 486.46 280.092 485.61L279.112 485.3ZM281.031 485.68C281.091 486.23 281.631 487.15 283.041 487.15C284.281 487.15 284.881 486.33 284.881 485.59C284.881 484.87 284.401 484.31 283.481 484.11L282.741 483.96C282.441 483.9 282.251 483.71 282.251 483.45C282.251 483.15 282.541 482.89 282.951 482.89C283.601 482.89 283.811 483.34 283.851 483.62L284.831 483.34C284.751 482.86 284.311 481.98 282.951 481.98C281.941 481.98 281.161 482.7 281.161 483.55C281.161 484.22 281.611 484.78 282.471 484.97L283.191 485.13C283.581 485.21 283.761 485.41 283.761 485.67C283.761 485.97 283.511 486.23 283.031 486.23C282.411 486.23 282.081 485.84 282.041 485.4L281.031 485.68ZM287.701 480.64H286.651V481.37C286.651 481.8 286.421 482.13 285.901 482.13H285.651V483.16H286.551V485.61C286.551 486.52 287.111 487.06 288.011 487.06C288.431 487.06 288.651 486.98 288.721 486.95V485.99C288.671 486 288.481 486.03 288.321 486.03C287.891 486.03 287.701 485.85 287.701 485.42V483.16H288.711V482.13H287.701V480.64Z" fill="white"/>
<path d="M165 147C165 145.343 166.343 144 168 144H172V156H168C166.343 156 165 154.657 165 153V147Z" fill="#9BC4EB" fill-opacity="0.8"/>
<circle cx="53" cy="139" r="30" fill="#F8D2F2"/>
<path fill-rule="evenodd" clip-rule="evenodd" d="M56.9904 152.634C60.4358 154.784 63.8302 155.838 65.4314 155.434C69.4464 154.422 69.9432 139.554 66.8943 133.664C63.8454 127.773 47.9329 125.076 47.0294 136.684C46.7158 140.714 48.3529 144.326 50.7923 147.284L46.1923 168.148L59.0296 168.262L56.9904 152.634Z" fill="#CBA786"/>
<path fill-rule="evenodd" clip-rule="evenodd" d="M68.0874 136.307C67.9769 135.546 67.6981 134.7 67.4734 133.979C67.1838 133.049 66.7406 132.209 66.2517 131.417C65.3313 129.926 64.2234 128.577 62.9969 127.455C60.7567 125.405 57.8927 124.208 55.0631 124.563C53.6345 124.742 52.2441 125.33 51.0564 126.318C49.9833 127.211 48.9472 128.53 47.567 128.613C46.0653 128.703 44.7021 127.231 43.5062 126.318C42.1578 125.29 40.7204 124.536 39.1367 124.234C36.4837 123.728 33.9788 124.695 32.1267 127.082C30.1558 129.622 28.7068 133.359 29.9573 136.759C30.1898 137.391 30.4912 137.924 30.9266 138.368C31.3259 138.775 31.9374 139.21 32.0952 139.856C32.2627 140.543 31.7369 141.423 31.5306 142.04C31.2351 142.923 30.9907 143.851 31.0664 144.815C31.1908 146.398 32.0795 147.916 33.0227 148.964C33.9826 150.03 35.17 150.648 36.4414 150.939C37.2903 151.133 38.1587 151.244 39.0238 151.181C39.4532 151.15 39.833 151.022 40.2497 150.922C40.6549 150.824 40.8799 150.944 41.2208 151.191C42.8046 152.341 44.5143 152.796 46.3559 152.643C47.9101 152.515 49.7036 152.116 50.9806 150.954C52.3988 149.664 52.3863 147.868 52.0719 145.946C52.421 146.141 53.3903 146.268 52.8171 145.499C52.5899 145.194 52.157 145.068 51.8638 144.887C51.5224 144.677 51.1762 144.406 50.9126 144.066C49.8483 142.692 50.9592 139.925 52.3156 139.479C54.331 138.818 54.7538 141.954 56.1813 142.777C57.002 143.25 57.8703 142.621 58.4939 141.976C59.3291 141.113 59.9032 139.964 60.4005 138.794C60.81 137.831 61.1918 136.854 61.6091 135.895C61.8039 135.447 62.4759 134.183 62.1483 133.672C63.5904 133.369 65.1877 134.042 66.4198 134.918C66.929 135.28 67.3162 135.677 67.5841 136.311C67.6414 136.446 67.7654 136.849 67.9253 136.867C68.223 136.901 68.1151 136.498 68.0874 136.307Z" fill="#1B0E03"/>
<path fill-rule="evenodd" clip-rule="evenodd" d="M57.6517 261.605C61.8628 264.009 66.0003 265.171 67.9425 264.697C72.8127 263.508 73.2605 246.632 69.4922 239.979C65.7239 233.326 46.3516 230.426 45.3752 243.608C45.0363 248.183 47.0644 252.266 50.0609 255.597L44.688 279.318H60.2949L57.6517 261.605Z" fill="#B28B67"/>
<path fill-rule="evenodd" clip-rule="evenodd" d="M63.1845 240.54C60.7377 241.614 59.0292 243.699 56.9625 246.454C56.471 246.293 55.9357 246.205 55.3757 246.205C52.979 246.205 51.0362 247.819 51.0362 249.81C51.0362 250.821 51.5369 251.734 52.3435 252.389C51.3394 253.566 50.214 254.796 48.9245 256.065C44.0802 253.651 40.4854 246.583 45.2216 239.794C46.5306 236.468 49.4942 234.691 52.9943 233.867C55.8295 232.881 58.7727 232.77 61.2572 233.361C66.1276 233.708 70.4765 234.942 71.7091 235.674C71.7091 239.504 70.8156 240.641 63.1845 240.54Z" fill="#191847"/>
<path fill-rule="evenodd" clip-rule="evenodd" d="M56.4108 475.401C60.7429 477.79 64.9994 478.944 66.9975 478.473C72.0077 477.291 72.4684 460.523 68.5917 453.913C64.7151 447.303 44.7857 444.421 43.7812 457.519C43.4326 462.064 45.519 466.121 48.6016 469.431L43.0742 493H59.13L56.4108 475.401Z" fill="#966A51"/>
<path fill-rule="evenodd" clip-rule="evenodd" d="M57.2136 459.94C58.6024 457.875 59.9357 456.3 61.6701 455.385C68.7286 455.497 69.555 454.233 69.555 449.974C68.415 449.159 64.3923 447.787 59.8874 447.401C57.5893 446.745 54.8669 446.868 52.2444 447.964C49.007 448.881 46.2657 450.856 45.0549 454.555C40.6741 462.105 43.9992 469.964 48.48 472.649C49.6728 471.237 50.7137 469.87 51.6424 468.561C50.8964 467.833 50.4332 466.817 50.4332 465.693C50.4332 463.479 52.2303 461.685 54.4472 461.685C54.6101 461.685 54.7708 461.694 54.9287 461.713C55.0285 464.481 55.439 473.845 56.5173 477.098C57.7886 480.933 65.207 481.875 67.7943 481.875C70.0291 481.875 69.9529 479.761 69.8983 478.247C69.8904 478.029 69.883 477.823 69.883 477.638C69.883 477.251 69.3791 477.252 68.8098 477.253C68.0704 477.255 67.2208 477.256 67.2208 476.409C67.2208 475.486 68.4986 474.777 69.642 474.144C70.3554 473.748 71.0164 473.382 71.2823 473.01C72.1209 471.838 72.4034 470.257 71.1382 470.257C70.4466 470.257 69.4977 470.655 68.3562 471.134C66.6329 471.857 64.4704 472.764 62.0909 472.764C58.1604 472.764 57.2254 460.101 57.2136 459.94Z" fill="#191847"/>
<circle cx="31" cy="48" r="15" fill="#DCDADA" fill-opacity="0.5"/>
<line x1="20" y1="43" x2="42.0227" y2="43" stroke="black" stroke-opacity="0.8" stroke-width="2"/>
<line x1="20" y1="47" x2="42.0227" y2="47" stroke="black" stroke-opacity="0.8" stroke-width="2"/>
<line x1="20" y1="51" x2="42.0227" y2="51" stroke="black" stroke-opacity="0.8" stroke-width="2"/>
<ellipse cx="76" cy="380.5" rx="15" ry="14.5" fill="#9BC4EB"/>
<path fill-rule="evenodd" clip-rule="evenodd" d="M77.2021 384.705C79.0591 385.831 80.8837 386.375 81.7402 386.153C83.8878 385.596 84.0853 377.693 82.4235 374.577C80.7618 371.461 72.219 370.103 71.7884 376.277C71.639 378.419 72.5333 380.331 73.8547 381.891L71.4854 393H78.3677L77.2021 384.705Z" fill="#B28B67"/>
<path fill-rule="evenodd" clip-rule="evenodd" d="M74.0663 374.827C78.0378 374.856 80.801 374.687 82.3825 374.25C82.3104 372.896 80.9111 371.365 77.2207 371.365C73.1148 371.365 70.9119 373.773 70.9119 376.558C70.9119 379.102 72.5402 382.201 73.7795 382.327C74.1007 382.256 74.3748 381.867 74.6475 381.331C74.137 381.081 73.7795 380.492 73.7795 379.731C73.7795 378.999 74.4215 378.288 75.2133 378.288C75.5022 378.288 75.7711 378.383 75.9961 378.539C76.5165 377.696 77.1685 377.066 78.081 377.135L77.5075 375.404L74.0663 375.115V374.827Z" fill="#191847"/>
<ellipse cx="55.5" cy="346" rx="21.5" ry="21" fill="#C0EDC0"/>
<path fill-rule="evenodd" clip-rule="evenodd" d="M57.2696 337.098C53.031 337.098 49.595 340.534 49.595 344.773V352.86C49.595 356.705 52.4221 359.889 56.1109 360.448C56.1125 360.479 56.1141 360.511 56.1158 360.543H66.0076C67.5549 358.92 66.0704 348.664 64.8998 343.943C64.4859 340.095 61.2277 337.098 57.2696 337.098Z" fill="#191847"/>
<path fill-rule="evenodd" clip-rule="evenodd" d="M57.418 354.765C59.6268 356.194 61.797 356.885 62.8158 356.603C65.3703 355.896 65.6052 345.863 63.6286 341.908C61.652 337.953 51.4908 336.229 50.9786 344.065C50.8008 346.785 51.8646 349.212 53.4364 351.193L50.6182 365.295H58.8044L57.418 354.765Z" fill="#E6C1AA"/>
<path fill-rule="evenodd" clip-rule="evenodd" d="M49.8957 344.111C50.1334 343.859 50.3634 343.615 50.5915 343.396L50.5805 343.111C50.5805 343.111 53.1498 337.464 57.0997 337.464C61.0461 337.464 62.2941 339.434 63.355 341.108L63.3579 341.113C62.803 343.157 61.1305 343.984 59.2391 344.919C58.4249 345.322 57.5702 345.745 56.7465 346.293C56.4239 346.012 56.0124 345.843 55.5643 345.843C54.5282 345.843 53.6883 346.745 53.6883 347.857C53.6883 348.969 54.5282 349.871 55.5643 349.871C55.5929 349.871 55.6213 349.87 55.6495 349.869C56.0267 354.219 55.8756 359.186 54.7516 360.365H44.8598C44.5759 355.069 45.8521 353.558 47.1563 352.014C48.3834 350.561 49.6351 349.079 49.6351 344.387C49.7232 344.294 49.81 344.202 49.8957 344.111Z" fill="#191847"/>
<ellipse cx="35" cy="380.5" rx="15" ry="14.5" fill="#FDE3B1"/>
<path fill-rule="evenodd" clip-rule="evenodd" d="M37.0274 387.088C38.6939 388.026 40.3314 388.479 41.1 388.294C43.0274 387.83 43.2046 381.244 41.7133 378.648C40.222 376.051 32.5554 374.919 32.1689 380.064C32.0348 381.849 32.8374 383.443 34.0233 384.743L31.897 394H38.0734L37.0274 387.088Z" fill="#3D2216"/>
<path fill-rule="evenodd" clip-rule="evenodd" d="M31.8081 380.036C31.6683 380.05 31.5262 380.058 31.3823 380.058C29.2503 380.058 27.522 378.443 27.522 376.452C27.522 374.46 29.2503 372.846 31.3823 372.846C33.4959 372.846 35.2128 374.433 35.2422 376.401C38.345 375.397 42.3715 376.57 41.8326 378.923C41.502 380.367 39.7764 381.121 38.0153 381.89L37.7695 381.997C37.4982 381.557 36.9807 381.26 36.3869 381.26C35.5119 381.26 34.8025 381.905 34.8025 382.702C34.8025 382.989 34.8945 383.256 35.0532 383.481C34.4331 383.985 33.9955 384.591 33.8897 385.378C32.8902 385.378 31.2748 382.637 31.8081 380.036Z" fill="#191847"/>
</svg>
