<svg width="326" height="522" viewBox="0 0 326 522" fill="none" xmlns="http://www.w3.org/2000/svg">
<title>Settings</title>
<rect width="326" height="522" rx="10" fill="white"/>
<rect width="326" height="67" fill="#9BC4EB"/>
<path d="M26.2929 33.2929C25.9024 33.6834 25.9024 34.3166 26.2929 34.7071L32.6569 41.0711C33.0474 41.4616 33.6805 41.4616 34.0711 41.0711C34.4616 40.6805 34.4616 40.0474 34.0711 39.6569L28.4142 34L34.0711 28.3431C34.4616 27.9526 34.4616 27.3195 34.0711 26.9289C33.6805 26.5384 33.0474 26.5384 32.6569 26.9289L26.2929 33.2929ZM49 33H27V35H49V33Z" fill="white"/>
<path d="M57.845 116V114.32H53.075V111.5H57.395V109.865H53.075V107.045H57.845V105.365H51.275V116H57.845ZM60.8057 112.325C60.8057 110.93 61.6457 110.045 62.7857 110.045C63.9257 110.045 64.7057 110.915 64.7057 112.31C64.7057 113.705 63.9107 114.65 62.7707 114.65C61.5857 114.65 60.8057 113.72 60.8057 112.325ZM66.3857 105.14H64.6907V109.55C64.4657 109.085 63.8207 108.5 62.5457 108.5C60.4907 108.5 59.0657 110.225 59.0657 112.325C59.0657 114.53 60.4757 116.18 62.5757 116.18C63.6107 116.18 64.3757 115.67 64.7207 115.055C64.7207 115.355 64.7657 115.835 64.7957 116H66.4607C66.4457 115.88 66.3857 115.325 66.3857 114.665V105.14ZM70.3842 116V108.695H68.6592V116H70.3842ZM68.3892 106.13C68.3892 106.76 68.8992 107.255 69.5142 107.255C70.1442 107.255 70.6542 106.76 70.6542 106.13C70.6542 105.5 70.1442 104.99 69.5142 104.99C68.8992 104.99 68.3892 105.5 68.3892 106.13ZM74.8339 106.46H73.2589V107.555C73.2589 108.2 72.9139 108.695 72.1339 108.695H71.7589V110.24H73.1089V113.915C73.1089 115.28 73.9489 116.09 75.2989 116.09C75.9289 116.09 76.2589 115.97 76.3639 115.925V114.485C76.2889 114.5 76.0039 114.545 75.7639 114.545C75.1189 114.545 74.8339 114.275 74.8339 113.63V110.24H76.3489V108.695H74.8339V106.46ZM83.7781 110.255V106.955H85.6531C86.7931 106.955 87.4831 107.6 87.4831 108.62C87.4831 109.625 86.7931 110.255 85.6531 110.255H83.7781ZM85.9231 111.845C87.9631 111.845 89.3131 110.48 89.3131 108.605C89.3131 106.745 87.9631 105.365 85.9231 105.365H81.9781V116H83.7781V111.845H85.9231ZM94.9361 108.65C94.8611 108.635 94.6811 108.605 94.4711 108.605C93.5111 108.605 92.7011 109.07 92.3561 109.865V108.695H90.6611V116H92.4011V112.52C92.4011 111.155 93.0161 110.375 94.3661 110.375C94.5461 110.375 94.7411 110.39 94.9361 110.42V108.65ZM99.5254 114.665C98.4604 114.665 97.4854 113.855 97.4854 112.34C97.4854 110.825 98.4604 110.045 99.5254 110.045C100.605 110.045 101.565 110.825 101.565 112.34C101.565 113.87 100.605 114.665 99.5254 114.665ZM99.5254 108.47C97.3504 108.47 95.7454 110.105 95.7454 112.34C95.7454 114.59 97.3504 116.225 99.5254 116.225C101.715 116.225 103.32 114.59 103.32 112.34C103.32 110.105 101.715 108.47 99.5254 108.47ZM107.957 105.065C106.457 105.065 105.407 106.055 105.407 107.69V108.695H104.132V110.21H105.407V116H107.162V110.21H110.312V116H112.022V108.695H107.162V107.735C107.162 106.835 107.792 106.625 108.242 106.625C108.572 106.625 108.767 106.67 108.872 106.7V105.215C108.752 105.155 108.392 105.065 107.957 105.065ZM110.042 106.115C110.042 106.73 110.537 107.24 111.167 107.24C111.797 107.24 112.307 106.73 112.307 106.115C112.307 105.485 111.797 104.975 111.167 104.975C110.537 104.975 110.042 105.485 110.042 106.115ZM116.029 116V105.14H114.289V116H116.029ZM119.488 111.545C119.548 110.765 120.178 109.925 121.273 109.925C122.473 109.925 123.043 110.69 123.073 111.545H119.488ZM123.268 113.45C123.028 114.17 122.488 114.725 121.438 114.725C120.358 114.725 119.488 113.93 119.443 112.82H124.783C124.798 112.79 124.828 112.55 124.828 112.265C124.828 109.955 123.508 108.47 121.258 108.47C119.413 108.47 117.703 110 117.703 112.31C117.703 114.785 119.458 116.225 121.438 116.225C123.193 116.225 124.348 115.19 124.738 113.915L123.268 113.45Z" fill="black" fill-opacity="0.8"/>
<path d="M57.91 152.06V150.365H49.195V152.06H52.645V161H54.445V152.06H57.91ZM62.3656 153.695L60.6406 158.75L59.1556 153.695H57.2956L59.6656 161H61.4506L63.2206 155.75L65.0356 161H66.7756L69.1156 153.695H67.3456L65.8906 158.75L64.1656 153.695H62.3656ZM73.4766 159.665C72.4116 159.665 71.4366 158.855 71.4366 157.34C71.4366 155.825 72.4116 155.045 73.4766 155.045C74.5566 155.045 75.5166 155.825 75.5166 157.34C75.5166 158.87 74.5566 159.665 73.4766 159.665ZM73.4766 153.47C71.3016 153.47 69.6966 155.105 69.6966 157.34C69.6966 159.59 71.3016 161.225 73.4766 161.225C75.6666 161.225 77.2716 159.59 77.2716 157.34C77.2716 155.105 75.6666 153.47 73.4766 153.47ZM82.7331 157.385V155.84H78.5031V157.385H82.7331ZM86.4842 161V156.71H90.8042V155.045H86.4842V152.06H91.2992V150.365H84.6842V161H86.4842ZM91.9064 159.02C91.9064 160.175 92.8514 161.225 94.3814 161.225C95.5664 161.225 96.2864 160.625 96.6314 160.07C96.6314 160.655 96.6914 160.955 96.7064 161H98.3264C98.3114 160.925 98.2364 160.49 98.2364 159.83V156.2C98.2364 154.745 97.3814 153.47 95.1314 153.47C93.3314 153.47 92.1914 154.595 92.0564 155.855L93.6464 156.215C93.7214 155.48 94.2314 154.895 95.1464 154.895C96.1064 154.895 96.5264 155.39 96.5264 156.005C96.5264 156.26 96.4064 156.47 95.9864 156.53L94.1114 156.815C92.8664 156.995 91.9064 157.715 91.9064 159.02ZM94.7114 159.86C94.0214 159.86 93.6464 159.41 93.6464 158.915C93.6464 158.315 94.0814 158.015 94.6214 157.925L96.5264 157.64V157.97C96.5264 159.395 95.6864 159.86 94.7114 159.86ZM103.505 155.075C104.615 155.075 105.11 155.795 105.275 156.44L106.835 155.87C106.535 154.7 105.455 153.47 103.49 153.47C101.39 153.47 99.7552 155.09 99.7552 157.34C99.7552 159.56 101.39 161.225 103.535 161.225C105.455 161.225 106.55 159.98 106.895 158.84L105.365 158.285C105.2 158.84 104.675 159.635 103.535 159.635C102.44 159.635 101.495 158.81 101.495 157.34C101.495 155.87 102.44 155.075 103.505 155.075ZM110.645 151.46H109.07V152.555C109.07 153.2 108.725 153.695 107.945 153.695H107.57V155.24H108.92V158.915C108.92 160.28 109.76 161.09 111.11 161.09C111.74 161.09 112.07 160.97 112.175 160.925V159.485C112.1 159.5 111.815 159.545 111.575 159.545C110.93 159.545 110.645 159.275 110.645 158.63V155.24H112.16V153.695H110.645V151.46ZM117.085 159.665C116.02 159.665 115.045 158.855 115.045 157.34C115.045 155.825 116.02 155.045 117.085 155.045C118.165 155.045 119.125 155.825 119.125 157.34C119.125 158.87 118.165 159.665 117.085 159.665ZM117.085 153.47C114.91 153.47 113.305 155.105 113.305 157.34C113.305 159.59 114.91 161.225 117.085 161.225C119.275 161.225 120.88 159.59 120.88 157.34C120.88 155.105 119.275 153.47 117.085 153.47ZM126.837 153.65C126.762 153.635 126.582 153.605 126.372 153.605C125.412 153.605 124.602 154.07 124.257 154.865V153.695H122.562V161H124.302V157.52C124.302 156.155 124.917 155.375 126.267 155.375C126.447 155.375 126.642 155.39 126.837 155.42V153.65ZM139.405 161H141.37L137.23 150.365H135.145L131.005 161H132.91L133.9 158.33H138.4L139.405 161ZM136.15 152.315L137.77 156.665H134.53L136.15 152.315ZM147.063 160.19C147.063 160.49 147.093 160.835 147.123 161H148.788C148.758 160.73 148.713 160.265 148.713 159.665V153.695H146.973V158.015C146.973 158.975 146.448 159.65 145.443 159.65C144.393 159.65 143.973 158.885 143.973 157.985V153.695H142.233V158.3C142.233 159.92 143.253 161.21 144.993 161.21C145.848 161.21 146.703 160.85 147.063 160.19ZM153.17 151.46H151.595V152.555C151.595 153.2 151.25 153.695 150.47 153.695H150.095V155.24H151.445V158.915C151.445 160.28 152.285 161.09 153.635 161.09C154.265 161.09 154.595 160.97 154.7 160.925V159.485C154.625 159.5 154.34 159.545 154.1 159.545C153.455 159.545 153.17 159.275 153.17 158.63V155.24H154.685V153.695H153.17V151.46ZM158.008 156.71C158.038 155.78 158.563 155.06 159.523 155.06C160.618 155.06 161.023 155.78 161.023 156.68V161H162.763V156.38C162.763 154.775 161.893 153.485 160.093 153.485C159.328 153.485 158.503 153.755 158.008 154.4V150.14H156.268V161H158.008V156.71ZM166.096 156.545C166.156 155.765 166.786 154.925 167.881 154.925C169.081 154.925 169.651 155.69 169.681 156.545H166.096ZM169.876 158.45C169.636 159.17 169.096 159.725 168.046 159.725C166.966 159.725 166.096 158.93 166.051 157.82H171.391C171.406 157.79 171.436 157.55 171.436 157.265C171.436 154.955 170.116 153.47 167.866 153.47C166.021 153.47 164.311 155 164.311 157.31C164.311 159.785 166.066 161.225 168.046 161.225C169.801 161.225 170.956 160.19 171.346 158.915L169.876 158.45ZM174.839 156.785C174.839 155.825 175.364 155.06 176.354 155.06C177.449 155.06 177.854 155.78 177.854 156.68V161H179.594V156.38C179.594 154.775 178.739 153.485 176.954 153.485C176.144 153.485 175.274 153.83 174.794 154.67V153.695H173.099V161H174.839V156.785ZM183.917 151.46H182.342V152.555C182.342 153.2 181.997 153.695 181.217 153.695H180.842V155.24H182.192V158.915C182.192 160.28 183.032 161.09 184.382 161.09C185.012 161.09 185.342 160.97 185.447 160.925V159.485C185.372 159.5 185.087 159.545 184.847 159.545C184.202 159.545 183.917 159.275 183.917 158.63V155.24H185.432V153.695H183.917V151.46ZM188.945 161V153.695H187.22V161H188.945ZM186.95 151.13C186.95 151.76 187.46 152.255 188.075 152.255C188.705 152.255 189.215 151.76 189.215 151.13C189.215 150.5 188.705 149.99 188.075 149.99C187.46 149.99 186.95 150.5 186.95 151.13ZM194.369 155.075C195.479 155.075 195.974 155.795 196.139 156.44L197.699 155.87C197.399 154.7 196.319 153.47 194.354 153.47C192.254 153.47 190.619 155.09 190.619 157.34C190.619 159.56 192.254 161.225 194.399 161.225C196.319 161.225 197.414 159.98 197.759 158.84L196.229 158.285C196.064 158.84 195.539 159.635 194.399 159.635C193.304 159.635 192.359 158.81 192.359 157.34C192.359 155.87 193.304 155.075 194.369 155.075ZM198.811 159.02C198.811 160.175 199.756 161.225 201.286 161.225C202.471 161.225 203.191 160.625 203.536 160.07C203.536 160.655 203.596 160.955 203.611 161H205.231C205.216 160.925 205.141 160.49 205.141 159.83V156.2C205.141 154.745 204.286 153.47 202.036 153.47C200.236 153.47 199.096 154.595 198.961 155.855L200.551 156.215C200.626 155.48 201.136 154.895 202.051 154.895C203.011 154.895 203.431 155.39 203.431 156.005C203.431 156.26 203.311 156.47 202.891 156.53L201.016 156.815C199.771 156.995 198.811 157.715 198.811 159.02ZM201.616 159.86C200.926 159.86 200.551 159.41 200.551 158.915C200.551 158.315 200.986 158.015 201.526 157.925L203.431 157.64V157.97C203.431 159.395 202.591 159.86 201.616 159.86ZM209.42 151.46H207.845V152.555C207.845 153.2 207.5 153.695 206.72 153.695H206.345V155.24H207.695V158.915C207.695 160.28 208.535 161.09 209.885 161.09C210.515 161.09 210.845 160.97 210.95 160.925V159.485C210.875 159.5 210.59 159.545 210.35 159.545C209.705 159.545 209.42 159.275 209.42 158.63V155.24H210.935V153.695H209.42V151.46ZM214.448 161V153.695H212.723V161H214.448ZM212.453 151.13C212.453 151.76 212.963 152.255 213.578 152.255C214.208 152.255 214.718 151.76 214.718 151.13C214.718 150.5 214.208 149.99 213.578 149.99C212.963 149.99 212.453 150.5 212.453 151.13ZM219.902 159.665C218.837 159.665 217.862 158.855 217.862 157.34C217.862 155.825 218.837 155.045 219.902 155.045C220.982 155.045 221.942 155.825 221.942 157.34C221.942 158.87 220.982 159.665 219.902 159.665ZM219.902 153.47C217.727 153.47 216.122 155.105 216.122 157.34C216.122 159.59 217.727 161.225 219.902 161.225C222.092 161.225 223.697 159.59 223.697 157.34C223.697 155.105 222.092 153.47 219.902 153.47ZM227.119 156.785C227.119 155.825 227.644 155.06 228.634 155.06C229.729 155.06 230.134 155.78 230.134 156.68V161H231.874V156.38C231.874 154.775 231.019 153.485 229.234 153.485C228.424 153.485 227.554 153.83 227.074 154.67V153.695H225.379V161H227.119V156.785Z" fill="black" fill-opacity="0.8"/>
<path d="M59.2 211V200.365H57.4V207.91L52.57 200.365H50.275V211H52.075V202.945L57.325 211H59.2ZM64.7754 209.665C63.7104 209.665 62.7354 208.855 62.7354 207.34C62.7354 205.825 63.7104 205.045 64.7754 205.045C65.8554 205.045 66.8154 205.825 66.8154 207.34C66.8154 208.87 65.8554 209.665 64.7754 209.665ZM64.7754 203.47C62.6004 203.47 60.9954 205.105 60.9954 207.34C60.9954 209.59 62.6004 211.225 64.7754 211.225C66.9654 211.225 68.5704 209.59 68.5704 207.34C68.5704 205.105 66.9654 203.47 64.7754 203.47ZM72.413 201.46H70.838V202.555C70.838 203.2 70.493 203.695 69.713 203.695H69.338V205.24H70.688V208.915C70.688 210.28 71.528 211.09 72.878 211.09C73.508 211.09 73.838 210.97 73.943 210.925V209.485C73.868 209.5 73.583 209.545 73.343 209.545C72.698 209.545 72.413 209.275 72.413 208.63V205.24H73.928V203.695H72.413V201.46ZM77.4408 211V203.695H75.7158V211H77.4408ZM75.4458 201.13C75.4458 201.76 75.9558 202.255 76.5708 202.255C77.2008 202.255 77.7108 201.76 77.7108 201.13C77.7108 200.5 77.2008 199.99 76.5708 199.99C75.9558 199.99 75.4458 200.5 75.4458 201.13ZM82.6405 200.065C81.1405 200.065 80.0905 201.055 80.0905 202.69V203.695H78.8155V205.21H80.0905V211H81.8455V205.21H84.9955V211H86.7055V203.695H81.8455V202.735C81.8455 201.835 82.4755 201.625 82.9255 201.625C83.2555 201.625 83.4505 201.67 83.5555 201.7V200.215C83.4355 200.155 83.0755 200.065 82.6405 200.065ZM84.7255 201.115C84.7255 201.73 85.2205 202.24 85.8505 202.24C86.4805 202.24 86.9905 201.73 86.9905 201.115C86.9905 200.485 86.4805 199.975 85.8505 199.975C85.2205 199.975 84.7255 200.485 84.7255 201.115ZM92.1527 205.075C93.2627 205.075 93.7577 205.795 93.9227 206.44L95.4827 205.87C95.1827 204.7 94.1027 203.47 92.1377 203.47C90.0377 203.47 88.4027 205.09 88.4027 207.34C88.4027 209.56 90.0377 211.225 92.1827 211.225C94.1027 211.225 95.1977 209.98 95.5427 208.84L94.0127 208.285C93.8477 208.84 93.3227 209.635 92.1827 209.635C91.0877 209.635 90.1427 208.81 90.1427 207.34C90.1427 205.87 91.0877 205.075 92.1527 205.075ZM96.5939 209.02C96.5939 210.175 97.5389 211.225 99.0689 211.225C100.254 211.225 100.974 210.625 101.319 210.07C101.319 210.655 101.379 210.955 101.394 211H103.014C102.999 210.925 102.924 210.49 102.924 209.83V206.2C102.924 204.745 102.069 203.47 99.8189 203.47C98.0189 203.47 96.8789 204.595 96.7439 205.855L98.3339 206.215C98.4089 205.48 98.9189 204.895 99.8339 204.895C100.794 204.895 101.214 205.39 101.214 206.005C101.214 206.26 101.094 206.47 100.674 206.53L98.7989 206.815C97.5539 206.995 96.5939 207.715 96.5939 209.02ZM99.3989 209.86C98.7089 209.86 98.3339 209.41 98.3339 208.915C98.3339 208.315 98.7689 208.015 99.3089 207.925L101.214 207.64V207.97C101.214 209.395 100.374 209.86 99.3989 209.86ZM107.203 201.46H105.628V202.555C105.628 203.2 105.283 203.695 104.503 203.695H104.128V205.24H105.478V208.915C105.478 210.28 106.318 211.09 107.668 211.09C108.298 211.09 108.628 210.97 108.733 210.925V209.485C108.658 209.5 108.373 209.545 108.133 209.545C107.488 209.545 107.203 209.275 107.203 208.63V205.24H108.718V203.695H107.203V201.46ZM112.231 211V203.695H110.506V211H112.231ZM110.236 201.13C110.236 201.76 110.746 202.255 111.361 202.255C111.991 202.255 112.501 201.76 112.501 201.13C112.501 200.5 111.991 199.99 111.361 199.99C110.746 199.99 110.236 200.5 110.236 201.13ZM117.686 209.665C116.621 209.665 115.646 208.855 115.646 207.34C115.646 205.825 116.621 205.045 117.686 205.045C118.766 205.045 119.726 205.825 119.726 207.34C119.726 208.87 118.766 209.665 117.686 209.665ZM117.686 203.47C115.511 203.47 113.906 205.105 113.906 207.34C113.906 209.59 115.511 211.225 117.686 211.225C119.876 211.225 121.481 209.59 121.481 207.34C121.481 205.105 119.876 203.47 117.686 203.47ZM124.902 206.785C124.902 205.825 125.427 205.06 126.417 205.06C127.512 205.06 127.917 205.78 127.917 206.68V211H129.657V206.38C129.657 204.775 128.802 203.485 127.017 203.485C126.207 203.485 125.337 203.83 124.857 204.67V203.695H123.162V211H124.902V206.785ZM131.13 209.02C131.22 209.845 132.03 211.225 134.145 211.225C136.005 211.225 136.905 209.995 136.905 208.885C136.905 207.805 136.185 206.965 134.805 206.665L133.695 206.44C133.245 206.35 132.96 206.065 132.96 205.675C132.96 205.225 133.395 204.835 134.01 204.835C134.985 204.835 135.3 205.51 135.36 205.93L136.83 205.51C136.71 204.79 136.05 203.47 134.01 203.47C132.495 203.47 131.325 204.55 131.325 205.825C131.325 206.83 132 207.67 133.29 207.955L134.37 208.195C134.955 208.315 135.225 208.615 135.225 209.005C135.225 209.455 134.85 209.845 134.13 209.845C133.2 209.845 132.705 209.26 132.645 208.6L131.13 209.02Z" fill="black" fill-opacity="0.8"/>
<path d="M58.885 262V251.365H57.07V255.76H52.075V251.365H50.275V262H52.075V257.455H57.07V262H58.885ZM62.4728 257.545C62.5328 256.765 63.1628 255.925 64.2578 255.925C65.4578 255.925 66.0278 256.69 66.0578 257.545H62.4728ZM66.2528 259.45C66.0128 260.17 65.4728 260.725 64.4228 260.725C63.3428 260.725 62.4728 259.93 62.4278 258.82H67.7678C67.7828 258.79 67.8128 258.55 67.8128 258.265C67.8128 255.955 66.4928 254.47 64.2428 254.47C62.3978 254.47 60.6878 256 60.6878 258.31C60.6878 260.785 62.4428 262.225 64.4228 262.225C66.1778 262.225 67.3328 261.19 67.7228 259.915L66.2528 259.45ZM71.2156 262V251.14H69.4756V262H71.2156ZM75.185 264.85V261.175C75.56 261.73 76.355 262.18 77.405 262.18C79.505 262.18 80.84 260.53 80.84 258.34C80.84 256.18 79.625 254.53 77.465 254.53C76.34 254.53 75.5 255.055 75.14 255.685V254.695H73.46V264.85H75.185ZM79.1 258.34C79.1 259.735 78.29 260.635 77.135 260.635C75.995 260.635 75.17 259.735 75.17 258.34C75.17 256.975 75.995 256.075 77.135 256.075C78.305 256.075 79.1 256.975 79.1 258.34Z" fill="black" fill-opacity="0.8"/>
<path d="M57.265 297.855C57.025 296.67 56.05 295.14 53.545 295.14C51.565 295.14 49.93 296.61 49.93 298.395C49.93 299.985 51.01 301.05 52.63 301.38L54.13 301.695C55.045 301.89 55.555 302.445 55.555 303.135C55.555 303.96 54.895 304.605 53.62 304.605C52.09 304.605 51.295 303.585 51.19 302.475L49.51 302.955C49.675 304.485 50.92 306.225 53.62 306.225C56.05 306.225 57.385 304.65 57.385 303C57.385 301.5 56.38 300.315 54.505 299.94L52.975 299.625C52.15 299.445 51.73 298.935 51.73 298.26C51.73 297.45 52.48 296.73 53.56 296.73C54.985 296.73 55.54 297.705 55.645 298.365L57.265 297.855ZM60.7855 306V298.695H59.0605V306H60.7855ZM58.7905 296.13C58.7905 296.76 59.3005 297.255 59.9155 297.255C60.5455 297.255 61.0555 296.76 61.0555 296.13C61.0555 295.5 60.5455 294.99 59.9155 294.99C59.3005 294.99 58.7905 295.5 58.7905 296.13ZM62.5053 306.405C62.7003 307.875 64.0503 309.075 65.9853 309.075C68.7303 309.075 69.7353 307.26 69.7353 305.31V298.695H68.0553V299.625C67.7403 299.025 67.0353 298.56 65.8953 298.56C63.8853 298.56 62.5203 300.165 62.5203 302.115C62.5203 304.17 63.9453 305.67 65.8953 305.67C66.9603 305.67 67.6953 305.175 68.0103 304.605V305.37C68.0103 306.855 67.3203 307.56 65.9403 307.56C64.9353 307.56 64.2303 306.885 64.1103 305.985L62.5053 306.405ZM66.1803 304.185C65.0403 304.185 64.2753 303.39 64.2753 302.115C64.2753 300.87 65.0703 300.06 66.1803 300.06C67.2603 300.06 68.0553 300.87 68.0553 302.115C68.0553 303.375 67.2903 304.185 66.1803 304.185ZM73.6033 301.785C73.6033 300.825 74.1283 300.06 75.1183 300.06C76.2133 300.06 76.6183 300.78 76.6183 301.68V306H78.3583V301.38C78.3583 299.775 77.5033 298.485 75.7183 298.485C74.9083 298.485 74.0383 298.83 73.5583 299.67V298.695H71.8633V306H73.6033V301.785ZM85.5473 300.675C85.5473 298.11 87.3173 296.835 89.1023 296.835C90.9023 296.835 92.6723 298.11 92.6723 300.675C92.6723 303.24 90.9023 304.515 89.1023 304.515C87.3173 304.515 85.5473 303.24 85.5473 300.675ZM83.7023 300.675C83.7023 304.17 86.3123 306.225 89.1023 306.225C91.8923 306.225 94.5173 304.17 94.5173 300.675C94.5173 297.195 91.8923 295.14 89.1023 295.14C86.3123 295.14 83.7023 297.195 83.7023 300.675ZM101.023 305.19C101.023 305.49 101.053 305.835 101.083 306H102.748C102.718 305.73 102.673 305.265 102.673 304.665V298.695H100.933V303.015C100.933 303.975 100.408 304.65 99.4026 304.65C98.3526 304.65 97.9326 303.885 97.9326 302.985V298.695H96.1926V303.3C96.1926 304.92 97.2126 306.21 98.9526 306.21C99.8076 306.21 100.663 305.85 101.023 305.19ZM107.13 296.46H105.555V297.555C105.555 298.2 105.21 298.695 104.43 298.695H104.055V300.24H105.405V303.915C105.405 305.28 106.245 306.09 107.595 306.09C108.225 306.09 108.555 305.97 108.66 305.925V304.485C108.585 304.5 108.3 304.545 108.06 304.545C107.415 304.545 107.13 304.275 107.13 303.63V300.24H108.645V298.695H107.13V296.46Z" fill="black" fill-opacity="0.8"/>
<path d="M127.718 33.66C127.382 31.98 125.996 29.796 122.384 29.796C119.57 29.796 117.197 31.812 117.197 34.458C117.197 36.705 118.73 38.238 121.103 38.721L123.182 39.141C124.337 39.372 124.988 40.044 124.988 40.905C124.988 41.955 124.127 42.732 122.573 42.732C120.473 42.732 119.444 41.409 119.318 39.939L116.63 40.653C116.861 42.774 118.604 45.315 122.552 45.315C126.017 45.315 127.928 43.005 127.928 40.716C127.928 38.616 126.479 36.852 123.77 36.327L121.691 35.928C120.599 35.718 120.074 35.067 120.074 34.248C120.074 33.261 120.998 32.358 122.405 32.358C124.295 32.358 124.967 33.639 125.114 34.458L127.718 33.66ZM132.12 38.658C132.183 37.713 132.981 36.621 134.43 36.621C136.026 36.621 136.698 37.629 136.74 38.658H132.12ZM137.013 41.346C136.677 42.27 135.963 42.921 134.661 42.921C133.275 42.921 132.12 41.934 132.057 40.569H139.449C139.449 40.527 139.491 40.107 139.491 39.708C139.491 36.39 137.58 34.353 134.388 34.353C131.742 34.353 129.306 36.495 129.306 39.792C129.306 43.278 131.805 45.315 134.64 45.315C137.181 45.315 138.819 43.824 139.344 42.039L137.013 41.346ZM145.134 31.581H142.614V33.03C142.614 33.954 142.11 34.668 141.018 34.668H140.493V37.146H142.362V41.955C142.362 43.95 143.622 45.147 145.638 45.147C146.457 45.147 146.961 45 147.213 44.895V42.585C147.066 42.627 146.688 42.669 146.352 42.669C145.554 42.669 145.134 42.375 145.134 41.472V37.146H147.213V34.668H145.134V31.581ZM152.968 31.581H150.448V33.03C150.448 33.954 149.944 34.668 148.852 34.668H148.327V37.146H150.196V41.955C150.196 43.95 151.456 45.147 153.472 45.147C154.291 45.147 154.795 45 155.047 44.895V42.585C154.9 42.627 154.522 42.669 154.186 42.669C153.388 42.669 152.968 42.375 152.968 41.472V37.146H155.047V34.668H152.968V31.581ZM160.213 45V34.668H157.42V45H160.213ZM157.084 31.287C157.084 32.211 157.861 32.988 158.806 32.988C159.772 32.988 160.528 32.211 160.528 31.287C160.528 30.321 159.772 29.544 158.806 29.544C157.861 29.544 157.084 30.321 157.084 31.287ZM165.996 39.057C165.996 37.86 166.71 36.915 167.928 36.915C169.272 36.915 169.839 37.818 169.839 38.973V45H172.632V38.49C172.632 36.222 171.456 34.395 168.894 34.395C167.781 34.395 166.542 34.878 165.912 35.949V34.668H163.203V45H165.996V39.057ZM174.732 45.567C175.026 47.541 176.916 49.305 179.751 49.305C183.636 49.305 185.169 46.722 185.169 43.887V34.668H182.481V35.886C182.124 35.193 181.179 34.479 179.541 34.479C176.706 34.479 174.732 36.789 174.732 39.519C174.732 42.417 176.79 44.538 179.541 44.538C181.032 44.538 181.998 43.887 182.418 43.215V43.971C182.418 45.966 181.431 46.848 179.667 46.848C178.344 46.848 177.441 46.029 177.252 44.895L174.732 45.567ZM180.024 42.144C178.575 42.144 177.546 41.136 177.546 39.519C177.546 37.923 178.638 36.915 180.024 36.915C181.368 36.915 182.46 37.923 182.46 39.519C182.46 41.115 181.452 42.144 180.024 42.144ZM187.115 42.123C187.241 43.299 188.312 45.315 191.42 45.315C194.129 45.315 195.431 43.593 195.431 41.913C195.431 40.401 194.402 39.162 192.365 38.742L190.895 38.427C190.328 38.322 189.95 38.007 189.95 37.503C189.95 36.915 190.538 36.474 191.273 36.474C192.449 36.474 192.89 37.251 192.974 37.86L195.305 37.335C195.179 36.222 194.192 34.353 191.252 34.353C189.026 34.353 187.388 35.886 187.388 37.734C187.388 39.183 188.291 40.38 190.286 40.821L191.651 41.136C192.449 41.304 192.764 41.682 192.764 42.144C192.764 42.69 192.323 43.173 191.399 43.173C190.181 43.173 189.572 42.417 189.509 41.598L187.115 42.123Z" fill="white"/>
<path fill-rule="evenodd" clip-rule="evenodd" d="M27.8569 108.286V107.071C27.8569 105.059 29.4878 103.428 31.4997 103.428C33.5116 103.428 35.1426 105.059 35.1426 107.071V108.286H35.7497C36.085 108.286 36.3569 108.557 36.3569 108.893V114.964C36.3569 115.299 36.085 115.571 35.7497 115.571H27.2497C26.9144 115.571 26.6426 115.299 26.6426 114.964V108.893C26.6426 108.557 26.9144 108.286 27.2497 108.286H27.8569ZM29.0711 108.286H33.9283V107.071C33.9283 105.73 32.841 104.643 31.4997 104.643C30.1585 104.643 29.0711 105.73 29.0711 107.071V108.286Z" fill="black"/>
<path fill-rule="evenodd" clip-rule="evenodd" d="M32.7798 248.881C28.9698 248.881 25.8813 251.97 25.8813 255.78C25.8813 259.59 28.9698 262.678 32.7798 262.678C36.5898 262.678 39.6783 259.59 39.6783 255.78C39.6783 251.97 36.5898 248.881 32.7798 248.881ZM32.7798 249.509C36.2434 249.509 39.0511 252.316 39.0511 255.78C39.0511 259.243 36.2434 262.051 32.7798 262.051C29.3162 262.051 26.5085 259.243 26.5085 255.78C26.5085 252.316 29.3162 249.509 32.7798 249.509ZM33.4069 259.229H34.0341V259.543H31.5255V259.229H32.1527V254.526H31.5255V254.212H33.4069V259.229ZM33.4069 252.55C33.4069 252.983 33.056 253.334 32.623 253.334C32.19 253.334 31.8391 252.983 31.8391 252.55C31.8391 252.117 32.19 251.766 32.623 251.766C33.056 251.766 33.4069 252.117 33.4069 252.55Z" fill="black"/>
<path d="M31.5002 147.583C27.1302 147.583 23.5835 151.13 23.5835 155.5C23.5835 159.87 27.1302 163.417 31.5002 163.417C35.8702 163.417 39.4168 159.87 39.4168 155.5C39.4168 151.13 35.8702 147.583 31.5002 147.583ZM31.5002 161.833C28.0089 161.833 25.1668 158.991 25.1668 155.5C25.1668 152.009 28.0089 149.167 31.5002 149.167C34.9914 149.167 37.8335 152.009 37.8335 155.5C37.8335 158.991 34.9914 161.833 31.5002 161.833Z" fill="black"/>
<path d="M35.1337 152.001L29.9167 157.218L27.8662 155.175L26.75 156.292L29.9167 159.458L36.25 153.125L35.1337 152.001Z" fill="black"/>
<path fill-rule="evenodd" clip-rule="evenodd" d="M30.9057 198.033C31.1064 198.011 31.3042 198 31.5001 198C34.3473 198 36.6564 200.308 36.6564 203.156C36.6564 204.857 35.8314 206.362 34.561 207.3C34.0984 207.643 33.8439 208.198 33.8439 208.774V212.531C33.8439 212.79 33.6339 213 33.3751 213H29.6251C29.3659 213 29.1564 212.79 29.1564 212.531V211.594H29.8604V212.298H33.1416V210.187H33.8437V209.25H33.1416V208.775C33.1416 207.962 33.5166 207.2 34.1443 206.735C35.2946 205.886 35.9541 204.582 35.9541 203.157C35.9541 200.702 33.9563 198.704 31.501 198.704C31.3304 198.704 31.157 198.714 30.9849 198.733C29.0335 198.951 27.4013 200.511 27.1027 202.444C26.8482 204.094 27.5138 205.734 28.8404 206.723C29.4793 207.2 29.8604 207.966 29.8604 208.774V209.25H29.1564V208.773C29.1564 208.189 28.8868 207.635 28.419 207.286C26.9598 206.197 26.0954 204.357 26.4071 202.336C26.7559 200.077 28.6346 198.287 30.9057 198.033ZM29.8604 210.656H29.1564V210.187H29.8604V210.656Z" fill="black"/>
<rect x="22" y="131" width="257" height="2" fill="black" fill-opacity="0.15"/>
<path fill-rule="evenodd" clip-rule="evenodd" d="M27.8569 108.286V107.071C27.8569 105.059 29.4878 103.428 31.4997 103.428C33.5116 103.428 35.1426 105.059 35.1426 107.071V108.286H35.7497C36.085 108.286 36.3569 108.557 36.3569 108.893V114.964C36.3569 115.299 36.085 115.571 35.7497 115.571H27.2497C26.9144 115.571 26.6426 115.299 26.6426 114.964V108.893C26.6426 108.557 26.9144 108.286 27.2497 108.286H27.8569ZM29.0711 108.286H33.9283V107.071C33.9283 105.73 32.841 104.643 31.4997 104.643C30.1585 104.643 29.0711 105.73 29.0711 107.071V108.286Z" fill="black"/>
<rect x="22" y="180" width="257" height="2" fill="black" fill-opacity="0.15"/>
<rect x="22" y="229" width="257" height="2" fill="black" fill-opacity="0.15"/>
<rect x="22" y="278" width="257" height="2" fill="black" fill-opacity="0.15"/>
<path d="M39.8144 301.348L37.9332 301.317L37.9537 300.063L39.8348 300.094C40.1796 300.099 40.4573 300.386 40.4517 300.731C40.446 301.076 40.1591 301.354 39.8144 301.348Z" fill="black"/>
<path d="M37.9537 300.063L37.9946 297.555C38.0199 296.003 36.7709 294.712 35.2189 294.687L28.9484 294.585C27.3964 294.56 26.106 295.809 26.0807 297.361L25.9784 303.631C25.9531 305.183 27.2021 306.473 28.7541 306.499L35.0246 306.601C36.5766 306.626 37.867 305.377 37.8923 303.825L37.9332 301.317L30.8645 301.202L32.416 303.006C32.6414 303.269 32.6117 303.664 32.3495 303.89C32.0867 304.116 31.6909 304.086 31.4649 303.824L29.0027 300.961C28.899 300.841 28.8488 300.691 28.8512 300.542C28.8537 300.393 28.9088 300.245 29.0163 300.128L31.5706 297.347C31.805 297.092 32.2016 297.075 32.4569 297.309C32.7115 297.543 32.7287 297.94 32.4945 298.196L30.885 299.948L37.9537 300.063Z" fill="black"/>
</svg>
